<!-- Generator: Adobe Illustrator 23.0.4, SVG Export Plug-In  -->
<svg version="1.1" xmlns="http://www.w3.org/2000/svg" xmlns:xlink="http://www.w3.org/1999/xlink" x="0px" y="0px"
     width="238.36px" height="238.39px" viewBox="0 0 238.36 238.39" style="enable-background:new 0 0 238.36 238.39;"
     xml:space="preserve">
<style type="text/css">
    .st0{fill:#FFFFFF;}
</style>
<defs>
</defs>
<g id="UMjqJD_2_">
    <g>
        <path class="st0" d="M123.82,0c1.1,0.63,1.3,1.69,1.45,2.84c0.34,2.61,0.72,5.22,1.17,7.82c0.14,0.8,0.63,1.54,0.86,2.34
            c0.33,1.14,0.55,2.32,0.86,3.46c0.22,0.79,0.35,1.7,0.83,2.31c0.88,1.11,1.25,2.31,1.24,3.66c-0.01,1.22,0.55,2.16,1.11,3.2
            c0.72,1.33,1.02,2.89,1.56,4.33c0.34,0.91,0.75,1.81,1.2,2.68c1.06,2.06,2.5,4,3.19,6.18c2.39,7.55,6.05,14.39,10.7,20.75
            c0.16,0.23,0.32,0.46,0.47,0.69c0.04,0.06,0.02,0.15,0.07,0.54c-3.1,0.25-6.19,0.61-9.29,0.74c-3.12,0.13-6.25,0.03-9.41,0.03
            c0,1.61,0.88,2.05,1.97,2.27c2.38,0.49,4.83,0.77,7.13,1.51c3.34,1.07,6.76,2.12,9.79,3.82c3.59,2.02,6.91,4.57,10.14,7.16
            c2.45,1.97,4.56,4.35,6.82,6.55c0.17,0.17,0.35,0.34,0.47,0.54c1.96,3.47,4.96,6.15,7.15,9.49c2.6,3.98,4.66,8.06,5.77,12.66
            c0.57,2.38,0.62,2.37,2.97,1.64c2.54-0.78,2.73-0.98,2.79-3.69c0.09-3.88,0.09-7.76,0.22-11.64c0.02-0.69,0.46-1.37,0.71-2.05
            c0.71,0.37,1.5,0.64,2.12,1.13c1.6,1.23,2.97,2.87,4.72,3.79c5.79,3.04,11.68,5.88,17.59,8.69c1.7,0.81,3.57,1.32,5.39,1.83
            c1.6,0.45,3.11,0.96,4.27,2.25c0.36,0.4,0.87,0.73,1.37,0.94c2.31,0.95,4.66,1.83,6.98,2.77c3.18,1.29,6.36,2.59,9.52,3.92
            c0.91,0.38,0.76,1.08,0.08,1.43c-2.22,1.14-4.49,2.18-6.77,3.2c-1.08,0.48-2.39,0.61-3.31,1.29c-2.97,2.18-6.32,3.56-9.67,4.97
            c-2.28,0.96-4.53,1.92-6.34,3.77c-0.82,0.84-2.19,1.11-3.23,1.77c-2.97,1.87-5.89,3.8-8.84,5.71c-0.27,0.17-0.53,0.39-0.82,0.49
            c-4.05,1.35-7.3,4.08-10.86,6.28c-0.42,0.26-0.92,0.39-1.38,0.57c-0.12-0.48-0.35-0.97-0.35-1.45c0.04-4.19,0.1-8.38,0.19-12.57
            c0.04-1.77-0.11-1.99-1.89-2.12c-0.96-0.07-1.92-0.1-2.88-0.15c-0.93-0.05-1.5,0.34-1.43,1.32c0.41,5.58-1.46,10.74-3.1,15.89
            c-0.95,3-2.25,5.93-4.6,8.35c-2.61,2.69-4.83,5.75-7.21,8.66c-0.33,0.4-0.68,0.81-0.9,1.27c-1.67,3.46-4.45,5.89-7.4,8.2
            c-1.5,1.18-2.87,2.54-4.3,3.81c-0.45,0.4-0.87,0.84-1.38,1.15c-3.75,2.26-7.51,4.51-11.28,6.72c-0.47,0.27-1.03,0.47-1.56,0.53
            c-0.78,0.08-1.03,0.48-1.03,1.18c-0.01,0.72,0.19,1.31,1.02,1.35c3.46,0.13,6.92,0.57,10.37-0.35c2.36-0.63,4.7-0.11,7.39,0.67
            c-0.68,0.59-1.09,0.91-1.47,1.27c-0.77,0.72-1.52,1.45-2.29,2.17c-0.28,0.26-0.54,0.64-0.87,0.72c-1.25,0.3-1.96,1.16-2.58,2.18
            c-1.58,2.6-3.05,5.27-4.77,7.76c-3.35,4.86-6.85,9.62-10.25,14.44c-0.99,1.4-1.68,3.04-2.83,4.26c-2.59,2.75-3.8,6.24-5.48,9.48
            c-1.08,2.08-2.17,4.16-3.24,6.25c-0.41,0.8-0.75,1.64-1.28,2.78c-0.42-0.82-0.83-1.39-1.03-2.03c-0.9-2.88-1.94-5.65-3.97-7.98
            c-0.51-0.59-0.71-1.51-0.9-2.31c-0.21-0.85-0.63-1.29-1.52-1.41c-1.62-0.22-2.04-1.05-1.28-2.51c0.92-1.77,1.69-3.55,1.03-5.6
            c-0.09-0.27-0.19-0.53-0.3-0.78c-0.05-0.1-0.13-0.19-0.26-0.37c-0.47,0.9-0.88,1.69-1.42,2.73c-0.5-0.54-0.98-0.9-1.25-1.37
            c-1.83-3.19-3.59-6.41-5.44-9.59c-0.54-0.93-1.23-1.77-1.9-2.61c-2.08-2.59-4.27-5.09-6.25-7.74c-1.73-2.32-3.56-4.48-5.96-6.14
            c-0.31-0.22-0.53-0.58-1.01-1.15c0.85-0.24,1.48-0.56,2.13-0.58c4.76-0.16,9.51-0.25,14.27-0.37c0.48-0.01,0.96-0.05,1.44-0.08
            c0.75-0.04,1.39-0.26,1.33-1.17c-0.06-0.83-0.55-1.2-1.4-1.34c-2.59-0.42-5.17-0.89-7.74-1.45c-0.84-0.18-1.66-0.6-2.4-1.04
            c-2.82-1.67-5.71-3.25-8.38-5.13c-6.92-4.87-13.31-10.36-18.75-16.87c-2.85-3.41-4.99-7.31-5.93-11.65
            c-0.83-3.84-1.2-7.8-1.6-11.72c-0.32-3.1-0.39-6.22-0.52-9.33c-0.04-0.94-0.38-1.29-1.34-1.15c-0.63,0.1-1.28,0.02-1.92,0.03
            c-1.41,0.01-1.8,0.36-1.79,1.76c0,1.92,0.03,3.84,0.07,5.75c0.05,2.34,0.09,4.67,0.18,7.01c0.04,0.94-0.52,1.37-1.46,0.92
            c-0.86-0.41-1.68-0.92-2.51-1.4c-2.64-1.56-5.28-3.12-7.92-4.69c-0.07-0.04-0.13-0.1-0.2-0.12c-3.5-0.93-6.17-3.46-9.39-4.91
            c-0.84-0.38-1.81-0.55-2.74-0.66c-4.71-0.56-8.92-2.32-12.7-5.17c-0.62-0.47-1.34-0.83-2.06-1.12c-2.15-0.86-4.29-1.75-6.5-2.45
            c-1.81-0.57-3.72-0.8-5.54-1.33c-1.9-0.55-3.75-1.25-5.62-1.92c-0.22-0.08-0.35-0.39-0.72-0.83c1.7-0.48,3.2-1.13,4.74-1.29
            c2.11-0.22,4.08-0.71,5.95-1.68c2.86-1.48,5.69-2.92,8.77-4.03c4.74-1.7,9.18-4.2,13.77-6.32c5.61-2.59,11.25-5.13,16.87-7.73
            c2.13-0.99,4.23-2.05,6.33-3.12c1.14-0.58,1.67-0.29,1.62,0.99c-0.06,1.4-0.14,2.8-0.32,4.19c-0.38,2.97-0.18,5.9,0.42,8.82
            c0.17,0.82,0.44,1.47,1.39,1.52c1.02,0.05,2.06,0.03,2.55-1.1c0.25-0.58,0.42-1.21,0.56-1.83c1.18-5.6,3.92-10.41,7.25-14.98
            c1.4-1.92,2.89-3.68,4.77-5.16c0.98-0.77,1.7-1.9,2.43-2.94c3.82-5.46,9.04-9.32,14.63-12.74c2.21-1.35,4.51-2.58,6.76-3.88
            c2.77-1.6,5.78-2.5,8.88-3.13c1.19-0.24,2.21-0.72,2.47-2.39c-0.79-0.12-1.59-0.4-2.36-0.33c-4.54,0.39-9.07,0.87-13.61,1.31
            c-0.54,0.05-1.09,0.01-1.96,0.01c0.41-0.77,0.65-1.33,0.97-1.84c2.44-3.8,4.95-7.55,7.31-11.39c0.98-1.59,1.68-3.35,2.44-5.06
            c0.57-1.26,1.08-1.42,2.43-1.22c1.05,0.16,2.25,0.14,3.22-0.23c2.28-0.87,2.52-2.97,0.67-4.6c-2.94-2.58-2.99-3.03-0.77-6.21
            c1.73-2.47,3.19-5.07,3.69-8.11c0.04-0.27,0.13-0.61,0.31-0.76c1.95-1.62,2.13-4.14,3.21-6.2c1.11-2.11,2.23-4.22,3.48-6.25
            c0.89-1.43,1.11-2.93,1.24-4.55c0.18-2.32,0.71-4.55,2.48-6.27C123.02,0,123.42,0,123.82,0z M125.39,71.62
            c-8.21,0.69-16.5,2.4-23.44,8.11c-0.86,0.71-1.81,1.33-2.77,1.9c-2.4,1.43-4.03,3.42-4.95,6.08C93.46,89.93,92.4,92,91.09,94
            c-2.19,3.33-3.08,7.08-2.59,11.09c0.27,2.18,0.78,4.37,0.68,6.53c-0.22,4.43-0.74,8.84-1.21,13.25c-0.12,1.14-0.47,2.27-0.84,3.36
            c-1.19,3.52-2.47,7-3.65,10.52c-0.2,0.61-0.32,1.4-0.1,1.96c1.12,2.95,2.35,5.85,3.55,8.77c0.28,0.67,0.69,1.01,1.5,0.69
            c0.4-0.16,0.99-0.17,1.37,0.02c3.78,1.86,7.9,2.91,11.29,5.69c4.25,3.49,6.96,7.59,7.19,13.21c0.1,2.59,0.47,5.17,0.73,7.76
            c0.07,0.65,0.3,1.33,1.11,0.91c1.75-0.89,3.36-0.74,4.99,0.28c0.36,0.22,0.84,0.24,1.26,0.38c0.98,0.35,1.58,0,2.24-0.79
            c1-1.2,1.99-2.64,3.99-2.07c0.25,0.07,0.58-0.19,0.89-0.28c0.24-0.07,0.6-0.22,0.72-0.12c0.86,0.74,1.73,1.47,2.46,2.32
            c0.4,0.46,0.51,1.16,0.81,1.73c0.38,0.71,0.96,0.86,1.58,0.32c1.65-1.47,2.88-3.2,3.2-5.46c0.23-1.61,0.51-3.22,0.73-4.84
            c0.63-4.61,2.3-8.72,5.73-11.96c0.82-0.77,1.77-1.59,2.81-1.92c3.73-1.17,7.5-2.21,11.3-3.16c2.28-0.57,3.98-1.8,4.79-3.95
            c1.12-2.97,1.53-6.03,0.35-9.13c-0.95-2.5-1.67-5.1-2.76-7.53c-2.65-5.89-2.69-12.01-1.91-18.24c0.38-3.03,0.57-6.04-0.06-9.06
            c-1.27-6.09-3.46-11.87-5.96-17.53c-0.46-1.04-1.16-2.04-1.95-2.85c-2.76-2.84-5.55-5.65-8.44-8.35
            C133.78,72.67,129.97,71.63,125.39,71.62z M154.22,162.89c-1.9-0.93-3.52-0.74-4.72,0.39c-0.66,0.62-1.37,1.2-2.06,1.8
            c-1.38,1.2-2.65,2.43-2.25,4.55c0.07,0.39-0.31,0.85-0.43,1.29c-0.12,0.45-0.17,0.93-0.24,1.39c0.39-0.1,0.83-0.11,1.17-0.31
            c3.23-1.83,5.47-4.71,7.83-7.46C153.87,164.11,153.97,163.47,154.22,162.89z M161.4,162.74c-1.75,1.44-2.1,3.43-3.13,5.18
            C160.38,167.53,162.09,164.81,161.4,162.74z M201.14,133.85c-0.12-0.16-0.25-0.33-0.37-0.49c-1.44,0.5-2.66,1.41-3.88,2.31
            c-0.12,0.09-0.1,0.6,0.03,0.73c0.15,0.14,0.56,0.18,0.76,0.08c0.6-0.3,1.18-0.66,1.71-1.07
            C200.01,134.93,200.56,134.37,201.14,133.85z M121,206.73c0.13,0.86,0.13,1.42,0.32,1.9c0.13,0.34,0.48,0.66,0.81,0.84
            c0.13,0.07,0.66-0.26,0.69-0.46c0.06-0.38,0.01-0.9-0.22-1.17C122.28,207.45,121.74,207.22,121,206.73z M154.44,171.74
            c-0.12-0.13-0.23-0.25-0.35-0.38c-0.94,0.86-1.88,1.72-2.82,2.58c0.14,0.14,0.27,0.29,0.41,0.43
            C152.6,173.5,153.52,172.62,154.44,171.74z M132.47,179.37c0.06,0.11,0.12,0.22,0.19,0.33c0.43-0.2,1.1-0.3,1.22-0.62
            c0.18-0.47-0.04-1.08-0.09-1.64c-0.09-0.01-0.19-0.01-0.28-0.02C133.16,178.08,132.81,178.72,132.47,179.37z M124.44,224.02
            c-0.15-0.1-0.3-0.19-0.45-0.29c-0.71,0.04-1.18,0.38-1.08,1.17c0.02,0.21,0.46,0.37,0.71,0.56
            C123.89,224.97,124.17,224.49,124.44,224.02z M146,192.17c0.13,0.04,0.25,0.07,0.38,0.11c0.28-0.75,0.58-1.5,0.82-2.26
            c0.05-0.15-0.14-0.38-0.22-0.57c-0.18,0.12-0.49,0.21-0.53,0.37C146.26,190.6,146.15,191.39,146,192.17z"/>
        <path class="st0" d="M85.29,61.25c-0.71,0.45-1.4,0.95-2.15,1.34c-1.36,0.71-2.84,1.2-3.69,2.68c-0.31,0.54-1.04,0.85-1.6,1.22
            c-6.13,4.08-12.16,8.25-16.1,14.73c-1.28,2.1-2.5,2.13-4.22,0.33c-1.12-1.17-1.54-2.63-1.55-4.17c-0.02-7.13-1.23-14.11-2.6-21.07
            c-0.33-1.68-0.55-3.39-0.78-5.09c-0.19-1.39,0.78-2.15,2.08-1.63c0.85,0.34,1.63,0.87,2.5,1.15c1.39,0.44,2.83,0.75,4.25,1.1
            c0.5,0.12,1.07,0.07,1.52,0.28c3.48,1.66,7.55,1.62,10.78,4.21c1.69,1.35,4.17,1.71,6.29,2.51c1.74,0.66,3.48,1.31,5.21,1.96
            C85.25,60.95,85.27,61.1,85.29,61.25z"/>
        <path class="st0" d="M159.52,61.53c0.68-1.5,1.86-2.19,3.3-2.45c4.95-0.89,9.9-1.76,14.86-2.58c3.46-0.57,6.94-1.04,10.41-1.54
            c1.52-0.22,3.05-0.39,4.58-0.61c0.71-0.11,1.4-0.31,2.1-0.44c0.79-0.14,1.09,0.23,0.8,0.95c-0.56,1.39-1,2.76-0.52,4.29
            c0.08,0.25-0.45,0.75-0.76,1.06c-0.59,0.58-1.35,1.03-1.82,1.69c-1.75,2.45-3.14,5.08-4.06,7.97c-0.7,2.2-1.74,4.3-2.39,6.51
            c-0.58,1.97-0.83,4.04-1.22,6.07c-0.05,0.27-0.04,0.56-0.08,0.84c-0.23,1.61-0.64,1.79-1.99,0.87c-0.07-0.04-0.13-0.1-0.2-0.14
            c-3.23-1.82-5.6-4.4-7.18-7.78c-1.39-2.96-3.42-5.36-6.2-7.26C165.82,66.73,162.76,64.07,159.52,61.53z"/>
        <path class="st0" d="M72.39,181.16c-2.34,0.1-4.58,0.59-6.68,1.69c-0.53,0.28-1.07,0.59-1.64,0.72
            c-3.95,0.87-7.92,1.64-11.86,2.56c-2.05,0.48-4.05,1.16-6.05,1.81c-0.83,0.27-1.6,0.74-2.44,0.99c-0.55,0.16-1.37,0.32-1.72,0.04
            c-0.78-0.61-1.43-1.52-0.89-2.62c0.8-1.64,1.58-3.33,2.6-4.84c1.6-2.36,2.9-4.8,3.94-7.48c2.38-6.13,5.04-12.15,7.58-18.21
            c0.35-0.83,0.95-0.94,1.45-0.31c0.64,0.79,1.33,1.67,1.57,2.62c0.74,2.98,2.04,5.59,4.13,7.85c0.97,1.05,1.74,2.29,2.57,3.46
            c1.01,1.42,2.2,2.59,3.78,3.41c0.68,0.35,1.26,1.11,1.64,1.81c0.97,1.79,2.16,3.34,3.81,4.55c0.37,0.27,0.54,0.8,0.8,1.21
            c-0.47,0.25-0.91,0.57-1.41,0.73C73.22,181.26,72.79,181.16,72.39,181.16z"/>
        <path class="st0" d="M198.22,182.51c-1.81,0.21-3.13,0.55-4.33-0.51c-0.7-0.62-1.14,0.13-1.48,0.64
            c-0.42,0.63-0.81,0.62-1.49,0.32c-3.91-1.72-7.89-3.12-12.21-1.42c-1.86,0.74-3.72,0.8-5.73,0.45c-1.53-0.27-3.17,0.16-4.76,0.16
            c-0.55,0-1.4-0.22-1.59-0.61c-0.24-0.49-0.17-1.38,0.14-1.84c0.58-0.88,1.42-1.6,2.18-2.35c1.56-1.54,3.32-2.91,4.67-4.61
            c4.87-6.13,9.6-12.36,14.4-18.54c0.36-0.47,0.87-0.83,1.37-1.3C191.71,163.07,194.18,172.94,198.22,182.51z"/>
        <path class="st0" d="M105.6,151.66c-1.63,0.39-3.01-0.1-4.43-1.07c-1.19-0.81-2.68-1.2-4.04-1.75c-0.44-0.18-0.92-0.28-1.37-0.42
            c-4.51-1.4-5.18-2.07-6.63-6.58c-0.39-1.2-0.24-2.3,0.73-3.18c2.64-2.41,5.59-4.23,9.24-4.61c0.36-0.04,0.79,0.11,1.11,0.3
            c3.41,1.95,7.28,3.07,10.3,5.73c0.47,0.42,1.22,0.56,1.87,0.72c3.21,0.82,4.45,4.19,2.47,6.85c-1.84,2.48-4.25,3.94-7.41,4.01
            C106.84,151.67,106.24,151.66,105.6,151.66z M96.15,146.18c-0.05-1.89-1-3.34-2.15-3.57c-0.41-0.08-0.89,0.15-1.33,0.24
            c0.11,0.4,0.1,0.96,0.37,1.17C93.94,144.75,94.94,145.36,96.15,146.18z"/>
        <path class="st0" d="M151.91,140.52c-0.01,2.79-2.37,6.37-4.63,7.32c-2.65,1.12-5.26,2.33-7.95,3.3c-2.56,0.92-4.99,0.3-7.19-1.25
            c-0.16-0.11-0.29-0.32-0.46-0.37c-2.24-0.6-2.65-2.6-3.28-4.38c-0.16-0.47,0.01-1.23,0.31-1.66c0.92-1.31,2.15-2.21,3.81-2.47
            c0.73-0.12,1.45-0.41,2.14-0.71c3.86-1.7,7.72-3.43,11.56-5.16c1.01-0.46,1.87-0.19,2.65,0.47
            C150.52,137,151.69,138.65,151.91,140.52z"/>
        <path class="st0" d="M127.52,159.42c0.54,2.43-1.4,3.63-2.58,5.15c-0.16,0.21-0.82,0.17-1.2,0.07c-1.16-0.3-2.27-0.76-3.44-1.01
            c-0.87-0.19-1.8-0.24-2.7-0.18c-1.68,0.11-2.35-0.46-2.17-2.12c0.29-2.65,0.52-5.32,0.99-7.95c0.34-1.89,1.52-3.4,3.37-4.04
            c1.87-0.65,3.77-0.24,5.04,1.26c0.91,1.08,1.57,2.49,1.96,3.86C127.26,156.06,127.3,157.77,127.52,159.42z"/>
        <path class="st0" d="M146.6,168.91c0.6-0.73,1.07-1.3,1.56-1.89C148.65,168.11,148.24,168.67,146.6,168.91z"/>
    </g>
</g>
</svg>
