<!-- Generator: Adobe Illustrator 23.0.4, SVG Export Plug-In  -->
<svg version="1.1" xmlns="http://www.w3.org/2000/svg" xmlns:xlink="http://www.w3.org/1999/xlink" x="0px" y="0px"
     width="205.84px" height="228.78px" viewBox="0 0 205.84 228.78" style="enable-background:new 0 0 205.84 228.78;"
     xml:space="preserve">
<defs>
</defs>
<g id="M8qEPE_2_">
    <g>
        <path fill="#fff" d="M36.51,228.78c-0.7-0.7-1.42-1.38-2.09-2.11c-0.99-1.08-1.94-2.21-2.94-3.36c3.1-3.39,6.1-7.1,9.54-10.35
            c10-9.44,20.16-18.71,30.31-28c0.79-0.72,1.87-1.29,2.9-1.55c6.97-1.74,13.53-4.57,20.02-7.58c2.25-1.05,4.57-1.97,7.15-1.55
            c0.2,0.03,0.42,0.02,0.59,0.1c3.64,1.68,7.65,1.45,11.46,2.3c2.49,0.56,5,1.06,7.48,1.68c0.7,0.17,1.43,0.57,1.93,1.08
            c12.81,13.03,25.6,26.09,38.37,39.16c0.63,0.65,1.18,1.41,1.61,2.21c0.46,0.86,0.02,1.61-0.94,1.52
            c-1.74-0.16-3.55-0.26-5.17-0.83c-8.09-2.84-15.97-6.32-24.41-8.07c-5.79-1.2-11.61-2.21-17.4-3.38c-2.93-0.59-5.8-1.58-8.75-1.98
            c-3.94-0.53-7.81-0.44-11.82,0.7c-9.71,2.76-19.56,5.04-29.68,5.88c-1.51,0.12-3.04,0.25-4.52,0.54
            c-0.95,0.18-1.93,0.53-2.75,1.04c-5.71,3.53-11.36,7.13-17.06,10.68c-1.14,0.71-2.39,1.26-3.59,1.88
            C36.67,228.78,36.59,228.78,36.51,228.78z"/>
        <path fill="#fff" d="M162.86,118.65c-0.23-2.41-0.45-4.67-0.67-6.92c-0.69-7.12-1.43-14.24-2.07-21.36c-1-11.2-2.99-22.22-5.8-33.11
            c-0.92-3.56-0.97-7.34-1.39-11.03c-0.13-1.11,0-2.29-0.32-3.33c-0.41-1.3-1.08-2.53-1.79-3.7c-0.53-0.88-1.38-1.56-1.96-2.41
            c-3.24-4.75-6.38-9.57-9.69-14.27c-3.17-4.51-6.44-8.95-9.79-13.33c-1.49-1.96-3.51-3.49-4.57-5.81c-0.57-1.25-0.49-1.86,0.75-3
            c0.83-0.76,1.51-0.21,2.11,0.28c2.31,1.9,4.55,3.89,6.89,5.76c1.04,0.84,2.16,1.72,3.39,2.17c2.37,0.87,4.43,2.15,6.37,3.74
            c3.21,2.64,6.62,5.04,9.68,7.84c4.89,4.48,9.6,9.16,14.32,13.82c2.79,2.75,5.54,5.54,8.14,8.47c2.59,2.92,5.15,5.92,7.36,9.13
            c0.98,1.42,1.18,3.44,1.56,5.22c1.03,4.88,1.97,9.78,2.94,14.68c0.44,2.19,0.7,4.44,1.34,6.57c1.21,4.04,2.51,8.07,4.02,12.01
            c1.07,2.78,2.81,5.31,3.82,8.11c2.31,6.39,3.75,12.96,4.47,19.78c1.02,9.65,0.75,19.33,1.35,28.98c0.24,3.87,0.61,7.73,0.77,11.61
            c0.09,2.39-0.12,4.78-0.19,7.18c-0.03,0.98-0.59,1.45-1.52,1.49c-0.64,0.03-1.29-0.05-1.92,0.03c-0.82,0.1-1.83,0.05-2.41,0.5
            c-2.14,1.69-4.41,1.11-6.61,0.51c-3.26-0.89-6.48-1.96-9.68-3.07c-3.5-1.22-7.01-2.46-10.41-3.94c-1.68-0.74-3.11-2.05-4.66-3.1
            c-1.29-0.86-2.55-1.78-3.89-2.55c-2.15-1.23-4.36-2.34-6.54-3.51c-1.12-0.6-1.56-1.44-1.29-2.76c1.06-5.12,2.3-10.22,2.99-15.4
            c0.55-4.09,0.5-8.28,0.49-12.42c0-2.53,0.7-3.37,3.27-3C161.98,118.53,162.25,118.57,162.86,118.65z"/>
        <path fill="#fff" d="M7.09,185.2c0.23-4.98,0.29-9.97,0.74-14.92c0.61-6.76,1.45-13.51,2.3-20.24c0.55-4.36,1.25-8.7,1.92-13.04
            c0.88-5.68,1.47-11.43,2.75-17.02c2.59-11.24,5.52-22.4,8.39-33.57c3.24-12.65,6.88-25.17,11.46-37.42
            c3.32-8.9,7.58-17.33,11.85-25.78c0.63-1.25,1.3-2.48,2-3.69c0.67-1.16,1.33-1.3,2.61-0.66c1.51,0.76,1.68,1.26,1.31,2.58
            c-0.23,0.81-0.46,1.83-0.18,2.56c1.61,4.34,1.17,8.8,0.71,13.18c-1.33,12.85-1.34,25.71-0.71,38.58c0.1,2.08-0.49,3.96-1.7,5.62
            c-0.99,1.36-1.22,2.79-0.88,4.42c0.68,3.24,1.31,6.49,1.87,9.75c0.19,1.09,0.23,2.24,0.11,3.35c-0.47,4.42,0.32,8.78,0.6,13.16
            c0.13,1.95,0.21,3.91,0.32,5.86c0.3,5.23,0.62,10.45,0.89,15.68c0.4,7.78,1.27,15.54,1.01,23.36c-0.08,2.34-0.89,4.01-2.89,5.11
            c-2.45,1.35-4.83,2.87-7.4,3.94c-7.95,3.32-15.34,7.71-22.9,11.77c-4.08,2.19-8.11,4.49-12.16,6.74
            c-0.52,0.29-1.05,0.55-1.58,0.83C7.37,185.29,7.23,185.25,7.09,185.2z"/>
        <path fill="#fff" d="M98.9,141.05c2.28,0.36,4.49,0.63,6.66,1.07c1.97,0.4,1.9,0.49,2.24,2.44c0.19,1.09,0.62,2.13,0.96,3.24
            c1.27-0.32,1.24-1.34,1.32-2.2c0.27-2.86,2.43-4.27,5.19-3.32c1.15,0.39,1.92,1.16,2.16,2.36c0.19,0.96,0.79,1.3,1.66,1.6
            c5.66,1.93,11.3,3.92,16.95,5.9c0.29,0.1,0.57,0.26,0.84,0.63c-0.96,0.11-1.93,0.17-2.87,0.35c-2.59,0.48-5.19,0.92-7.74,1.58
            c-1.27,0.33-2.24,0.19-3.17-0.69c-0.66-0.63-1.34-1.15-2.32-0.46c-0.22,0.16-0.75-0.03-1.1-0.16c-3.78-1.51-7.56-3.04-11.33-4.56
            c-0.29-0.12-0.58-0.22-1.05-0.12c5.73,5.61,11.45,11.23,17.18,16.84c-0.03,0.08-0.06,0.16-0.09,0.24
            c-0.85-0.23-1.68-0.49-2.54-0.67c-2.53-0.53-5.08-0.98-7.6-1.56c-1.09-0.25-2.26-0.57-3.16-1.19c-2.15-1.46-4.13-3.16-6.25-4.66
            c-0.51-0.36-1.31-0.51-1.94-0.44c-1.02,0.11-1.44-0.49-1.9-1.16c-0.45-0.66-0.56-1.32-0.01-1.98c0.58-0.71,1.21-1.39,1.72-2.15
            c0.21-0.31,0.17-0.79,0.24-1.19c-0.14-0.06-0.28-0.11-0.41-0.17c-0.26,0.3-0.57,0.58-0.77,0.92c-0.7,1.18-1.7,1.75-3.09,1.64
            c-0.38-0.03-0.86-0.05-1.15,0.15c-1.22,0.81-2.49,0.74-3.8,0.4c-0.93-0.24-1.84-0.57-2.77-0.75c-1.52-0.3-2.48-1.14-2.99-2.61
            c-0.43-1.24-0.75-1.3-1.97-0.67c-1.7,0.88-3.37,1.85-5.12,2.61c-3.36,1.46-6.77,2.8-10.16,4.2c-1.18,0.49-2.39,0.92-3.52,1.5
            c-2,1.03-4.08,1.33-6.28,0.93c-1.46-0.26-1.9-0.85-1.62-2.33c2.3-12.3,6.4-23.97,12.18-35.06c0.85-1.62,1.58-3.32,2.24-5.02
            c3.54-9.07,7.04-18.15,10.55-27.23c0.37-0.96,0.91-1.66,1.88-2.19c0.78-0.43,1.3-1.37,1.9-2.11c0.8-1.01,1.62-1.29,2.58-0.77
            c0.99,0.54,0.9,1.37,0.63,2.29c-0.15,0.53-0.23,1.1-0.23,1.65c0.06,8.31,0.06,16.63,0.23,24.94c0.1,4.95,0.46,9.9,0.76,14.85
            c0.09,1.49-0.2,2.81-0.93,4.12c-1.07,1.92-2.02,3.9-2.94,5.89c-0.89,1.94-0.76,2.15,1.05,3.23c0.58,0.35,1.1,0.8,1.66,1.45
            c-1.97,0.62-3.8,1.26-4.39,3.37c-0.13,0.46-0.02,0.99-0.02,1.48c0.11,0.05,0.23,0.1,0.34,0.14c0.31-0.31,0.69-0.58,0.91-0.94
            c1.12-1.88,2.61-2.78,4.67-2.29c1.74,0.41,2.84-0.16,3.8-1.48c0.44-0.61,0.96-1.17,1.48-1.81c-0.25-0.32-0.6-0.57-0.64-0.87
            c-0.09-0.57-0.23-1.34,0.06-1.72c2.53-3.3,8.35-3.35,10.94-0.16c0.18,0.22,0.35,0.45,0.46,0.7c0.35,0.83,0.07,1.17-0.84,1.07
            c-1.95-0.21-3.89-0.42-5.84-0.61C100.52,139.41,99.58,139.94,98.9,141.05z M123.95,148.73c-0.03-0.16-0.07-0.32-0.1-0.48
            c-0.56-0.09-1.13-0.3-1.68-0.25c-2.54,0.24-5.07,0.52-7.6,0.87c-0.38,0.05-0.69,0.57-1.03,0.87c0.38,0.3,0.81,0.89,1.12,0.84
            c2.7-0.49,5.54-0.09,8.15-1.17C123.21,149.25,123.57,148.96,123.95,148.73z M105.52,156.33c0,0.16,0.01,0.32,0.01,0.48
            c3.67,0.98,7.33,1.96,11,2.95c0.06-0.09,0.12-0.19,0.19-0.28c-0.66-0.4-1.27-0.97-1.98-1.18c-2.56-0.77-5.15-1.45-7.74-2.1
            C106.54,156.08,106.01,156.28,105.52,156.33z"/>
        <path fill="#fff" d="M113.38,122.52c0.61-8.65-0.44-17.25-0.71-25.87c-0.06-1.95,0.07-3.91,0.07-5.86c0-1.32-0.04-2.64-0.15-3.95
            c-0.27-3.09-0.64-6.15-1.22-9.22c-0.6-3.23-1.86-5.96-3.62-8.61c-0.38-0.57-0.65-1.72-0.34-2.14c0.57-0.77,1.57-1.26,2.46-1.74
            c0.2-0.11,0.78,0.21,1,0.49c1.47,1.88,2.88,3.81,4.31,5.72c0.36,0.48,0.6,1.09,1.05,1.44c2.15,1.64,3.56,3.88,4.99,6.08
            c3.1,4.75,6.46,9.36,9.1,14.35c2.17,4.09,3.44,8.65,5.14,13c1.59,4.08,3.25,8.14,4.81,12.24c1.88,4.92,3.75,9.84,5.53,14.79
            c1.14,3.19,2.16,6.42,3.1,9.67c0.46,1.6,0.62,3.29,0.94,4.94c0.17,0.88-0.19,1.49-0.93,1.88c-1.45,0.76-2.87,1.6-4.38,2.17
            c-0.71,0.27-1.72,0.23-2.42-0.07c-7.2-3.05-14.44-6.04-21.48-9.41c-1.71-0.82-3.01-2.16-5.16-1.85c-1.04,0.15-1.71-0.92-1.83-1.91
            c-0.31-2.61-0.65-5.24-0.69-7.86C112.92,128.03,113.23,125.27,113.38,122.52z"/>
        <path fill="#fff" d="M188.35,220.33c-0.72-0.53-1.46-0.93-2.02-1.5c-4.72-4.84-9.45-9.67-14.09-14.59c-7.61-8.05-15.09-16.23-22.77-24.21
            c-2.54-2.63-5.53-4.83-8.35-7.19c-4.66-3.91-9.35-7.77-14-11.68c-1.16-0.97-1.2-1.8-0.2-2.22c0.28-0.12,0.7-0.1,0.98,0.03
            c6.08,2.75,12.12,5.59,17.69,9.3c0.73,0.49,1.26,1.31,1.79,2.05c0.71,0.98,1.34,1.85,2.76,2.01c1.05,0.11,2.12,0.72,3.05,1.31
            c6.78,4.34,13.91,8,21.23,11.32c2.73,1.24,5.17,3.14,7.72,4.77c1.31,0.83,2.61,1.7,3.89,2.58c2.63,1.81,5.26,3.63,7.88,5.46
            c0.61,0.42,0.74,0.91,0.42,1.65c-0.75,1.71-1.29,3.51-2.74,4.85c-0.84,0.78-0.46,1.7,0.17,2.47c0.6,0.73,1.17,1.42,0.53,2.45
            c-0.16,0.25-0.02,0.7,0.01,1.06c0.03,0.32,0.17,0.65,0.12,0.95c-0.48,2.85-0.89,5.74-2.71,8.14
            C189.43,219.7,188.93,219.92,188.35,220.33z"/>
        <path fill="#fff" d="M44.16,204.54c0.05-0.37,0.06-0.74,0.14-1.1c0.5-2.14,1.04-4.27,1.53-6.41c0.13-0.57,0.09-1.19,0.13-1.78
            c-0.14-0.04-0.27-0.09-0.41-0.13c-0.23,0.32-0.56,0.61-0.66,0.97c-0.88,3.11-1.68,6.23-2.58,9.33c-0.24,0.82-0.56,1.71-1.12,2.31
            c-1.61,1.72-3.35,3.32-5.06,4.94c-0.26,0.25-0.64,0.39-1.06,0.63c-0.08-3.19,1.08-6.06,1.16-9.03c-0.18-0.04-0.35-0.08-0.53-0.11
            c-0.18,0.45-0.45,0.88-0.53,1.35c-0.45,2.6-0.89,5.2-1.27,7.81c-0.18,1.24-0.61,2.28-1.56,3.13c-1.17,1.05-2.27,2.17-3.41,3.27
            c-0.11-0.05-0.22-0.11-0.33-0.16c0.15-1.28,0.33-2.56,0.46-3.84c0.13-1.28,0.22-2.56,0.32-3.83c-0.16-0.04-0.31-0.08-0.47-0.12
            c-0.26,0.41-0.65,0.79-0.75,1.23c-0.39,1.74-0.88,3.5-0.99,5.27c-0.15,2.4-1.04,4.41-2.58,6.18c-1.39,1.59-2.95,1.9-4.33,0.94
            c-1.49-1.02-2.05-3.34-1.04-4.94c0.61-0.96,1.47-1.78,2.28-2.6c3.44-3.46,7.08-6.74,10.33-10.37
            c7.71-8.61,16.42-16.22,24.24-24.71c2.6-2.82,5.2-5.65,7.84-8.44c2.33-2.47,4.73-4.87,7.08-7.33c0.44-0.46,0.76-1.02,1.14-1.54
            c-0.08-0.09-0.15-0.18-0.23-0.27c-1.91,0.5-3.88,0.85-5.71,1.55c-1.8,0.68-3.47,1.72-5.53,2.77c0.46-2.12,1.37-3.84,2.35-5.5
            c1.08-1.84,5.06-3.53,8.98-3.93c-0.23,0.96-1.53,1.9-0.08,2.95c0.67-0.89,1.24-1.83,1.99-2.58c0.89-0.89,1.83-1.92,2.96-2.34
            c3.78-1.39,7.47-2.85,10.36-5.98c2.14,2.33,4.76,3.28,7.92,3.52c-2.15,1.91-4.29,3.83-6.54,5.83c-0.97-2.43-1.16-4.96-2.52-7.04
            c-0.13,0.02-0.26,0.04-0.39,0.06c0.04,0.67,0,1.36,0.14,2c0.35,1.6,0.88,3.16,1.14,4.77c0.11,0.65-0.05,1.59-0.47,2.05
            c-3.86,4.16-7.69,8.37-11.76,12.32c-9.16,8.88-18.46,17.62-27.69,26.43c-0.88,0.84-1.66,1.77-2.48,2.67
            C44.41,204.66,44.29,204.6,44.16,204.54z M76.66,161.98c-0.32,0.61-0.54,0.9-0.63,1.22c-0.63,2.44,0.43,4.51,1.6,6.5
            c0.16,0.28,0.9,0.22,1.37,0.32c0.08-0.42,0.31-0.88,0.21-1.25c-0.49-1.71-1.05-3.41-1.64-5.09
            C77.39,163.17,77.06,162.72,76.66,161.98z M58.41,189.97c0.21,0,0.42,0,0.63,0.01c0.8-3.33,1.6-6.67,1.85-10.14
            c-0.43,0.27-0.74,0.59-0.83,0.96c-0.64,2.64-1.26,5.28-1.83,7.94C58.15,189.12,58.34,189.56,58.41,189.97z M66.72,181.94
            c0.92-1.19,1.93-8.41,1.38-9.51C67.16,173.46,66.05,180.77,66.72,181.94z M52.34,189.79c-0.88,2.31-1.25,4.67-0.89,7.11
            C52.38,194.6,52.75,192.24,52.34,189.79z"/>
        <path fill="#fff" d="M57.24,176.87c-2.06,1.81-4.01,3.66-6.1,5.33c-5.07,4.06-9.79,8.5-13.97,13.45c-3.76,4.45-8.11,8.26-12.32,12.25
            c-3.57,3.38-7.05,6.86-10.52,10.34c-0.43,0.43-0.59,1.14-0.85,1.73c-0.15,0.32-0.16,0.76-0.39,0.98c-1.48,1.38-3,2.72-4.32,3.89
            c0.47-5.18-0.09-10.86,1.81-16.29c0.78-2.22,0.74-4.37-0.75-6.38c-0.66-0.88,0.38-2.3,1.73-2.67c0.83-0.22,1.71-0.51,2.38-1.01
            c7.83-5.84,16.23-10.78,24.7-15.61c4.62-2.64,9.37-4.99,14.27-7.05C54.66,175.09,55.72,175.32,57.24,176.87z"/>
        <path fill="#fff" d="M178.58,177.64c1.84-0.23,3.67-0.48,5.51-0.69c3.06-0.35,6.12-0.63,9.17-1.04c0.69-0.09,1.33-0.62,1.99-0.94
            c-0.05-0.17-0.1-0.34-0.14-0.52c-0.56-0.05-1.14-0.21-1.68-0.15c-5.39,0.66-10.78,1.38-16.18,2c-0.95,0.11-2.01,0.03-2.91-0.28
            c-2.18-0.76-4.31-1.7-6.45-2.59c-0.35-0.14-0.66-0.37-0.97-0.85c2.62-0.61,5.24-1.26,7.87-1.83c1.91-0.42,3.85-0.69,5.77-1.1
            c1.73-0.37,3.43-0.31,5.07,0.34c5.86,2.32,11.75,4.59,17.55,7.05c3.07,1.3,3.54,5.08,1.16,7.42c-1.82,1.79-3.77,2.39-6.18,1.17
            c-1.44-0.73-2.99-1.24-4.73-1.94c3-1.35,6.44-0.4,8.88-2.5c-0.03-0.17-0.06-0.34-0.1-0.51c-0.5-0.03-1.01-0.16-1.49-0.09
            c-2.72,0.45-5.42,1.06-8.15,1.39c-1.55,0.19-3.26,0.28-4.72-0.18c-2.93-0.91-5.73-2.21-8.58-3.36c-0.25-0.1-0.47-0.28-0.71-0.43
            C178.58,177.9,178.58,177.77,178.58,177.64z"/>
        <path fill="#fff" d="M17.48,183.71c-0.97,3.03-2.51,5.52-3.24,8.29c0.17,0.1,0.33,0.2,0.5,0.29c0.34-0.36,0.79-0.67,0.99-1.09
            c1.05-2.19,2.1-4.39,3.04-6.63c0.59-1.4,1.43-2.44,2.84-3.07c4.71-2.07,9.39-4.18,14.09-6.27c0.93-0.41,1.87-0.8,3.15-1.35
            c-0.27,0.62-0.37,0.93-0.53,1.2c-0.68,1.22-1.38,2.43-2.06,3.64c-0.46,0.82-0.63,1.58,0.59,2.08c-0.26,0.19-0.4,0.31-0.55,0.39
            c-8.63,4.69-17.24,9.39-25.89,14.04c-1.86,1-3.81,1.84-5.78,2.6c-0.61,0.24-1.51,0.15-2.13-0.12c-0.78-0.34-1.46-0.97-2.09-1.58
            c-1.02-0.99-0.08-3.29,1.58-4.1c1.76-0.85,3.5-1.74,5.21-2.68c1.72-0.94,3.37-1.98,5.08-2.93
            C13.93,185.53,15.6,184.7,17.48,183.71z"/>
        <path fill="#fff" d="M140.76,161.17c2.84-0.57,5.69-1.13,8.53-1.7c0.23-0.05,0.5-0.01,0.71-0.1c2.97-1.27,5.69-0.38,8.54,0.69
            c5.48,2.07,11.07,3.87,16.59,5.82c1.65,0.58,3.24,1.32,5.02,2.05c-0.28,0.17-0.39,0.28-0.51,0.3c-4.86,1.07-9.72,2.16-14.6,3.15
            c-0.76,0.15-1.68-0.04-2.41-0.35c-4.99-2.11-9.95-4.31-14.92-6.46c-2.3-0.99-4.61-1.93-6.92-2.9
            C140.78,161.51,140.77,161.34,140.76,161.17z"/>
        <path fill="#fff" d="M159.62,208.55c0.68,0.15,1.38,0.25,2.05,0.46c3.24,1.01,6.46,2.07,9.7,3.05c2.58,0.78,3.79,3.04,5.4,5.01
            c-2.13-0.46-4.25-0.93-6.54-1.43c0.34,1.28,1.16,1.76,2.05,2.08c1.46,0.53,2.98,0.92,4.43,1.47c1.41,0.54,2.82,1.12,4.14,1.85
            c1.47,0.82,2.46,2.1,2.88,3.8c0.26,1.05,0.1,1.91-0.77,2.56c-0.89,0.68-1.9,1.2-2.98,0.53c-1.82-1.14-3.76-2.19-5.32-3.63
            c-4.99-4.6-10.22-8.96-14.34-14.43c-0.28-0.37-0.56-0.72-0.84-1.09C159.52,208.71,159.57,208.63,159.62,208.55z"/>
        <path fill="#fff" d="M50.73,168.2c3.54-1.5,7.07-3,10.75-4.56c-0.93,2.2-1.75,4.26-2.68,6.26c-0.21,0.45-0.75,0.9-1.23,1.05
            c-6.82,2.14-12.94,5.79-19.27,8.98c-0.14,0.07-0.29,0.12-0.72,0.3c0.41-0.91,0.71-1.6,1.04-2.29c2.53-5.35,2.53-5.37,7.85-7.9
            c1.4-0.67,2.85-1.24,4.27-1.85c-0.63,1.46-1.26,2.91-1.89,4.37c0.12,0.09,0.24,0.17,0.36,0.26c0.28-0.21,0.63-0.36,0.82-0.63
            c0.43-0.62,0.76-1.31,1.15-1.96C51.69,169.38,51.51,168.73,50.73,168.2z"/>
        <path fill="#fff" d="M137.6,186.83c2.49,0.78,4.99,1.57,7.48,2.35c7.42,2.34,7.41,2.34,12.85,7.86c1.18,1.19,2.39,2.36,3.58,3.54
            c0.26,0.26,0.5,0.55,0.95,1.05c-0.53-0.07-0.76-0.06-0.96-0.13c-3.94-1.29-7.92-2.48-11.79-3.94c-1.63-0.62-3.21-1.63-4.52-2.8
            c-2.5-2.23-4.79-4.69-7.17-7.06c-0.21-0.21-0.36-0.46-0.54-0.69C137.51,186.95,137.55,186.89,137.6,186.83z"/>
        <path fill="#fff" d="M127.77,175.79c4.6,1.74,9.06,3.42,13.5,5.14c0.51,0.2,0.98,0.56,1.38,0.93c2.26,2.13,4.5,4.29,6.95,6.64
            c-2.88-0.87-5.48-1.74-8.12-2.43c-1.79-0.46-3.66-0.64-5.48-1.01c-0.47-0.1-0.97-0.34-1.32-0.67
            C132.02,181.93,129.62,179.25,127.77,175.79z"/>
        <path fill="#fff" d="M127.82,155.73c1.8-0.27,3.59-0.58,5.4-0.81c2.37-0.31,4.75-0.57,7.13-0.83c0.31-0.04,0.66-0.08,0.94,0.01
            c2.82,0.96,5.63,1.94,8.8,3.04c-0.6,0.19-0.83,0.27-1.07,0.33c-3.48,0.8-6.96,1.62-10.46,2.38c-0.71,0.15-1.56,0.27-2.2,0.02
            c-2.64-1-5.23-2.15-7.83-3.26c-0.27-0.12-0.49-0.37-0.73-0.56C127.81,155.95,127.81,155.84,127.82,155.73z"/>
        <path fill="#fff" d="M115.43,165.26c8.27,1.4,15.31,4.83,20.81,11.27c-0.43-0.13-0.85-0.26-1.28-0.38c-3.18-0.9-6.37-1.76-9.54-2.71
            c-0.9-0.27-1.83-0.68-2.53-1.28c-2.46-2.1-4.84-4.31-7.24-6.48C115.58,165.6,115.55,165.47,115.43,165.26z"/>
        <path fill="#fff" d="M150.26,199.2c1.51,0.48,2.87,0.9,4.23,1.33c2.4,0.76,4.8,1.48,7.18,2.29c0.89,0.3,1.85,0.66,2.55,1.26
            c1.78,1.53,3.43,3.2,5.34,5.01c-0.49-0.08-0.73-0.1-0.95-0.16c-2.38-0.68-4.74-1.42-7.13-2.04c-0.87-0.23-1.81-0.16-2.71-0.31
            c-0.63-0.1-1.43-0.15-1.83-0.55C154.71,203.87,152.59,201.6,150.26,199.2z"/>
    </g>
</g>
</svg>
