<!-- Generator: Adobe Illustrator 25.0.1, SVG Export Plug-In  -->
<svg version="1.1" xmlns="http://www.w3.org/2000/svg" xmlns:xlink="http://www.w3.org/1999/xlink" x="0px" y="0px" width="287.43px" height="209.85px" viewBox="0 0 287.43 209.85" style="overflow:visible;enable-background:new 0 0 287.43 209.85;" xml:space="preserve">
<defs>
</defs>
<g id="gptGUm.tif_1_">
	<g>
		<path fill="#FFF" d="M102.63,181.93c-1.25,1.02-2.38,2.17-3.7,3c-5.41,3.39-10.82,6.77-16.33,9.99c-8.32,4.86-16.71,9.59-25.47,14.6    c-0.78-1.84-1.93-3.89-2.52-6.09c-0.78-2.9-2.5-3.73-5.02-2.67c-6.3,2.64-12.51,5.5-18.79,8.21c-1.39,0.6-2.91,0.93-4.62,0.89    c8.4-11.88,18.67-21.72,29.32-32.02c1.25,2.58,2.35,4.62,3.24,6.75c1.25,2.97,3.3,4.16,5.78,2.21c4.6-3.62,8.83-7.73,12.96-11.87    c0.72-0.73,0.57-2.73,0.25-4c-0.55-2.16-1.7-4.15-2.34-6.3c-0.89-2.99-1.71-6.03-2.22-9.1c-0.42-2.49-1.83-3.4-4.07-3.62    c-14.62-1.41-29.24-2.75-43.85-4.26c-7.29-0.76-14.56-1.78-21.81-2.85c-1.21-0.18-2.29-1.25-3.43-1.92    c0.06-0.34,0.13-0.67,0.19-1.01c5.3-0.92,10.57-2.1,15.91-2.72c13.76-1.58,27.55-2.85,41.31-4.4c3.88-0.44,7.67-1.61,11.54-2.11    c3.03-0.39,4.63-2.08,5.52-4.73c0.72-2.12,1.54-4.24,1.94-6.43c0.19-1.02-0.18-2.5-0.86-3.26c-3.24-3.59-6.56-7.11-10.07-10.43    c-2.51-2.36-3.94-1.78-4.99,1.57c-1.33,4.22-2.86,4.63-6.08,1.71c-11.6-10.51-23.23-21-34.66-32.24c2.32,0.94,4.7,1.75,6.95,2.83    c7.43,3.56,14.78,7.28,22.23,10.79c3.32,1.57,5.37,0.31,6.21-3.29c0.38-1.63,0.97-3.21,1.74-5.69    c9.01,5.24,17.39,9.98,25.62,14.96c3.01,1.82,5.24,2.06,7.63-0.97c1.96-2.49,4.61-4.44,6.61-6.9c0.85-1.05,1.44-2.99,1.09-4.23    c-1.87-6.58-3.97-13.1-6.26-19.55c-0.39-1.1-2.06-2.38-3.19-2.42c-1.65-0.06-3.47,0.66-4.97,1.51c-3.67,2.07-4.68,1.57-5.8-2.62    c-2.61-9.81-5.42-19.57-8.1-29.37c-0.4-1.45-0.52-2.98-0.76-4.48c0.36-0.22,0.72-0.43,1.08-0.65c2.36,3.17,4.79,6.29,7.07,9.51    c2.16,3.06,4.11,6.28,6.26,9.35c2.25,3.22,5.11,1.22,7.27,0.17c3.03-1.47,4.4-0.97,5.67,2.09c0.94,2.24,2.76,4.1,4.08,6.2    c3.75,5.98,7.31,12.08,11.2,17.96c3.08,4.64,4.02,4.76,9.26,2.94c0.78-0.27,1.62-0.34,2.44-0.51c6.1-1.32,7.03-2.91,7.87-9.01    c1.72-12.55,3.75-25.07,5.96-37.54c1.63-9.19,3.73-18.29,5.64-27.42c0.17-0.79,0.44-1.56,1.47-2.48c0.79,3.3,1.69,6.58,2.35,9.9    c2.39,12.04,4.71,24.09,7.05,36.14c0.86,4.42,1.59,8.86,2.55,13.26c0.88,4.03,1.57,8.2,3.19,11.94c0.91,2.09,3.28,4.26,5.46,4.96    c7.57,2.44,7.58,2.17,11.47-4.98c4.38-8.05,8.87-16.04,13.37-24.02c1.11-1.98,2.45-1.24,3.7-0.04c1.61,1.55,3.24,3.08,4.84,4.64    c2.13,2.08,3.93,1.77,5.5-0.69c4.56-7.16,9.07-14.35,13.73-21.44c1.33-2.03,3.1-3.77,4.67-5.64c0.38,0.23,0.77,0.46,1.15,0.69    c-5.31,16.52-10.61,33.03-16.23,50.52c-1.79-1.92-3.03-3.07-4.06-4.39c-2.28-2.92-5.09-2.88-6.65,0.48    c-2.09,4.49-4.03,9.07-5.54,13.77c-0.46,1.44,0.26,3.7,1.21,5.05c1.46,2.09,3.58,3.72,5.42,5.54c4,3.95,3.84,3.67,8.8,0.81    c8.56-4.94,17.34-9.49,26.62-14.52c1.08,2.93,2,5.18,2.76,7.49c1.11,3.35,2.89,4,5.88,2.45c5.65-2.92,11.39-5.65,17.12-8.41    c2.74-1.31,5.53-2.5,8.33-3.75c-0.67,3.59-21.28,24.04-32.17,31.96c-0.21-0.07-0.52-0.09-0.63-0.24    c-3.97-5.81-3.92-5.74-9.91-1.69c-2.53,1.71-5.34,3.02-8,4.54c-4.1,2.34-4.82,4.18-3.38,8.69c0.65,2.02,1.39,4.01,2.16,5.99    c1.42,3.66,4.71,4.5,8.04,4.95c13.73,1.83,27.5,3.31,41.19,5.4c7.8,1.19,15.45,3.31,23.44,5.64c-2.1,0.65-4.15,1.56-6.29,1.91    c-7.12,1.18-14.27,2.15-21.41,3.24c-9.91,1.51-19.87,2.82-29.72,4.68c-4.31,0.81-8.87,2.05-12.5,4.37    c-4.28,2.73-4.84,8.15-5.88,12.85c-0.18,0.79,1,2.1,1.83,2.85c3.41,3.09,6.93,6.07,10.42,9.07c1.92,1.65,3.44,1.05,4.67-0.9    c1.05-1.66,2.05-3.35,3.4-5.55c11.05,9.03,21.7,17.74,32.36,26.45c-0.2,0.41-0.4,0.81-0.61,1.22c-0.95-0.26-1.98-0.37-2.84-0.8    c-3.94-2-7.83-4.12-11.76-6.13c-1.04-0.53-2.25-0.74-3.3-1.26c-4.73-2.39-8.65-0.91-10.48,4.01c-2.15,5.79-3.15,5.88-8.74,2.69    c-6.25-3.56-12.95-6.33-19.18-9.91c-6.22-3.58-12.15-7.67-18.07-11.74c-0.63-0.43-0.81-2.42-0.39-3.29    c1.88-3.91,4.4-7.53,6.01-11.53c1.64-4.07,2.58-8.45,3.67-12.73c0.52-2.04,0.67-4.18,1-6.27c0.13-0.81,0.55-1.66,0.42-2.43    c-1.72-10.51-2.17-21.42-9.83-30.03c-3.66-4.11-6.66-8.9-10.72-12.54c-4.64-4.16-10.44-6.52-16.39-8.8    c-9.6-3.68-19.25-2.53-28.78-1.64c-13.83,1.29-25.27,7.69-33.67,19.11c-8.83,12.01-13.13,25.28-11.1,40.17    c1.43,10.44,5.32,19.99,12.02,28.27C101.87,180.67,102.09,181.09,102.63,181.93z M206.66,144.54c2.39,1.29,3.76,2.56,5.18,2.61    c0.86,0.03,2.66-1.99,2.5-2.76c-0.25-1.2-1.87-3.01-2.82-2.96C210.17,141.5,208.89,143.02,206.66,144.54z M81.52,143.67    c0.02-0.45,0.04-0.9,0.06-1.36c-1.14-0.69-2.32-1.98-3.42-1.91c-1.12,0.07-2.17,1.46-3.25,2.27c1.05,1.03,1.97,2.62,3.18,2.89    C79.04,145.78,80.36,144.36,81.52,143.67z M179.59,83.19c-1.29,1.73-2.85,3.13-2.6,3.62c0.62,1.22,1.94,2.35,3.23,2.81    c0.46,0.17,2.38-1.74,2.32-2.61C182.46,85.94,181.03,84.95,179.59,83.19z M107.64,88.76c-0.02,0.45-0.05,0.89-0.07,1.34    c1.21,0.84,2.44,2.33,3.63,2.31c1.01-0.02,1.98-1.81,2.97-2.81c-0.96-0.86-1.85-2.31-2.88-2.41    C110.14,87.06,108.86,88.18,107.64,88.76z M204.42,175.24c-2.06-1.29-3.15-2.52-4.08-2.41c-0.97,0.12-2.42,1.49-2.48,2.39    c-0.06,0.92,1.35,2.75,2.06,2.71C201.09,177.88,202.2,176.66,204.42,175.24z M88.41,183.74c1.46-2.03,2.99-3.24,2.84-4.19    c-0.17-1.1-1.83-1.97-2.84-2.94c-0.81,0.97-2.18,1.89-2.28,2.93C86.03,180.55,87.23,181.68,88.41,183.74z M201.76,107.37    c-1.4,1.8-2.81,2.82-2.79,3.82c0.02,0.91,1.5,2.29,2.52,2.49c0.71,0.14,2.43-1.33,2.47-2.14    C204.02,110.46,202.87,109.32,201.76,107.37z M89.94,110.69c-0.46,0.01-0.92,0.02-1.38,0.03c-0.63,1.05-1.88,2.23-1.71,3.13    c0.19,0.95,1.65,2.07,2.72,2.27c0.6,0.11,2.14-1.48,2.14-2.31C91.72,112.78,90.58,111.73,89.94,110.69z M148.32,79.63    c-1.76-0.94-2.82-1.97-3.59-1.79c-0.93,0.21-1.61,1.47-2.4,2.27c0.8,0.7,1.66,2.01,2.4,1.95    C145.73,81.97,146.65,80.83,148.32,79.63z"/>
		<path fill="#FFF" d="M179.12,118.58c-0.55,3.89-3.14,6.06-4.92,8.63c-1.93,2.79-4.23,5.33-6.04,8.19c-2.52,3.97-4.3,4.76-8.35,2.52    c-2.66-1.47-5.21-3.25-7.51-5.23c-4.4-3.79-9.25-6.01-15.17-5.7c-3.87,0.2-7.77,3.21-8.81,7c-1.66,6.05-0.6,10.19,3.54,12.51    c1.21,0.68,2.93,0.9,4.33,0.71c5.01-0.65,9.77-0.3,14.71,1.16c5.94,1.75,11.88,3.33,16.49,7.61c8.12,7.54,11.45,19.13,4.32,30.04    c-2.09,3.19-4.79,4.98-8.07,6.89c-6.47,3.77-13.14,3.04-19.92,2.95c-2.49-0.03-4.98-0.1-7.47,0c-3.45,0.14-6.59,0-9.58-2.42    c-2.75-2.23-6.42-3.3-9.29-5.42c-2.31-1.71-4.17-4.11-5.9-6.45c-0.49-0.65-0.26-2.66,0.37-3.19c3.5-2.93,7.25-5.56,10.85-8.38    c1.71-1.35,2.68-1.74,4.02,0.69c4.27,7.76,15.01,12.97,23.75,11.88c6.4-0.8,11.33-9.79,8-15.28c-4.13-6.8-10.45-11.05-18.35-11.89    c-5.65-0.6-11.64-1.34-16.62,3.12c-0.64,0.58-3.27-0.05-4.19-0.93c-11.83-11.37-11.59-23.63-1.22-37.14    c3.6-4.7,8.42-7.34,14.11-9.44c9.55-3.52,17.24-0.02,25.06,4.32c5.97,3.31,12.5,3.31,19.02,3.48    C176.95,118.81,177.65,118.69,179.12,118.58z"/>
	</g>
</g>
</svg>