<!-- Generator: Adobe Illustrator 23.0.4, SVG Export Plug-In  -->
<svg version="1.1" xmlns="http://www.w3.org/2000/svg" xmlns:xlink="http://www.w3.org/1999/xlink" x="0px" y="0px"
     width="219.47px" height="191.13px" viewBox="0 0 219.47 191.13" style="enable-background:new 0 0 219.47 191.13;"
     xml:space="preserve">
<defs>
</defs>
<g id="_x33_cgpy9_2_">
    <g>
        <path fill="#fff" d="M108.35,191.13c-4,0-8,0-12,0c-0.19-0.06-0.38-0.14-0.57-0.17c-4.5-0.7-9.1-1.01-13.47-2.18
            c-4.36-1.16-8.5-3.16-12.72-4.84c-0.61-0.24-1.12-0.76-1.68-1.14c-1.36-0.92-2.7-1.85-4.08-2.73c-3.84-2.45-7.75-4.8-11.51-7.36
            c-1.97-1.34-3.7-3.01-4.61-5.39c-0.43-1.11-0.21-1.79,0.48-2.68c5.36-6.93,12.23-12.1,19.36-17.02
            c5.7-3.93,11.74-7.28,17.85-10.52c4.19-2.22,8.55-3.92,13.16-5.02c1.6-0.38,2.64-1.31,2.9-2.96c0.19-1.18,0.37-2.38,0.39-3.57
            c0.19-8.83,0.43-17.66,0.47-26.49c0.02-6.04-0.26-12.07-0.39-18.11c-0.02-0.92-0.36-1.38-1.32-1.48
            c-1.15-0.11-2.29-0.34-3.43-0.54c-3.26-0.58-6.45-1.31-9.61-2.41c-6.44-2.24-13.09-3.9-18.4-8.56c-1.69-1.48-2.24-1.46-3.95,0.01
            c-3.75,3.24-7.39,6.61-11.13,9.86c-1.24,1.08-1.98,2.36-2.33,3.94c-0.96,4.28-2.38,8.43-2.69,12.87c-0.2,2.89-1.13,5.72-1.45,8.6
            c-0.55,4.92-0.61,9.89-2.28,14.64c-0.37,1.06-0.53,2.29-0.44,3.41c0.41,5.49,3.05,10.19,5.49,14.94c0.67,1.3,0.62,2.08-0.51,3.03
            c-0.56,0.47-0.96,1.13-1.54,1.56c-0.34,0.25-0.96,0.41-1.34,0.28c-0.49-0.17-0.92-0.62-1.3-1.02c-1.46-1.53-2.84-3.15-4.35-4.64
            c-5.68-5.58-8.61-12.7-10.06-20.19c-1.32-6.81-0.68-13.8,1.12-20.67c1.98-7.56,3.47-15.25,5.11-22.89c0.5-2.35,1.4-4.39,3.35-5.9
            c0.44-0.34,0.76-0.82,1.17-1.2c3.48-3.23,6.91-6.51,10.47-9.64c1.51-1.33,1.67-1.51,0.74-3.25c-1.62-3.06-3.2-6.15-4.77-9.23
            c-0.34-0.66-0.83-0.97-1.44-0.54c-2.42,1.69-5.1,3.15-7.12,5.24c-3.78,3.9-7.15,8.19-10.71,12.3c-1.72,1.99-3.05,4.16-3.78,6.73
            c-0.72,2.53-1.63,5.01-2.43,7.52c-1.72,5.36-3.74,10.64-5.05,16.1c-1.62,6.75-2.57,13.65-3.95,20.46
            c-0.95,4.68-0.85,9.36-0.46,14.07c0.39,4.69,2.04,9.01,3.71,13.34c1.21,3.12,2.46,6.23,3.68,9.35c0.78,1.99,1.61,3.98,2.28,6.01
            c0.15,0.44-0.08,1.31-0.43,1.57c-2.63,1.95-1.87,2.51-4.27,0.2c-0.69-0.66-1.49-1.22-2.15-1.92c-0.68-0.72-1.48-1.45-1.83-2.34
            c-0.98-2.49-2.76-4.35-4.45-6.33c-3.37-3.93-6.43-8.11-7.68-13.25c-0.59-2.44-0.92-4.95-1.21-7.45c-0.49-4.2-1.44-8.46-1.13-12.61
            c0.56-7.34,1.85-14.63,3-21.92c0.55-3.54,1.39-7.04,2.22-10.53c0.64-2.7,1.46-5.36,2.2-8.04c0.25-0.92,0.43-1.88,0.77-2.76
            c2.12-5.45,4.59-10.73,7.76-15.65c2.85-4.42,5.38-9.07,9.27-12.77c2.69-2.56,5.18-5.34,7.69-8.09
            c6.48-7.11,13.9-13.07,22.01-18.21c0.67-0.43,1.38-0.86,1.91-1.43c2.74-2.97,6.12-5.13,9.39-7.42c0.78-0.55,1.59-1.15,2.48-1.42
            c0.61-0.19,1.61-0.09,2.04,0.3c2.13,1.95,2.14,3.01,0.71,5.56c-2.12,3.76-4.1,7.57-5.38,11.74c-0.98,3.2-1.28,6.48-1.76,9.76
            c-0.52,3.51,0.04,6.71,1.85,9.66c2.93,4.76,5.92,9.49,9.02,14.15c1.86,2.79,4.28,5.08,7.34,6.57c2.01,0.98,4.01,2.02,6.11,2.76
            c3.76,1.33,7.59,2.46,11.39,3.68c0.71,0.23,1.42,0.48,2.18,0.75c0.05-0.27,0.1-0.42,0.11-0.57c0.16-3.8,0.26-7.59,0.49-11.38
            c0.07-1.16,0.4-2.35,0.81-3.45c0.5-1.32,0.42-1.63-1.04-1.7c-4.27-0.21-8.17-1.59-11.67-3.93c-3.19-2.14-6.22-4.56-8.26-7.9
            c-1.13-1.86-2.59-3.13-4.64-3.7c-0.96-0.27-1.25-0.8-1.19-1.75c0.21-3.12,1.03-6.06,2.55-8.79c3.01-5.4,6.75-10.27,10.69-15.02
            C93.33,5.56,97,2.41,101.67,0.5c0.43-0.18,0.94-0.16,1.41-0.23c-0.12,0.53-0.09,1.19-0.39,1.57c-1.24,1.51-2.48,3.06-3.92,4.37
            c-3.12,2.84-5.2,6.35-6.92,10.12c-0.23,0.51-0.25,1.12-0.4,1.83c0.55-0.09,0.9-0.14,1.23-0.2c1.8-0.36,3.59-0.86,5.41-1.06
            c6.79-0.73,13.59-1.44,20.45-0.97c2.22,0.15,4.36,0.37,6.34,1.51c0.82,0.47,1.79,0.68,2.7,1.01c0.09-0.1,0.18-0.2,0.27-0.3
            c-0.14-0.51-0.23-1.05-0.44-1.53c-0.5-1.13-1.19-2.2-1.56-3.36c-1.23-3.94-3.52-7.13-6.58-9.83c-0.45-0.4-0.86-0.83-1.28-1.26
            c-0.47-0.48-0.86-1.02-0.32-1.67c0.52-0.63,1.1-0.58,1.8-0.19c3.7,2.04,6.72,4.85,9.35,8.11c1.18,1.46,2.25,3.01,3.45,4.46
            c4.34,5.21,6.66,11.31,7.95,17.87c0.29,1.49-0.06,2.66-1.41,3.5c-1.63,1.02-2.84,2.42-3.77,4.11c-0.46,0.83-1.03,1.61-1.62,2.37
            c-3.85,5-9.39,7.1-15.17,8.72c-1.06,0.3-1.42,0.77-1.37,1.71c0.19,4.23,0.41,8.47,0.6,12.7c0.04,0.85,0.48,1.31,1.29,1.19
            c1.69-0.26,3.46-0.36,5.02-0.98c3.81-1.53,7.51-3.33,11.26-5.01c6.87-3.07,12.25-7.86,16.42-14.08c0.6-0.9,1.24-1.77,1.83-2.67
            c2.54-3.93,4.5-8.02,4.89-12.82c0.54-6.66,0.14-13.14-2.23-19.47c-0.64-1.72-0.99-3.64-1.04-5.48c-0.06-2.34,2.03-4.27,4.1-3.87
            c2.26,0.43,4.5,1.04,6.36,2.6c0.59,0.5,1.46,0.84,2.23,0.9c2.01,0.16,3.76,0.7,4.98,2.42c0.22,0.31,0.59,0.52,0.89,0.79
            c2.63,2.33,5.31,4.61,7.86,7.02c2.26,2.13,4.26,4.55,6.58,6.61c4.44,3.94,8.61,8.12,12.22,12.83c1.82,2.38,3.48,4.88,5.09,7.41
            c1.48,2.31,3.01,4.63,4.14,7.12c1.32,2.89,2.1,6.02,3.34,8.96c4.23,10.05,6.15,20.55,6.3,31.4c0.07,5.04,0,10.08,0.05,15.12
            c0.02,1.42,0.25,2.84,0.39,4.27c0,2.56,0,5.12,0,7.68c-0.21,1.82-0.28,3.66-0.66,5.45c-0.62,2.93-1.67,5.78-2.12,8.72
            c-0.7,4.63-2.98,8.51-5.46,12.26c-3.64,5.5-8.53,9.81-13.72,13.8c-1.81,1.39-3.81,1.77-5.99,1.47c-2.43-0.33-2.7-0.91-1.18-2.8
            c3.62-4.49,6.17-9.61,8.84-14.65c0.52-0.97,0.81-2.08,1.09-3.16c1.01-3.9,1.77-7.88,3-11.71c1.42-4.43,1.86-8.95,1.6-13.49
            c-0.37-6.5-1.21-12.97-1.84-19.45c-0.27-2.74-0.24-5.54-0.81-8.22c-1.43-6.71-2.95-13.42-4.79-20.03
            c-1.18-4.21-2.7-8.39-4.66-12.29c-1.09-2.16-3.29-3.84-5.21-5.48c-1.61-1.38-3.58-2.34-5.33-3.58c-2.38-1.69-4.66-3.5-7.04-5.19
            c-1.22-0.87-1.82-0.63-2.14,0.77c-0.68,3.04-1.36,6.08-1.9,9.15c-0.12,0.67,0.19,1.66,0.67,2.13c1.53,1.51,3.13,3.01,4.9,4.22
            c3.03,2.08,5.35,4.8,7.47,7.71c0.57,0.78,1,1.76,1.16,2.7c1.3,7.57,2,15.22,2.13,22.88c0.11,6.63-0.26,13.26-0.41,19.89
            c-0.05,2.47-0.79,4.71-2.12,6.77c-1.81,2.81-3.94,5.32-6.46,7.53c-6.39,5.59-13.42,10.19-21.12,13.74
            c-0.47,0.22-1.2,0.02-1.75-0.15c-0.39-0.12-0.69-0.53-1.05-0.78c-1.48-1.04-1.59-1.74-0.35-3.06c2.1-2.25,4.3-4.41,6.34-6.72
            c2.04-2.29,3.98-4.67,5.86-7.09c0.51-0.65,0.86-1.58,0.9-2.4c0.12-2.35,0.08-4.71,0.03-7.06c-0.15-7.31-0.34-14.63-0.49-21.94
            c-0.09-4.43-1.38-8.25-4.9-11.26c-2.53-2.18-4.78-4.69-7.16-7.04c-1.29-1.27-2.36-1.36-3.97-0.29c-1.73,1.15-3.38,2.43-5.18,3.47
            c-8.05,4.67-16.63,7.69-25.97,8.41c-1.77,0.14-1.81,0.32-1.86,2.21c-0.37,14.47-0.75,28.94-1.13,43.41
            c-0.09,3.28-0.19,6.56-0.32,9.83c-0.09,2.39-1.29,3.93-3.4,4.52c-2.5,0.7-5.04,1.28-7.48,2.13c-8.12,2.82-16,6.16-23.67,10.07
            c-6.94,3.54-13.24,7.88-18.74,13.4c-0.92,0.92-0.99,1.47-0.01,2.29c1.53,1.28,3.08,2.55,4.74,3.66
            c6.49,4.33,13.86,6.51,21.34,8.14c4.29,0.93,8.8,0.97,13.23,1.09c3.99,0.11,7.99-0.16,11.99-0.38c10.07-0.57,19.33-3.78,27.87-9
            c2.88-1.76,5.38-4.13,8-6.29c1-0.82,0.81-1.51-0.41-2.03c-0.22-0.09-0.45-0.17-0.68-0.24c-3.63-1.08-7.28-2.12-10.89-3.25
            c-5.9-1.84-11.83-2.2-17.84-0.62c-1.17,0.31-1.28,0.56-0.6,1.52c0.14,0.2,0.31,0.37,0.42,0.58c0.86,1.57,0.78,3.25,0.01,4.72
            c-0.62,1.18-2.04,0.85-3.18,0.82c-6.07-0.2-12.15-0.41-18.22-0.62c-2.64-0.09-5.31-0.46-7.9-0.15c-1.9,0.22-2.92-0.29-3.79-1.81
            c-0.65-1.14-0.62-1.85,0.48-2.63c0.71-0.51,1.53-0.88,2.22-1.42c4.41-3.51,9.24-6.29,14.45-8.4c1.85-0.75,3.7-1.52,5.61-2.04
            c4.65-1.24,9.39-1.89,14.21-1.95c4.18-0.05,8.38-0.57,12.45,1.03c1.12,0.44,2.44,0.36,3.65,0.61c1.94,0.4,3.88,0.84,5.8,1.35
            c1.46,0.39,2.85,1.03,4.32,1.37c3.84,0.89,7.44,2.41,10.96,4.14c0.85,0.42,1.71,0.68,2.62,0.16c0.76-0.44,1.49-0.21,1.89,0.45
            c0.33,0.55,0.71,1.48,0.47,1.89c-1.86,3.16-3.56,6.47-5.88,9.27c-3.9,4.69-8.64,8.52-13.81,11.8c-4.46,2.83-9.02,5.41-14.01,7.27
            c-5.84,2.18-11.95,3.19-17.99,4.49C112.58,190.83,110.44,190.89,108.35,191.13z M106.74,41.88c1.33-0.15,3.04-0.34,4.75-0.52
            c6.28-0.66,11.77-3.07,16.44-7.34c2-1.83,1.67-4.25-0.8-5.4c-1.63-0.76-3.24-1.58-4.94-2.16c-1.84-0.62-3.74-1.27-5.65-1.42
            c-4.1-0.32-8.24-0.19-12.34-0.52c-3.1-0.25-6,0.31-8.84,1.36c-2.8,1.04-5.57,2.15-8.34,3.27c-0.78,0.32-1.47,0.86-1.06,1.84
            c1.06,2.58,2.36,5.04,4.87,6.5C95.62,40.29,100.86,41.56,106.74,41.88z"/>
    </g>
</g>
</svg>
