<!-- Generator: Adobe Illustrator 23.0.4, SVG Export Plug-In  -->
<svg version="1.1" xmlns="http://www.w3.org/2000/svg" xmlns:xlink="http://www.w3.org/1999/xlink" x="0px" y="0px"
     width="228.93px" height="168.02px" viewBox="0 0 228.93 168.02" style="enable-background:new 0 0 228.93 168.02;"
     xml:space="preserve">
<defs>
</defs>
<g id="fsydAo_2_">
    <g>
        <path fill="#fff" d="M228.93,97.7c-0.31,0.54-0.62,1.09-0.91,1.6c-0.16,0-0.24,0.02-0.31,0c-0.67-0.19-1.34-0.39-2.02-0.59
            c-0.12,0.64-0.35,1.28-0.35,1.92c0,3.64,0.2,7.28,0.05,10.91c-0.28,6.56-2.29,12.78-4.09,19.04c-2.12,7.38-4.49,14.65-7.75,21.62
            c-1.02,2.17-2.22,4.15-3.96,5.8c-2.55,2.42-5.1,4.85-7.66,7.26c-0.28,0.26-0.6,0.47-0.9,0.71c-0.11-0.06-0.23-0.12-0.34-0.18
            c0.96-3.44,1.67-6.98,2.97-10.29c1.29-3.3,1.74-6.64,1.68-10.08c-0.11-6.28-1.61-12.26-4.27-17.93c-0.55-1.18-1.32-2.29-2.18-3.26
            c-0.44-0.49-1.33-0.84-1.99-0.8c-1.26,0.06-2.51,0.41-3.75,0.7c-1.47,0.34-2.95,0.66-4.37,1.13c-1.06,0.35-2.17,0.79-3.05,1.46
            c-1.49,1.13-2.84,2.45-4.21,3.74c-0.57,0.54-1.12,1.15-1.54,1.81c-1.64,2.6-3.2,5.26-4.86,7.85c-0.47,0.73-1.17,1.3-1.77,1.94
            c-0.19-0.05-0.38-0.1-0.57-0.16c-0.08-0.68-0.36-1.43-0.19-2.04c0.38-1.37,0.87-2.75,1.52-4.01c2.25-4.36,4.58-8.69,6.91-13.01
            c0.59-1.09,0.53-2.07-0.04-3.17c-0.91-1.77-1.75-3.59-2.52-5.43c-1.73-4.09-4.92-6.71-8.68-8.78c-0.98-0.54-2.02-0.96-3.01-1.49
            c-3.05-1.63-6-1.32-8.87,0.44c-1.36,0.83-2.71,1.06-4.19,0.27c-0.84-0.45-0.99-1.02-0.74-1.87c0.18-0.6,0.37-1.25,0.33-1.86
            c-0.18-2.87-0.33-5.75-0.72-8.59c-0.31-2.24-0.88-4.46-1.47-6.65c-0.22-0.82-0.7-1.65-1.29-2.26c-2.04-2.14-2.68-4.72-2.75-7.56
            c-0.09-3.55-0.32-7.1-0.45-10.65c-0.05-1.48-0.44-2.66-1.79-3.53c-1.27-0.82-1.66-2.17-1.5-3.37c0.98-0.25,1.76-0.54,2.56-0.63
            c0.51-0.06,1.06,0.16,1.59,0.27c0.99,0.21,1.98,0.59,2.98,0.62c3.39,0.1,6.79,0.09,10.18,0.12c0.44,0,0.89-0.05,1.32,0.04
            c2.3,0.46,3.45-0.67,4.31-2.69c1.29-3.02,2.14-6.08,2.17-9.38c0.04-4.4,0.22-8.79,0.25-13.19c0.04-6.02-1.08-11.74-4.34-16.94
            c-1.29-2.06-2.27-4.31-3.42-6.46c-0.86-1.62-0.81-3.22-0.01-4.82c1.11-2.23,2.78-3.89,5.04-4.94c1.27-0.6,2.21-0.25,2.65,1.07
            c0.23,0.71,0.25,1.49,0.31,2.24c0.19,2.68,1.41,4.14,3.96,4.85c0.71,0.2,1.4,0.59,2.01,1.01c4.25,2.91,8.35,6.06,12.74,8.73
            c6.57,3.99,12.24,9.01,17.24,14.74c2.9,3.32,5.22,7.16,7.62,10.88c1.77,2.75,3.23,5.7,4.88,8.53c2.56,4.39,3.91,9.26,5.56,14
            c3.03,8.74,5.09,17.71,5.77,26.96c0.03,0.43,0.15,0.86,0.23,1.28C228.93,95.62,228.93,96.66,228.93,97.7z M210.8,53.36
            c-0.13,0.06-0.26,0.13-0.4,0.19c0.14,0.5,0.26,1.01,0.41,1.51c1.2,3.84,2.63,7.63,3.54,11.53c1.45,6.19,1.79,12.63,4.28,18.58
            c0.06,0.14,0.03,0.32,0.03,0.48c-0.02,9.88-0.05,19.75-0.08,29.63c0,0.35,0,0.7,0,1.06c0.34-0.24,0.46-0.48,0.5-0.74
            c0.52-3.31,1.02-6.62,1.56-9.93c0.19-1.13,0.77-2.25,0.72-3.36c-0.31-6.02-0.52-12.07-1.21-18.06c-1.15-9.98-4.1-19.51-8-28.75
            C211.83,54.73,211.25,54.07,210.8,53.36z M187.11,40.53c0.16,0.8,0.27,1.53,0.46,2.23c0.65,2.34,1.52,4.65,1.98,7.03
            c1.82,9.45,2.44,19.02,2.4,28.62c-0.02,3.67-0.33,7.35-0.44,11.02c-0.03,0.89,0.2,1.79,0.31,2.68c1.44-1.5,1.8-3.23,1.79-4.98
            c-0.01-6.43,0.08-12.87-0.24-19.28c-0.33-6.66-1.13-13.3-1.66-19.95c-0.25-3.07-2.41-5.03-4.06-7.29
            C187.59,40.55,187.42,40.57,187.11,40.53z"/>
        <path fill="#fff" d="M29.73,168.02c-2.75-2.67-5.4-5.45-8.28-7.97c-2.64-2.31-4.73-4.93-6.21-8.11c-2.73-5.87-5.51-11.72-7.14-18.01
            c-1.49-5.79-2.84-11.63-4.08-17.48c-0.42-2.01-0.43-4.13-0.43-6.21c0-3.39,0.16-6.79,0.26-10.18c0.04-1.44-0.21-1.65-1.59-1.25
            c-1.51,0.44-2.37-0.18-2.26-1.87c0.12-1.99,0.43-3.97,0.72-5.94c1.73-11.89,4.99-23.35,10.05-34.24
            c3.16-6.8,7.28-13.02,12.09-18.8c4.98-5.99,10.41-11.48,16.8-15.99c5.19-3.67,10.27-7.49,15.42-11.2c0.9-0.65,1.9-1.17,2.9-1.67
            c0.89-0.45,1.33-1.1,1.3-2.09c-0.01-0.24-0.03-0.48-0.01-0.72c0.18-1.57,0.71-1.89,2.23-1.48c2.45,0.66,3.84,2.4,4.97,4.53
            c0.85,1.59,1.19,3.07,0.25,4.74c-1.14,2.01-2.12,4.11-3.31,6.09c-1.89,3.14-3.6,6.36-3.85,10.09c-0.35,5.14-0.59,10.29-0.81,15.44
            c-0.07,1.59,0.13,3.19,0.14,4.79c0.03,3.69,1.5,6.91,3.22,10.05c0.2,0.36,0.8,0.73,1.2,0.71c2.55-0.09,5.09-0.32,7.64-0.42
            c1.35-0.05,2.74-0.11,4.04,0.16c1.71,0.36,3.23,0.38,4.63-0.78c0.15-0.13,0.34-0.21,0.52-0.3c0.07-0.03,0.15-0.03,0.31-0.05
            c0.39,0.94,0.27,1.74-0.56,2.4c-0.25,0.2-0.51,0.38-0.77,0.57c-1.6,1.19-1.57,1.41-0.25,2.81c0.44,0.47,0.79,1.25,0.76,1.88
            c-0.18,4.47-0.45,8.94-0.75,13.41c-0.04,0.64-0.27,1.44-0.7,1.85c-2.69,2.54-3.71,5.85-4.26,9.31c-0.49,3.11-0.7,6.27-0.99,9.41
            c-0.06,0.63-0.02,1.29,0.12,1.9c0.15,0.69,0.41,1.39-0.32,1.83c-0.74,0.44-1.56,0.89-2.46,0.33c-2.84-1.73-5.92-2.03-9.14-1.6
            c-0.27,0.04-0.56,0.08-0.81,0.2c-3.61,1.66-7.05,3.58-9.78,6.55c-0.43,0.47-0.82,1-1.09,1.57c-1.23,2.6-2.47,5.19-3.55,7.85
            c-0.27,0.67-0.16,1.7,0.17,2.36c1.96,3.97,4.12,7.86,6.05,11.84c0.75,1.56,1.18,3.29,1.6,4.98c0.14,0.56-0.21,1.25-0.34,1.88
            c-0.15,0.05-0.29,0.1-0.44,0.14c-0.45-0.49-1.02-0.92-1.34-1.49c-1.67-2.91-3.24-5.88-4.93-8.78c-0.33-0.56-1-0.93-1.52-1.38
            c-0.83-0.72-1.82-1.33-2.48-2.18c-1.27-1.65-2.84-2.6-4.87-3c-1.92-0.38-3.79-0.95-5.69-1.45c-1.99-0.52-3.84,0.15-4.75,2
            c-3.81,7.7-6.09,15.76-4.8,24.42c0.6,4.01,2.23,7.73,5.04,10.8c0.15,0.17,0.39,0.41,0.36,0.58c-0.31,1.55,0.78,2.33,1.69,3.21
            c0.34,0.34,0.69,0.66,1.03,1.01c1.19,1.23,1.17,1.51-0.16,2.52c-0.19,0.14-0.37,0.3-0.56,0.44
            C29.89,168.02,29.81,168.02,29.73,168.02z M18.54,54.91c-0.63,0.58-1.22,0.88-1.44,1.36c-1.04,2.28-2.19,4.53-2.93,6.91
            c-2.48,7.95-4.64,16-6.02,24.22c-0.51,3.06-0.7,6.2-0.67,9.31c0.04,3.79,0.4,7.58,0.75,11.36c0.27,2.94,0.72,5.86,1.13,8.79
            c0.05,0.38,0.35,0.73,0.54,1.09c0.12-0.05,0.24-0.11,0.37-0.16c0.02-0.35,0.08-0.71,0.05-1.06c-0.17-1.98-0.55-3.97-0.52-5.95
            c0.11-7.23,0.36-14.45,0.54-21.68c0.02-0.59-0.14-1.19-0.09-1.78c0.06-0.7,0.24-1.4,0.43-2.09c0.09-0.33,0.42-0.61,0.5-0.94
            c0.61-2.44,1.35-4.86,1.73-7.33c0.88-5.69,2.05-11.31,3.84-16.78c0.18-0.55,0.5-1.06,0.79-1.57
            C18.13,57.57,18.84,56.58,18.54,54.91z M35.57,93.32c0.15,0,0.3,0.01,0.44,0.01c0.1-0.52,0.27-1.04,0.27-1.57
            c0-3.63-0.06-7.26-0.06-10.89c0-8,0.38-15.97,1.76-23.86c0.69-3.96,1.74-7.86,2.63-11.78c0.09-0.39,0.13-0.79,0.19-1.18
            c-0.14-0.07-0.28-0.14-0.41-0.21c-1.22,1.63-2.47,3.24-3.64,4.91c-0.25,0.36-0.31,0.93-0.28,1.39c0.2,2.82-0.24,5.56-0.7,8.32
            c-0.35,2.11-0.25,4.3-0.42,6.44c-0.33,4.06-0.78,8.1-1.03,12.16c-0.15,2.54-0.12,5.1,0,7.64c0.11,2.42,0.42,4.83,0.7,7.24
            C35.07,92.42,35.38,92.86,35.57,93.32z"/>
        <path fill="#fff" d="M114.26,29.48c5.29-1.63,9.54,1.23,14.01,3.23c4.03,1.8,6.3,5.03,7.67,9.04c1.16,3.39,2.5,6.76,3.29,10.24
            c0.99,4.38,1.71,8.86,2.16,13.33c0.35,3.43,0.15,6.92,0.12,10.39c0,0.52-0.27,1.14-0.61,1.54c-0.75,0.86-1.1,1.64-0.56,2.79
            c0.69,1.46,1.54,2.72,2.65,3.93c0.8,0.87,1.01,2.28,1.46,3.45c0.33,0.88,0.68,1.75,0.94,2.66c0.27,0.95,0.48,1.92,0.61,2.89
            c0.12,0.83,0.08,1.67,0.14,2.51c0.06,0.97,0.44,1.71,1.31,2.28c1.25,0.81,1.34,1.35,0.78,2.74c-0.6,1.49-1.41,2.74-2.99,3.41
            c-0.6,0.26-1.1,0.79-1.58,1.26c-1.51,1.46-2.97,2.99-4.5,4.43c-1.06,1-1.91,1.05-3.15,0.32c-1.82-1.06-2.4-0.78-2.92,1.21
            c-0.62,2.35-1.02,4.85-2.13,6.96c-0.92,1.74-0.53,2.77,0.45,4.06c0.35,0.46,0.97,0.97,0.33,1.67c-0.68,0.74-2.11,1.1-2.72,0.48
            c-1.08-1.1-2.19-1.39-3.67-0.93c-1.68,0.52-2.94,1.47-3.65,3.05c-1.44,3.21-2.68,6.49-2.89,10.05c-0.05,0.8-1.15,1.69-1.97,1.57
            c-1.05-0.16-1.24-0.99-1.03-1.82c0.71-2.75-0.19-5.39-0.48-8.07c-0.1-0.93-0.67-1.52-1.71-1.47c-1.03,0.05-1.29,0.68-1.4,1.59
            c-0.36,3.19-0.64,6.37-0.05,9.56c0.17,0.93-0.19,1.59-1.07,1.88c-0.98,0.31-1.37-0.35-1.62-1.14c-0.91-2.89-1.81-5.79-2.73-8.68
            c-0.51-1.6-1.43-2.92-2.72-4.01c-0.53-0.45-0.95-0.62-1.57-0.18c-1.38,1-2.8,0.71-4.18-0.02c-1.33-0.7-1.78-1.87-1.63-3.32
            c0.06-0.64,0.05-1.28,0.16-1.91c0.23-1.37-0.01-2.64-0.83-3.75c-0.49-0.66-0.49-1.15,0.13-1.76c1.2-1.17,1.11-1.9-0.21-2.92
            c-2.48-1.92-4.24-1.67-6.17,0.89c-1.22,1.62-3.65,1.66-5.03,0.16c-0.86-0.93-1.78-1.82-2.76-2.62c-2.11-1.71-3.21-3.91-3.5-6.59
            c-0.21-1.99-0.47-3.97-0.79-5.94c-0.08-0.48-0.38-0.95-0.68-1.36c-1.04-1.42-1.05-2.43,0.09-3.77c0.31-0.36,0.64-0.74,1.03-1
            c1.68-1.12,2.59-2.74,3.32-4.57c0.48-1.19,0.35-2.23-0.14-3.34c-0.16-0.37-0.27-0.92-0.12-1.26c0.92-2.12,1.86-4.24,2.9-6.3
            c0.56-1.1,0.44-1.97,0.01-3.14c-0.75-2.04-1.13-4.22-1.52-6.37c-0.67-3.66,0.7-6.99,1.8-10.38c0.53-1.65,0.74-3.4,1.1-5.11
            c0.11-0.5,0.15-1.03,0.36-1.49c1.16-2.63,2.33-5.25,3.56-7.85c1.28-2.7,3.16-4.79,5.81-6.33c4-2.31,8.16-4.21,12.53-5.65
            c0.41-0.14,0.85-0.22,1.28-0.25C110.75,29.64,112.51,29.57,114.26,29.48z M95.2,104.99c3.89-0.28,7.74-0.62,10.71-3.68
            c1.07-1.11,1.39-1.68,0.59-3c-0.43-0.72-1.09-1.5-1.82-1.8c-3.84-1.54-7.68-3.12-11.9-3.47c-1.6-0.13-3.18-0.67-4.73-1.14
            c-0.81-0.25-1.4-0.2-1.87,0.51c-0.62,0.93-1.28,1.83-1.82,2.8c-0.18,0.32-0.23,0.94-0.04,1.22c1.31,1.99,2.55,4.07,4.11,5.85
            C90.16,104.25,92.52,105.15,95.2,104.99z M138.83,89.1c-0.18-0.06-0.27-0.12-0.33-0.11c-5.16,1.31-10.6,1.63-15.42,4.2
            c-0.14,0.07-0.31,0.18-0.44,0.16c-1.92-0.37-3,1.02-4.26,2.02c-0.64,0.51-0.69,0.96-0.03,1.56c0.45,0.41,0.84,0.98,1.04,1.55
            c1.03,3.06,4.81,5.15,7.95,4.3c2.04-0.55,4.12-1.03,6.09-1.77c1.19-0.45,2.44-1.13,3.28-2.06c1.14-1.25,1.98-2.8,2.8-4.3
            c0.33-0.62,0.44-1.49,0.32-2.19C139.62,91.29,139.16,90.17,138.83,89.1z M120.21,115.97c-0.62-0.8-1.36-1.55-1.87-2.44
            c-0.51-0.89-0.79-1.91-1.17-2.87c-0.03-0.07-0.07-0.15-0.13-0.2c-1.24-1-1.38-2.46-1.63-3.87c-0.19-1.06-0.33-2.14-0.61-3.17
            c-0.11-0.41-0.64-1.1-0.79-1.05c-0.55,0.17-1.23,0.49-1.46,0.95c-0.32,0.64-0.35,1.47-0.36,2.22c-0.02,1.48-0.51,2.74-1.18,4.06
            c-0.9,1.76-1.5,3.69-2.04,5.59c-0.36,1.25,0,1.6,1.27,1.71c1.02,0.08,1.95,0.14,2.87,0.84
            C114.06,118.47,119.26,117.03,120.21,115.97z"/>
        <path fill="#fff" d="M124.23,157.14c-0.92-0.43-1.43-0.66-1.84-0.86c0-3.63,0.03-7.21-0.02-10.78c-0.01-0.8-0.33-1.61-0.51-2.41
            c-0.04-0.19-0.16-0.38-0.16-0.57c0.06-3.41-0.02-6.84,0.28-10.24c0.12-1.44,0.91-2.88,1.62-4.2c1.01-1.86,2-2.04,4.5-1.17
            c1.52,0.53,2.41,1.93,2.18,3.57c-0.37,2.6-0.77,5.19-1.17,7.79c-0.01,0.04-0.01,0.08-0.02,0.12
            C127.49,144.6,125.88,150.79,124.23,157.14z"/>
        <path fill="#fff" d="M104.63,132.45c-0.2,1.58-0.35,2.77-0.5,3.95c-0.78,6.04-0.5,12.11-0.72,18.17c-0.01,0.36,0.12,0.82-0.06,1.05
            c-0.33,0.43-0.82,0.97-1.28,1.01c-0.41,0.03-1.13-0.46-1.28-0.87c-2.85-7.84-3.23-16.05-3.41-24.27
            c-0.03-1.36,1.28-2.64,2.93-3.08c1.47-0.39,2.35-0.05,3.18,1.42C104.02,130.75,104.35,131.78,104.63,132.45z"/>
    </g>
</g>
</svg>
