<!-- Generator: Adobe Illustrator 23.0.4, SVG Export Plug-In  -->
<svg version="1.1" xmlns="http://www.w3.org/2000/svg" xmlns:xlink="http://www.w3.org/1999/xlink" x="0px" y="0px"
     width="185.52px" height="229.76px" viewBox="0 0 185.52 229.76" style="enable-background:new 0 0 185.52 229.76;"
     xml:space="preserve">
<defs>
</defs>
<g id="lskuq3_2_">
    <g>
        <path fill="#fff" d="M0,63.2c0-0.32,0-0.64,0-0.96c0.96-1.22,1.86-2.49,2.9-3.64c6.27-6.96,8.02-15.82,10.34-24.45
            c0.42-1.57,0.72-3.24,1.51-4.63c1.23-2.17,3.64-1.89,4.77,0.34c1.47,2.92,1.75,6.01,1.57,9.22c-0.22,3.92-0.18,7.82,1.23,11.59
            c0.64,1.72,1.39,3.29,2.83,4.5c1.1,0.92,2.18,1.88,3.19,2.91c1.45,1.47,1.53,3.37,0.23,4.86c-1.19,1.37-2.8,2.14-4.5,1.6
            c-1.51-0.47-2.82-0.11-4.21,0.14c-1.26,0.23-1.49,0.68-0.91,1.83c0.94,1.85,1.84,3.73,2.91,5.51c0.45,0.75,1.17,1.47,1.95,1.84
            c1.05,0.5,2.26,0.73,3.43,0.9c0.47,0.07,1.13-0.2,1.5-0.53c1.77-1.59,3-3.47,3.21-5.96c0.11-1.25,0.54-2.48,0.84-3.72
            c0.25-1,0.65-1.97,0.77-2.99c0.18-1.65,0.66-3.11,1.87-4.3c0.77-0.76,1.47-1.59,2.29-2.28c1.07-0.91,1.42-1.99,1.43-3.37
            c0.05-4.99,0.26-9.99,0.3-14.98c0-0.57-0.55-1.24-1.02-1.7c-0.34-0.33-0.95-0.38-1.44-0.55c-3.06-1.04-6.14-2.04-9.18-3.13
            c-0.47-0.17-1.08-0.7-1.15-1.15c-0.34-1.97,1.23-3.67,3.2-3.8c0.97-0.06,2.06-0.11,2.87-0.58c4.72-2.72,7.25-7.22,9.19-12.06
            c1.27-3.18,2.17-6.51,3.21-9.78c0.47-1.47,1.32-2.58,2.63-3.43c0.88-0.57,1.3-0.49,1.68,0.49c1.08,2.8,1.21,5.68,0.83,8.62
            c-0.27,2.05-0.77,4.09-0.14,6.18c0.33,1.1,0.51,2.25,0.78,3.37c0.52,2.13,0.85,4.38,3.37,5.26c0.38,0.13,0.8,0.51,0.94,0.88
            c0.7,1.77,2.13,2.67,3.72,3.52c2.29,1.23,2.36,3.71,0.24,5.18c-0.45,0.31-0.97,0.55-1.49,0.75c-2.42,0.91-4.91,1.38-7.51,1.17
            c-0.68-0.05-1.36,0-2.04,0.01c-0.87,0.01-1.22,0.42-1.06,1.3c0.4,2.16,0.73,4.33,1.16,6.48c0.4,2.03,1.6,2.66,3.4,1.64
            c1.38-0.78,2.62-1.81,3.86-2.82c2.31-1.89,4.73-3.05,7.78-1.78c1.34,0.55,1.92,0.17,2.23-1.26c0.8-3.75,1.57-7.5,2.35-11.26
            c0.16-0.77-0.07-1.27-0.94-1.29c-2.73-0.07-4.98-1.33-7.12-2.85c-1.26-0.89-1.18-2.45,0.2-3.16c1.03-0.53,2.08-1.04,3.18-1.39
            c3.81-1.22,5.94-4.05,7.55-7.49c1.77-3.79,3.64-7.54,5.46-11.31c0.37-0.77,1.02-0.81,1.74-0.61c0.73,0.2,1.38,0.49,1.3,1.44
            c-0.09,1.07-0.16,2.15-0.29,3.22c-0.52,4.2-0.45,8.29,1.05,12.39c0.99,2.71,2.5,4.67,4.98,5.96c0.74,0.38,1.16,0.93,0.96,1.72
            c-0.3,1.22-0.61,2.48-1.14,3.61c-0.8,1.7-1.53,1.95-3.4,1.53c-0.78-0.17-1.56-0.35-2.35-0.48c-1.45-0.25-1.9,0.06-2.19,1.47
            c-0.22,1.1-0.46,2.19-0.67,3.29c-0.51,2.64-0.95,5.25,0.34,7.85c0.7,1.42,2.83,2.31,3.85,1.24c2.85-2.99,6.2-5.52,7.13-10.06
            c1.09-5.36,4.59-8.53,10.2-9.12c2.14-0.22,4.27-0.61,6.41-0.68c1.74-0.05,3.49,0.26,5.24,0.42c1.55,0.14,3.09,0.33,4.64,0.4
            c0.94,0.04,1.88-0.13,2.82-0.18c0.67-0.04,1.35-0.12,2.01-0.03c2.68,0.37,5.34,1.02,8.04,1.17c4.62,0.26,8.95,1.76,13.25,3.13
            c4.54,1.45,8.85,3.66,13.22,5.63c1.37,0.62,2.63,1.49,3.9,2.31c0.3,0.19,0.42,0.63,0.68,0.91c0.47,0.53,0.91,1.12,1.48,1.53
            c0.77,0.54,1.75,0.81,2.47,1.41c1.69,1.4,3.29,2.92,4.91,4.41c3.2,2.92,5.18,6.67,6.94,10.53c0.37,0.81,0.12,1.92,0.11,2.89
            c-0.01,0.65-0.25,1.35-0.1,1.95c0.57,2.2,1.24,4.37,1.9,6.55c0.25,0.83,0.3,1.57-0.51,2.13c-0.8,0.56-1.6,0.85-2.54,0.27
            c-1.93-1.19-3.88-2.36-5.85-3.5c-4.82-2.8-9.94-4.82-15.51-5.28c-3.65-0.3-7.35-0.25-11.01-0.08c-6.29,0.29-12.42,1.72-18.43,3.48
            c-3.76,1.1-7.19,3.08-10.22,5.64c-1.84,1.54-3.65,3.12-5.48,4.67c-2.22,1.88-4.06,4.07-5.47,6.62
            c-2.89,5.25-5.79,10.49-8.69,15.73c-0.33,0.59-0.67,1.18-0.99,1.78c-0.47,0.88-0.3,1.59,0.3,2.41c0.58,0.8,1.05,1.8,1.22,2.77
            c0.37,2.19,0.01,4.28-1.33,6.17c-0.32,0.46-0.5,1.27-0.31,1.76c0.11,0.3,1.02,0.34,1.58,0.44c1.41,0.25,3,0.13,4.19,0.77
            c3.1,1.65,6.22,3.19,8.77,5.88c5.26,5.56,9.33,11.74,11.71,19.02c0.32,0.97,0.56,2.01,0.58,3.03c0.04,1.5-0.97,2.39-2.26,2.94
            c-1.21,0.52-2.13,0.06-3.15-0.73c-1.29-1.01-2.76-1.89-4.29-2.5c-1.73-0.69-3.6-1.02-5.42-1.48c-4.36-1.09-8.43-0.74-12.18,2.06
            c-2.68,2-5.1,4.24-7.18,6.85c-1.07,1.34-1.02,1.79-0.04,3.17c1.37,1.92,2.75,3.83,4.03,5.81c1.22,1.9,2.11,2.25,4.38,2.02
            c1.56-0.16,3.4-0.75,4.43,1.24c0.06,0.12,0.25,0.2,0.39,0.26c0.86,0.41,1.13,1.14,0.95,2c-0.25,1.2-0.52,2.41-0.93,3.57
            c-0.49,1.41-0.29,1.78,1.24,1.83c0.92,0.03,1.85-0.01,2.75,0.16c0.97,0.19,2.06,0.36,2.81,0.93c3.93,2.94,7.79,5.98,11.63,9.04
            c1.14,0.9,1.96,1.02,3.11,0.14c0.32-0.24,0.61-0.52,0.89-0.8c2.75-2.8,5.98-4.92,9.51-6.6c0.38-0.18,0.87-0.35,1.24-0.26
            c2.11,0.52,4.39,0.44,6.29,1.76c0.37,0.26,0.91,0.43,1.36,0.41c0.49-0.02,1.01-0.23,1.45-0.48c0.67-0.37,1.23-1.04,1.94-1.25
            c2.02-0.6,4.09-1.06,6.15-1.53c2.01-0.46,4.16-0.54,6.03-1.32c7.42-3.09,13.48-8.01,17.87-14.74c4.62-7.07,8.56-14.51,11.04-22.64
            c0.12-0.39,0.32-0.76,0.48-1.14c0.12,0,0.23-0.01,0.35-0.01c0.39,0.98,0.9,1.94,1.13,2.96c0.48,2.1,0.72,4.26,1.23,6.35
            c0.85,3.52,0.93,7.04,0.21,10.58c-0.66,3.25-1.34,6.49-2.09,9.71c-0.67,2.87-1.4,5.72-2.18,8.57c-0.76,2.77-1.64,5.51-2.41,8.28
            c-0.49,1.75-0.62,3.66-1.38,5.28c-3.75,7.97-8.04,15.64-13.72,22.43c-5.05,6.04-10.9,11.19-17.98,14.7
            c-5.5,2.73-11.31,4.75-17.26,6.4c-8.06,2.24-16.18,4.06-24.5,5c-2.02,0.23-4.05,0.4-6.07,0.6c-2.96,0-5.92,0-8.88,0
            c-1.98-0.45-3.97-0.89-5.95-1.35c-3.18-0.74-6.39-1.39-9.53-2.27c-3.61-1.02-7.26-2-10.7-3.45c-4.79-2.01-9.46-4.36-14.1-6.72
            c-4.07-2.07-7.94-4.49-11.17-7.79c-2.43-2.49-4.92-4.93-7.22-7.53c-1.72-1.94-3.38-3.98-4.71-6.19
            c-4.87-8.07-8.6-16.66-11.27-25.71c-0.13-0.45-0.28-0.98-0.61-1.27c-1.97-1.73-2.64-4.05-2.98-6.5
            c-0.51-3.72-0.91-7.46-1.43-11.18c-0.39-2.77-1.6-5.04-4.1-6.57c-1.97-1.21-2.56-3.44-1.46-5.48c2.47-4.59,3.54-9.63,4.91-14.59
            c0.12-0.42,0.13-0.87,0.17-1.31c0.4-4.93,0.06-9.74-2.24-14.25c-0.84-1.65-0.7-3.29,0.14-4.95c0.36-0.72,0.55-1.59,0.59-2.4
            c0.07-1.52,0.13-1.73,1.67-1.88c2.94-0.28,5.43-1.52,7.67-3.37c0.43-0.36,0.89-0.68,1.33-1.03c2.34-1.83,3.85-4.22,4.66-7.06
            c0.25-0.89-0.03-1.47-0.88-1.97c-1.58-0.93-3.11-1.96-4.6-3.03c-0.41-0.3-0.94-0.88-0.9-1.29c0.18-2.1-0.93-3.66-1.91-5.3
            c-1.17-1.96-2.24-3.97-2.43-6.31c-0.17-2.06-1.15-3.04-3.22-3.11c-0.82-0.02-1.79-0.03-2.46,0.36c-2.17,1.29-3.48-0.05-4.8-1.38
            C0.58,64.44,0.34,63.77,0,63.2z M78.54,160.07c-0.11,0.04-0.22,0.09-0.34,0.13c-0.37-0.48-0.83-0.92-1.1-1.46
            c-1.23-2.38-2.3-4.83-3.64-7.14c-0.61-1.06-1.59-1.99-2.59-2.74c-1.75-1.3-3.64-2.41-5.47-3.6c-1.07-0.69-2.09-1.49-3.23-2.05
            c-2.58-1.26-5.22-2.4-7.84-3.59c-2.05-0.93-4.21-1.23-6.43-1.07c-1.19,0.09-2.3,0.98-2.33,1.89c-0.04,1.25,1.01,1.36,1.85,1.68
            c0.15,0.06,0.31,0.07,0.46,0.12c2.81,0.83,5.21,2.33,7.34,4.35c4.29,4.07,7.53,8.89,10.24,14.09c0.81,1.56,1.57,3.15,2.24,4.77
            c0.68,1.65-0.21,2.7-1.96,2.37c-0.5-0.09-1.02-0.27-1.46-0.53c-2.69-1.57-5.58-2.11-8.64-1.76c-0.47,0.05-1.16,0.21-1.31,0.52
            c-0.16,0.35,0.11,0.97,0.32,1.41c0.18,0.38,0.54,0.69,0.83,1.02c1.62,1.83,3.24,3.65,4.85,5.48c0.6,0.68,0.99,1.45,0.41,2.27
            c-0.7,0.99-0.81,2.55-2.67,2.46c-2.66-0.13-5.34-0.04-8-0.02c-1.07,0.01-1.87,0.43-2.03,1.61c-0.16,1.1,0.49,1.6,1.37,2.11
            c1.33,0.77,2.6,1.68,3.81,2.63c1.49,1.17,1.73,2.59,0.75,4.3c-0.92,1.62-0.64,3.33,0.09,4.96c0.41,0.91,2.21,1.65,2.97,1.29
            c0.65-0.31,0.99-1.76,0.48-2.74c-0.76-1.45-0.4-2.66,0.42-3.92c0.84-1.3,1.57-2.68,2.35-4.01c0.36-0.62,0.72-1.24,1.14-1.82
            c2.06-2.84,4.24-5.6,6.19-8.51c1.93-2.9,4.39-5.3,6.99-7.53c1.16-0.99,2.78-1.49,4.24-2.09c2.01-0.84,4.13-1.45,6.1-2.38
            c1.83-0.87,2.17-2.55,1.11-4.31c-1.11-1.84-2.18-3.72-3.42-5.48c-0.87-1.22-1.92-2.36-3.06-3.33c-0.51-0.44-1.45-0.37-2.2-0.53
            c-0.08,0.63-0.32,1.29-0.23,1.89c0.41,2.6,0.94,5.19,1.39,7.78C78.61,159.06,78.54,159.57,78.54,160.07z M58.92,95.31
            c-0.07,0.13-0.14,0.26-0.21,0.39c1.21,1.14,1.44,2.56,1.35,4.09c-0.01,0.23,0.02,0.49,0.12,0.7c1.04,2.37,2.01,4.79,3.2,7.08
            c0.37,0.71,1.3,1.26,2.1,1.58c1.33,0.53,2.78,0.72,4.12,1.21c1.31,0.48,2.5,0.56,3.81-0.02c1.19-0.52,1.4-0.82,0.76-1.94
            c-1.21-2.12-2.45-4.21-3.71-6.3c-1.74-2.89-4.31-4.83-7.41-6C61.77,95.6,60.31,95.56,58.92,95.31z M86.95,131.03
            c-1.4,0.42-3.1,0.66-4.54,1.41c-2.12,1.1-4.08,2.51-6.04,3.87c-1.56,1.08-1.74,2.17-0.73,3.79c0.38,0.6,0.82,1.23,1.39,1.62
            c2.39,1.68,2.7,1.4,4.24-0.24c2.36-2.52,4.85-4.86,7.94-6.48c0.66-0.35,1.25-0.86,1.8-1.38c0.69-0.66,0.6-1.36-0.29-1.68
            C89.62,131.54,88.43,131.37,86.95,131.03z M54.87,177.29c0.51-0.58,0.81-0.92,1.12-1.25c-0.37-0.32-0.71-0.77-1.14-0.91
            c-0.19-0.06-0.82,0.52-0.82,0.81C54.03,176.31,54.47,176.68,54.87,177.29z M64.91,43.18c0,0.23,0.01,0.45,0.01,0.68
            c0.55,0.06,1.09,0.13,1.64,0.19c-0.05-0.36-0.09-1.02-0.16-1.03C65.91,43,65.41,43.11,64.91,43.18z"/>
    </g>
</g>
</svg>
