<!-- Generator: Adobe Illustrator 24.1.0, SVG Export Plug-In  -->
<svg version="1.1" xmlns="http://www.w3.org/2000/svg" xmlns:xlink="http://www.w3.org/1999/xlink" x="0px" y="0px"
	 width="191.86px" height="196.07px" viewBox="0 0 191.86 196.07" style="enable-background:new 0 0 191.86 196.07;"
	 xml:space="preserve">
<defs>
</defs>
<g>
	<g>
		<path fill="#fff" d="M122.58,54.57c0.35-0.06,0.61-0.19,0.73-0.11c3.25,2.21,5.23,0.1,7.11-2.14c1.23-1.46,2.38-3,3.5-4.54
			c2.28-3.15,0.91-6.57,0.09-9.6c-2.82-10.41-0.5-19.8,4.79-28.75c2.09-3.53,5.73-5.17,9.18-6.87c3.96-1.96,8.29-2.64,12.71-2.55
			c0.88,0.02,1.76,0.27,2.65,0.41c0.02,0.21,0.05,0.43,0.07,0.64c-0.63,0.29-1.25,0.63-1.9,0.85c-3.95,1.37-7.42,3.74-9.48,7.19
			c-4.04,6.78-5,13.83,0.34,21.75c5.19,7.71,15.19,10.35,23.6,6.4c2.28-1.07,4.58-2.14,6.72-3.45c2.15-1.32,4.07-2.91,5.04-5.46
			c0.43-1.14,1.49-2.04,2.57-3.44c1.86,5.44,2.1,10.37,0.52,15.42c-3.86,12.35-16.03,19.92-28.2,18.99
			c-4.03-0.31-7.94-0.61-11.72-2.26c-3.01-1.31-5.18,0.09-6.01,3.33c-0.16,0.62-0.82,1.22-1.39,1.61c-3.69,2.51-7.62,4.75-9.33,9.28
			c-0.17,0.45-0.9,0.96-1.37,0.96c-1.69,0.03-2.29,1.31-2.97,2.42c-0.77,1.25-0.67,2.45,0.7,3.36c1.3,0.87,2.54,1.84,3.83,2.74
			c0.26,0.18,0.64,0.43,0.89,0.36c2.56-0.65,2.48,1.49,3.05,2.87c0.59,1.43,1.08,2.91,1.62,4.36c0.17,0.45,0.43,0.86,0.58,1.31
			c2.67,7.93,5.4,15.8,5.04,24.4c-0.16,3.94,0.85,7.93,0.58,11.85c-0.58,8.53-1.89,16.97-4.83,25.07c-0.05,0.13-0.07,0.28-0.15,0.38
			c-0.63,0.69-1.28,1.37-1.92,2.06c-0.27-0.84-0.69-1.66-0.79-2.52c-0.72-5.89-1.31-11.8-2.1-17.68c-0.15-1.14-1.04-2.17-1.43-3.3
			c-0.24-0.7-0.35-1.54-0.22-2.27c0.77-4.19,0.66-8.3-0.89-12.3c-0.44-1.14-0.87-2.51-1.75-3.2c-2.66-2.09-2.06-4.55-1.29-7.15
			c0.05-0.18,0.01-0.39,0.01-0.7c-0.49-0.19-1-0.58-1.48-0.55c-2.39,0.17-3.13-1.5-4.07-3.23c-2.16-3.98-5.55-6.15-10.17-6.17
			c-1.84-0.01-2.71,1.3-3.62,2.62c-0.48,0.7-1.07,1.42-1.77,1.86c-1.35,0.85-1.59,1.88-0.75,3.23c1.32,2.13,2.51,4.34,3.75,6.52
			c0.13,0.24,0.14,0.65,0.32,0.74c4.31,2.14,2.28,6.43,3.16,9.68c0.95,3.5,1.16,7.21,1.51,10.85c0.54,5.56,0.95,11.1-1.02,16.58
			c-0.43,1.18,0.2,3.05,0.92,4.26c0.7,1.17,0.54,1.63-0.24,2.58c-0.86,1.04-1.83,2.36-1.91,3.62c-0.23,3.7-2.37,6.26-4.63,8.78
			c-0.9,1-1,1.79-0.2,2.86c0.92,1.22,0.43,3.11-0.97,3.12c-4.04,0.02-5.45,3.46-7.87,5.56c-2.2,1.91-4.42,3.81-6.55,5.8
			c-0.48,0.45-0.55,1.3-0.96,1.86c-0.53,0.74-1.1,1.57-1.85,2.02c-1.01,0.61-2.27,0.8-3.33,1.34c-6.62,3.39-13.55,5.72-20.96,6.6
			c-1.76,0.21-3.52,0.71-5.27,0.67c-2.77-0.06-5.54-0.43-8.3-0.73c-3.61-0.39-7.23-0.88-10.63,0.94c-1.32,0.7-2.01,0.55-2.16-1.1
			c-0.14-1.54-1.05-2.45-2.51-3.14c-3.76-1.77-7.58-3.51-11.08-5.73c-2.05-1.3-3.48-3.54-5.3-5.24c-1.56-1.46-3.25-2.78-4.94-4.1
			c-0.32-0.25-0.88-0.28-1.33-0.25c-1.66,0.1-2.67-0.85-3.01-2.43c-0.38-1.75-1.07-3.43-1.65-5.14c-0.08-0.25-0.27-0.54-0.49-0.64
			c-3.8-1.84-4.86-5.83-6.21-9.11c-2.18-5.32-3.71-11.02-4.65-16.7c-1.2-7.24-0.4-14.58,1.05-21.76c1.32-6.57,4.58-12.15,9.55-16.71
			c1.79-1.64,1.78-3.74,1.11-5.89c-0.8-2.59-0.74-2.58,1.85-2.7c0.93-0.04,1.99-0.51,2.71-1.12c2.59-2.2,4.96-4.67,7.61-6.8
			c1.84-1.48,3.94-2.68,6.05-3.76c2.22-1.14,3.33-2.84,3.68-5.23c0.09-0.63,0.67-1.18,1.03-1.77c0.51,0.39,1.14,0.68,1.52,1.17
			c1.73,2.22,2.19,2.22,4.86,1.4c3-0.93,5.98-2.41,9.31-0.89c0.74,0.34,1.97,0.15,2.75-0.24c3.32-1.64,6.81-1.17,10.26-0.97
			c1.41,0.08,2.81,0.43,4.19,0.77c1.55,0.38,2.92,1.01,4.23-0.8c1-1.38,2.49-1.15,3.63,0.27c0.28,0.34,0.68,0.62,1.08,0.83
			c3.59,1.92,7.24,3.73,10.77,5.74c3.17,1.8,4.81,1.44,6.68-1.71c0.37-0.62,1.01-1.3,1.66-1.48c2.96-0.85,4.55-3.93,3.62-6.77
			c-1.39-4.21-4.02-7.21-8.16-8.75c-1.78-0.66-3.69-0.97-5.56-1.33c-1.53-0.3-2.8-0.47-4.1-1.91c-1.26-1.4-3.72-1.88-5.75-2.36
			c-2.57-0.62-5.28-0.66-7.85-1.29c-1.4-0.34-2.64-1.38-3.95-2.1c-3.55-1.96-7.41-2.7-11.42-2.75c-5.54-0.07-11.08-0.08-16.62-0.12
			c-0.53,0-1.07-0.09-2.27-0.19c0.86-0.95,1.3-1.89,1.98-2.13c4.25-1.46,8.47-3.44,12.86-3.95c6.64-0.78,13.41-0.59,20.12-0.63
			c4.48-0.02,8.97,0.26,13.45,0.45c1.22,0.05,2.51,0.06,3.65,0.43c5.3,1.74,10.58,3.56,15.83,5.46c1.64,0.59,3.2,1.44,4.73,2.31
			c0.45,0.26,0.97,1,0.91,1.45c-0.29,2.29,1.26,3.53,2.67,4.76c2.79,2.42,8.56,2.05,11.11-0.59c1.15-1.2,1.8-2.55,1.34-4.27
			C122.62,55.65,122.63,55.11,122.58,54.57z"/>
	</g>
</g>
</svg>
