<!-- Generator: Adobe Illustrator 24.1.0, SVG Export Plug-In  -->
<svg version="1.1" xmlns="http://www.w3.org/2000/svg" xmlns:xlink="http://www.w3.org/1999/xlink" x="0px" y="0px"
	 width="167.51px" height="201.02px" viewBox="0 0 167.51 201.02" style="enable-background:new 0 0 167.51 201.02;"
	 xml:space="preserve">
<defs>
</defs>
<g id="_x33_UFrHY.tif_1_">
	<g>
		<path fill="#fff" d="M69.25,87.55c3.23,3.48,6.33,7.02,9.65,10.34c2.92,2.91,3.6,3.85,7.92,1.01c4.2-2.76,8.49-5.1,10.73-9.92
			c0.26-0.04,0.53-0.07,0.79-0.11c0.75,2.08,1.8,4.11,2.15,6.26c0.34,2.08,0.98,3.71,2.51,5.19c6.18,5.96,13.59,9.02,22.08,9.5
			c5.36,0.3,10.76,0.8,16.09,0.47c2.82-0.18,5.72-1.61,8.25-3.06c3.76-2.16,4.98-7.07,2.99-10.93c-1.46-2.83-4.27-3.45-7.15-3.7
			c-1.22-0.11-2.45-0.02-4.2-0.02c0.46,2.99,0.71,5.78,1.38,8.47c0.5,1.99-0.22,2.87-1.97,3.13c-1.38,0.2-2.81,0.25-4.21,0.15
			c-8.45-0.59-16.42-3.15-24.19-6.27c-2.85-1.15-5.48-3.14-6.31-6.58c-0.15-0.61-0.58-1.18-0.98-1.7
			c-3.66-4.69-7.37-9.34-10.98-14.06c-0.5-0.66-0.79-1.62-0.84-2.46c-0.17-3.22-0.47-6.48-0.17-9.67c0.15-1.59,1.15-3.44,2.34-4.55
			c7.49-7.03,16.23-8.52,26.01-5.68c5.59,1.63,9.34,5.37,11.94,10.15c1.06,1.95,0.6,4.74,0.77,7.16c0.03,0.46-0.34,0.93-0.43,1.42
			c-0.91,4.69,0.7,6.65,5.48,6.88c8.67,0.41,16.48,3.14,21.9,10.12c1.99,2.57,2.9,6.34,3.32,9.69c0.84,6.53-1.37,12.48-6.32,16.76
			c-2.68,2.31-6.37,4.47-9.76,4.74c-7.36,0.6-14.83-0.04-22.25-0.22c-1.32-0.03-2.63-0.34-3.95-0.43c-3.85-0.28-5.18,0.94-4.54,4.71
			c1.21,7.18,2.48,14.35,4.03,21.46c2.06,9.45,4.74,18.78,6.51,28.28c1,5.4,0.74,11.03,0.96,16.56c0.02,0.49-0.53,1.24-1.01,1.47
			c-5.96,2.81-11.96,5.55-17.96,8.3c-0.27,0.12-0.59,0.13-1.02,0.21c1.89-8.31,1.16-16.43-0.03-24.54
			c-0.14-0.98-0.17-2.15-0.73-2.85c-1.85-2.33-0.81-4.23,0.42-6.32c3.85-6.57,5.05-13.88,3.53-21.1
			c-1.48-7.02-4.56-13.62-9.93-18.86c-4.14-4.04-7.84-8.55-12.11-12.43c-1.98-1.81-4.84-2.67-7.35-3.85
			c-0.35-0.16-1.09,0.27-1.54,0.59c-2.41,1.75-4.82,3.5-7.16,5.35c-5.66,4.48-9.98,10.22-13.8,16.17
			c-4.26,6.62-5.93,14.03-3.68,21.98c0.71,2.52,0.72,5.22,1.25,7.8c0.26,1.27,0.72,2.7,1.57,3.6c2.23,2.36,2.66,4.67,1.33,7.71
			c-0.91,2.07-1,4.5-1.47,6.77c-1.44,6.88,1.15,13.41,1.7,20.4c-2.93-0.99-5.81-1.85-8.6-2.93c-3.47-1.33-6.83-2.95-10.32-4.23
			c-2.6-0.95-3.01-2.74-2.53-5.08c1.41-6.8,3.02-13.57,4.2-20.41c1.51-8.8,2.63-17.66,4.01-26.48c0.59-3.75,1.39-7.47,2.15-11.19
			c0.3-1.46,0.87-2.85,1.17-4.31c0.63-3.05-1.04-5.03-4.14-4.97c-2.97,0.06-6.02,0.63-8.91,0.15c-7.32-1.21-14.66-2.52-21.81-4.46
			c-7.31-1.98-10.7-7.89-12.49-14.79c-1.33-5.11,0.22-10,1.59-14.85c0.22-0.78,1.54-1.18,2.06-1.96c4.52-6.79,11.44-7.82,18.77-7.95
			c1.38-0.02,3.12,0.58,3.27-1.84c0.14-2.16-0.36-3.81-2.75-4.26c-0.96-0.18-1.95-0.19-3.36-0.32c0.36-1.82,0.62-3.76,1.14-5.62
			c1.39-4.98,3.34-9.7,6.76-13.69c3.25-3.79,7.16-6.27,12.28-6.74c6.77-0.62,13.52-1.39,20.17,0.73c1.16,0.37,2.27,0.92,3.55,1.45
			c-0.68,1.44-1.14,2.78-1.88,3.93c-1.05,1.63-0.79,2.75,0.62,4.09c2.15,2.04,4.22,4.2,6.01,6.55c3.18,4.15,2.25,11.83-1.91,16.41
			c-2.5,2.76-5.02,5.53-7.83,7.94c-2.7,2.32-3.09,5.29-3.45,8.45c-0.19,1.7-0.52,3.43-1.11,5.02c-1.35,3.66-4.83,4.77-8.02,4.96
			c-8.47,0.53-17.07,1.45-25.25-2.41c0.44-3.98,0.88-7.96,1.32-11.93c-5.2-0.77-9.08,1.31-10.53,5.39
			c-1.26,3.54,0.49,8.51,4.25,10.4c5.58,2.8,11.35,5.35,17.82,5.18c5.12-0.14,10.33,0.09,15.32-0.84
			c8.08-1.51,12.06-6.67,12.72-14.94C65.37,92.4,65.57,89.26,69.25,87.55z M54.34,83.13c1.54-0.36,3.11-0.34,4.19-1.06
			c2.83-1.89,5.78-3.49,7.76-6.65c2.7-4.32,2.22-11.72-1.88-14.87c-1.59-1.22-3.45-2.35-5.36-2.85c-5.22-1.36-10.01,0.55-14.39,3.08
			c-4.03,2.33-6.2,9.34-4.33,13.02C43.25,79.54,48.59,81.67,54.34,83.13z M126.05,71.18c0-7.51-5.35-13.35-12.61-12.95
			c-8.07,0.44-13.66,3.37-13.52,12.54c0.1,6.89,6.41,12.47,14.4,12.24C122.08,82.78,125.19,78.94,126.05,71.18z"/>
		<path fill="#fff" d="M72.9,83.34c0.71-0.83,1.15-1.43,1.68-1.93c5.68-5.27,5.01-12.07,4.28-18.74c-0.18-1.64-1.65-3.18-2.65-4.69
			c-1.05-1.58-2.1-3.2-3.4-4.56c-1.98-2.06-0.17-3.81,0.43-5.42c1.42-3.79,0.67-6.36-3.32-7.54c-3.55-1.04-7.28-2.07-10.92-2.04
			c-6.76,0.05-13.61,0.3-20.24,1.51c-7.68,1.4-12.61,7.04-16.16,13.65c-2.91,5.42-5.18,11.14-4.72,18.02
			c-2.61,0-5.08,0.22-7.47-0.12c-0.79-0.11-1.95-1.64-1.97-2.54C8.34,62.33,8.43,55.7,8.57,49.07c0.03-1.55,0.32-3.14,0.82-4.6
			c0.19-0.56,1.28-1.11,1.98-1.14c3.14-0.12,6.3-0.14,9.44-0.02c2.51,0.09,3.97-0.99,4.89-3.29c1.66-4.14,3.18-8.39,5.38-12.25
			c1.85-3.23,4.51-6.01,6.93-8.9c1.69-2.02,3.56-3.9,5.4-5.79c0.56-0.58,1.27-1.02,1.97-1.57c1.3,1.82,2.4,3.57,3.73,5.12
			c0.65,0.75,1.68,1.4,2.65,1.62c1.99,0.45,3.35-0.99,2.64-2.91c-0.85-2.3-2.1-4.45-3.29-6.88C62.27,3.23,74.54,1.63,87,0
			c-0.2,2.84-0.39,5.36-0.54,7.89c-0.11,1.84,0.37,3.36,2.53,3.56c1.88,0.18,3.4-1.44,3.54-3.63c0.1-1.65,0.08-3.33,0.44-4.93
			c0.15-0.65,1.24-1.64,1.79-1.57c7.22,0.92,14.38,1.94,20.98,5.45c4.08,2.17,8.4,3.79,11.45,7.58c1.18,1.47,1.45,2.37-0.14,3.61
			c-1.48,1.16-2.81,2.54-4.35,3.96c1.4,1.58,2.52,2.86,3.8,4.3c1.79-1.53,3.4-2.92,5.06-4.34c3.56,1.39,5.37,4.35,6.74,7.56
			c1.62,3.8,3.02,7.7,4.42,11.58c0.76,2.11,2.09,2.93,4.33,2.84c3.39-0.14,6.8-0.14,10.19,0.03c0.81,0.04,2.27,0.94,2.27,1.46
			c0.14,9.31,0.1,18.63,0.1,27.95c-7.43,0-14.81,0-22.6,0c0-1.97,0.01-4.18,0-6.39c-0.04-8.11-3.97-13.44-11.37-16.66
			c-6.23-2.71-12.66-3.61-19.19-2.41c-6.1,1.12-11.95,3.65-15.58,8.91c-1.75,2.53-2.22,6.13-2.68,9.34
			c-0.84,5.77-0.13,11.23,4.65,15.44c1.65,1.45,1.61,3.13-0.05,4.68c-2.35,2.2-4.74,4.37-7.02,6.66c-1.48,1.48-2.8,1.18-4.04-0.12
			C78.76,89.65,75.87,86.51,72.9,83.34z"/>
		<path fill="#fff" d="M85.65,135.01c4.04,0.7,8.1,1.31,12.12,2.12c2.67,0.54,4.28,2.25,5.6,4.75c3.32,6.31,2.43,12.88,0.81,19.1
			c-1.07,4.12-3.47,7.98-8.56,9.71c-5.84,1.99-11.49,3.86-17.59,2.25c-2.46-0.65-5.04-1.79-6.92-3.44
			c-4.73-4.16-8.16-9.21-9.18-15.69c-1.22-7.75,0.28-11.27,7.45-16.15c3.44-2.34,7.48-1.39,11.21-2.05c1.61-0.29,3.3-0.05,4.96-0.05
			C85.58,135.37,85.62,135.19,85.65,135.01z M86.61,152.04c-0.2-2.89-0.23-5.47-0.66-7.99c-0.13-0.76-1.37-1.34-2.1-2
			c-0.65,0.72-1.81,1.4-1.88,2.17c-0.46,5.6-0.73,11.21-0.99,16.82c-0.08,1.63,0.8,2.79,2.48,2.82c1.68,0.03,2.48-1.09,2.58-2.73
			C86.23,157.99,86.43,154.86,86.61,152.04z M91.86,155.55c-0.08,3.72,0.63,5.12,2.3,5.28c1.97,0.18,2.97-1.11,3.17-2.79
			c0.37-3.03,0.65-6.09,0.55-9.13c-0.03-0.94-1.36-2.48-2.21-2.55c-0.86-0.07-2.41,1.17-2.66,2.1
			C92.31,151.07,92.11,153.82,91.86,155.55z M75.32,151.86c-0.07-1.57,0.1-2.95-0.26-4.19c-0.33-1.14-1.21-2.13-1.85-3.18
			c-1.04,1.03-2.78,1.95-2.98,3.12c-0.46,2.72-0.4,5.6-0.08,8.36c0.1,0.91,1.55,2.17,2.53,2.31c0.68,0.1,1.98-1.3,2.31-2.27
			C75.45,154.66,75.25,153.09,75.32,151.86z"/>
		<path fill="#fff" d="M32.78,125.86c4.04,0.2,7.89,0.38,12.05,0.58c-3.91,21.04-5.52,42.22-11.03,63.49c-3.08-1.76-5.97-3.35-8.79-5.05
			c-1.83-1.11-3.55-2.41-5.35-3.56c-2.11-1.35-2.63-2.7-1.5-4.97c6.57-13.19,10.15-27.38,13.84-41.53c0.37-1.43,0.62-2.92,0.76-4.39
			C32.88,129.04,32.78,127.63,32.78,125.86z"/>
		<path fill="#fff" d="M149.52,180.92c-4.33,2.26-8.91,4.65-13.85,7.24c-4.48-21.52-8.9-42.77-13.37-64.28c4.37,0.53,8.6,1.01,12.81,1.62
			c0.4,0.06,0.86,0.9,0.97,1.45c2.28,11.5,4.21,23.08,6.87,34.49C144.44,167.81,147.11,173.92,149.52,180.92z"/>
		<path fill="#fff" d="M167.51,164.51c-3.24,6.1-7.98,10.28-14.26,13.24c-4.31-8.07-6.48-16.7-8.21-25.53c-1.72-8.75-3.8-17.43-5.79-26.45
			c2.64,0,5.04-0.11,7.4,0.08c0.56,0.05,1.35,1.04,1.5,1.72c0.93,4.19,1.71,8.42,2.53,12.64c1.61,8.36,6.02,15.13,12.05,20.93
			C164.07,162.44,165.8,163.33,167.51,164.51z"/>
		<path fill="#fff" d="M20.8,123.37c2.78,0.56,5.42,1.1,8.01,1.62c0.71,9.93-11.68,46.48-16.2,48.23c-0.23,1.05-0.45,2.05-0.84,3.83
			c-3.99-3.72-7.55-7-11.06-10.35c-0.93-0.88-1.07-1.84,0.3-2.57c8.32-4.4,12.23-12,14.74-20.55c1.65-5.63,3.13-11.31,4.64-16.98
			C20.64,125.68,20.64,124.68,20.8,123.37z"/>
		<path fill="#fff" d="M100.03,131.22c-11.43-1.14-22.75-2.47-34.08,1.19c3.23-4.81,6.39-9.5,10.98-12.98c1.19-0.9,2.43-1.73,3.61-2.63
			c2.72-2.07,4.21-2.14,6.61,0.33c4.25,4.39,8.34,8.95,12.48,13.44C99.85,130.81,99.97,131.12,100.03,131.22z"/>
		<path fill="#fff" d="M44.5,70.06c0.62-5.36,8-9.78,12.68-7.38c1.7,0.87,3.71,1.83,4.67,3.33c3.11,4.88-0.74,12.54-6.67,12.73
			c-2.81,0.09-6.4-0.35-8.33-3.26C45.77,73.88,45.26,71.88,44.5,70.06z"/>
		<path fill="#fff" d="M103.5,69.48c-0.91-4.92,5.82-9.12,10.42-9.14c4.86-0.02,8.74,5.23,8.57,11.17c-0.11,3.81-4.92,7.13-10.2,7.03
			C107.2,78.44,103.4,74.54,103.5,69.48z M116.9,70.89c-0.07-3.28-2.27-5.95-4.82-5.86c-1.65,0.06-3.36,1.93-3.37,3.68
			c0,2.43,2.62,5.45,4.7,5.41C115.72,74.07,116.94,72.94,116.9,70.89z"/>
	</g>
</g>
</svg>
