<!-- Generator: Adobe Illustrator 24.1.0, SVG Export Plug-In  -->
<svg version="1.1" xmlns="http://www.w3.org/2000/svg" xmlns:xlink="http://www.w3.org/1999/xlink" x="0px" y="0px"
	 width="196.74px" height="244.78px" viewBox="0 0 196.74 244.78" style="enable-background:new 0 0 196.74 244.78;"
	 xml:space="preserve">
<defs>
</defs>
<g>
	<g>
		<path fill="#fff" d="M106.91,244.78c-0.16,0-0.31,0-0.47,0c-3.84-0.84-4.36-3.61-4.4-6.99c-0.03-2.6-0.7-5.2-1.11-7.8
			c-0.36-2.31-1.86-3.97-3.7-3.69c-2.09,0.32-2.22,2.14-2.51,3.89c-0.47,2.81-0.94,5.66-1.88,8.33c-1.29,3.66-1.9,3.85-5.8,3.74
			c-0.85-0.02-1.71,0.03-2.56-0.02c-2.84-0.16-4.81-1.85-5.11-4.69c-0.35-3.26-1.34-6.19-3.66-8.56c-0.56-0.57-1.29-0.98-1.94-1.46
			c-0.44,0.84-1.17,1.64-1.27,2.52c-0.19,1.6,0.28,3.32-0.09,4.86c-0.31,1.27-1.24,3.1-2.23,3.35c-1.43,0.36-3.39,0.11-4.19-1.97
			c-0.83-2.16-1.79-4.27-2.84-6.33c-0.53-1.04-1.21-2.36-2.15-2.72c-0.59-0.23-1.72,1.18-2.72,1.64c-1.17,0.54-2.43,1.05-3.68,1.1
			c-0.38,0.01-1.1-1.53-1.17-2.41c-0.24-2.85,0.35-5.91-0.48-8.54c-1.37-4.34-1.13-8.52-0.54-12.84c0.51-3.75,0.38-7.38-1.74-10.77
			c-0.65-1.05-0.89-2.52-0.86-3.78c0.06-2.4-0.91-4.14-2.62-5.67c-1.44-1.29-2.84-2.65-4.09-4.12c-2.34-2.75-3.75-2.89-6.55-0.4
			c-1.39,1.24-2.65,2.64-4.13,3.74c-2.73,2.01-5.37,3.4-9.27,0.43c-1.74-1.32-3.12-3.09-4.69-4.63c-2.54-2.48-5.31-4.76-7.62-7.43
			c-4.47-5.15-5.78-11.52-6.25-18.11c-0.34-4.79-0.55-9.6-1.01-14.38c-0.15-1.56-0.54-3.32-1.43-4.56
			c-3.01-4.18-2.97-9.7,0.89-13.21c4.07-3.7,5.13-8.46,5.8-13.49c0.09-0.67-0.01-1.39-0.14-2.07c-1.36-6.97-3.2-13.88-4-20.92
			c-0.72-6.36-0.34-12.87,1.54-19.1c1.36-4.5,2.94-8.94,4.5-13.38c1.07-3.06,1.93-6.26,3.48-9.06C16.55,41.04,19.32,37,22.08,33
			c2.23-3.23,4.8-6.22,7.11-9.41c3.5-4.84,8.09-8.4,13.56-10.5c6.4-2.46,12.94-4.64,19.57-6.4c6.62-1.76,13.43-2.85,20.14-4.26
			c1.51-0.32,2.96-0.87,4.47-1.17c2.55-0.5,5.14-1.32,7.68-1.25c10.67,0.3,21.35,0.74,32,1.43c3.03,0.2,6.15,1.04,8.95,2.25
			c5.44,2.36,10.6,5.36,16.01,7.79c6.26,2.81,12.36,5.87,16.76,11.26c3.01,3.68,5.9,7.61,7.98,11.85c1.88,3.83,2.59,8.24,3.83,12.39
			c0.4,1.33,0.78,2.68,1.26,3.98c2.41,6.51,5.55,12.86,7.11,19.57c2.17,9.32,3.29,18.94,1.75,28.54
			c-1.07,6.71,0.07,13.46-0.68,20.13c-0.98,8.76,1.64,16.87,3.85,25.08c0.22,0.81,0.55,1.68,1.09,2.29c2.37,2.65,2.61,5.63,1.7,8.89
			c-0.29,1.04-0.31,2.15-0.58,3.2c-1.2,4.65-3.42,8.46-8.45,9.85c-0.81,0.23-1.73,0.47-2.33,1c-3.86,3.42-7.65,6.93-11.47,10.4
			c-1.43,1.3-2.81,2.68-4.36,3.81c-2.1,1.54-4.92,1.1-7.51-0.94c-3.44-2.7-6.34-1.72-7.78,2.36c-1.48,4.22-3.48,8.27-4.86,12.51
			c-1.71,5.27-4.01,10.42-3.87,16.17c0.08,3.48-0.03,6.97-0.2,10.46c-0.1,2.1-3.16,5.64-5.11,5.78c-2.36,0.18-2.54-2.05-3.33-3.55
			c-0.11-0.21-0.18-0.5-0.35-0.59c-1.02-0.49-2.05-1.18-3.11-1.26c-0.35-0.03-1,1.51-1.2,2.4c-0.23,1.04-0.22,2.17-0.14,3.24
			c0.27,3.85-1.54,6.8-4.39,8.99c-0.89,0.69-2.76,0.37-4.08,0.05c-0.36-0.09-0.52-1.82-0.45-2.78c0.25-3.07,0.85-6.12,0.93-9.19
			c0.06-2.27-1.45-3.53-3.54-3.27c-1.8,0.22-1.83,1.79-1.99,3.18c-0.13,1.07-0.16,2.2-0.53,3.2c-1.38,3.67-2.68,7.41-4.46,10.88
			c-0.66,1.29-2.55,2-3.96,2.84C108.49,244.57,107.65,244.6,106.91,244.78z M66.09,72.03c-0.8,1.08-1.21,1.83-1.8,2.41
			c-3.3,3.24-6.7,6.38-9.94,9.67c-2.16,2.2-4.96,3.98-5.02,7.67c-0.11,6.51-0.53,13.02-0.57,19.53c-0.02,3.74,2.03,5.33,6.1,5.33
			c2.17,0,4.35-0.2,6.5,0.03c5.75,0.62,11.47,1.88,17.22,2.05c9.9,0.29,19.83,0.01,29.74-0.17c8.58-0.16,17.15-0.54,25.73-0.76
			c3.25-0.08,6.51,0.08,9.76,0.02c2.61-0.04,3.55-1.04,3.66-3.65c0.1-2.17,0.21-4.33,0.25-6.5c0.1-4.79,0.24-9.57,0.16-14.36
			c-0.02-1.02-0.77-2.17-1.48-3c-4.01-4.7-8.1-9.34-12.18-13.98c-1.16-1.32-2.37-2.59-4.07-4.44c1.66-0.68,2.89-1.55,4.17-1.65
			c3.24-0.25,6.5-0.25,9.75-0.17c2.04,0.05,3.2-0.89,3.29-2.76c0.18-3.92,0.28-7.87,0.09-11.79c-0.1-2.03-1.35-3.15-3.76-3.1
			c-7.67,0.13-15.34,0.05-23.01-0.09c-0.88-0.02-2.08-0.75-2.51-1.5c-0.33-0.58,0.05-1.93,0.57-2.57c1.7-2.1,3.57-4.07,5.45-6.01
			c2.17-2.25,4.64-3.62,8-3.47c4.17,0.2,8.37,0.05,12.53-0.27c0.99-0.08,2.62-1.35,2.7-2.2c0.36-3.61,0.32-7.26,0.3-10.9
			c-0.01-2.13-1.19-3.24-3.36-3.3c-7.9-0.24-15.8-0.51-23.7-0.72c-0.65-0.02-1.46,0.19-1.93,0.61c-2.66,2.34-5.28,4.73-7.83,7.19
			c-3.44,3.32-6.75,6.78-10.23,10.06c-1.65,1.55-3.69,1.35-5.32-0.11c-1.71-1.53-3.55-2.94-5.2-4.54
			c-3.53-3.42-7.38-6.64-10.32-10.52c-1.85-2.44-3.8-3.25-6.41-3.17c-6.81,0.23-13.61,0.66-20.41,0.91
			c-2.26,0.08-3.93,0.98-4.12,3.23c-0.31,3.9-0.52,7.85-0.21,11.74c0.09,1.16,1.97,2.97,3.2,3.11c3.97,0.46,8.03,0.5,12.04,0.3
			c3.63-0.18,6.65,0.38,8.91,3.59c1.13,1.61,2.72,2.93,4.22,4.24c1.81,1.58,1.84,2.81-0.41,3.75c-1.96,0.82-4.16,1.58-6.23,1.53
			c-5.79-0.13-11.59-0.57-17.35-1.15c-2.3-0.23-3.54,0.67-3.88,2.61c-0.41,2.34-0.38,4.75-0.5,7.14c-0.23,4.72,3.44,9.45,8.66,8.97
			c1.84-0.17,3.73-0.1,5.57,0.07C63.89,71.05,64.82,71.58,66.09,72.03z M53.46,162.52c4.23-0.27,7.48-0.64,10.72-0.62
			c3.46,0.02,6.3-1.44,9.07-3.15c2.09-1.29,4.17-2.65,6.04-4.24c4.62-3.91,4.48-8.84-0.54-12.43c-2.47-1.76-5.33-3.08-8.16-4.21
			c-6.66-2.66-13.25-5.72-20.16-7.42c-6.03-1.49-12.35-1.74-18.12-4.51c-1.87-0.9-4.4,0.43-5.54,2.24c-0.7,1.11-1.43,2.22-2.3,3.18
			c-2.07,2.26-2.47,4.82-1.29,7.52c2.38,5.45,5.17,10.63,9.3,15.05c3.91,4.19,8.31,7.38,14.09,8.17
			C49.16,162.46,51.81,162.43,53.46,162.52z M136.12,162.1c1.31-0.13,2.64-0.14,3.91-0.42c5.05-1.12,10.15-2.09,15.1-3.58
			c2.9-0.87,5.83-2.22,8.21-4.04c2.19-1.68,3.86-4.16,5.41-6.52c1.88-2.86,5.19-4.97,5.34-8.76c0.11-2.74-0.11-5.53-0.55-8.24
			c-0.67-4.1-1.99-4.9-6.08-4.21c-5.26,0.89-10.53,1.73-15.76,2.74c-6.14,1.19-12.27,2.45-18.36,3.86
			c-1.91,0.44-3.66,2.01-5.53,2.13c-4.11,0.25-7.62,1.35-10.79,4.08c-2.01,1.73-2.43,3.67-0.8,5.81c0.89,1.17,1.38,2.66,1.97,4.04
			c0.33,0.77,0.34,1.71,0.77,2.42C122.87,157.84,128.7,161.22,136.12,162.1z M102.48,202.08c3.11-0.76,6.87-1.4,10.42-2.63
			c2.83-0.98,3.26-2.82,1.61-5.2c-1.8-2.59-3.09-5.32-3.72-8.41c-0.24-1.18-0.89-2.3-1.46-3.38c-1.97-3.75-4.07-7.37-3.92-11.9
			c0.09-2.76-0.49-5.55-0.81-8.32c-0.17-1.51-0.73-2.59-2.56-2.72c-1.8-0.14-3.06,0.29-3.49,2.17c-0.52,2.26-1.09,4.51-1.51,6.79
			c-0.67,3.68-2.05,6.97-3.9,10.29c-2.61,4.68-4.44,9.84-6.24,14.92c-0.82,2.31,0.38,4.36,2.88,4.59c3.39,0.32,6.01,2.28,9.08,3.17
			C99.82,201.71,100.82,201.79,102.48,202.08z"/>
		<path fill="#fff" d="M120.78,92.52c-2.16,0.35-3.72,0.82-5.28,0.81c-5.27-0.02-10.53-0.29-15.8-0.32c-5.96-0.04-11.92,0.07-17.87,0.1
			c-1.01,0.01-2.04,0.11-3.01-0.08c-0.9-0.18-2.45-0.66-2.47-1.06c-0.06-1.29,0.05-2.95,0.82-3.87c2.66-3.18,5.61-6.1,8.46-9.12
			c3.27-3.46,6.51-6.95,9.87-10.31c0.5-0.5,1.68-0.66,2.44-0.5c0.85,0.18,1.71,0.79,2.34,1.43c5.78,5.83,11.55,11.66,17.2,17.61
			C118.71,88.51,119.43,90.3,120.78,92.52z"/>
	</g>
</g>
</svg>
