<!-- Generator: Adobe Illustrator 23.0.4, SVG Export Plug-In  -->
<svg version="1.1" xmlns="http://www.w3.org/2000/svg" xmlns:xlink="http://www.w3.org/1999/xlink" x="0px" y="0px"
     width="216.72px" height="229.23px" viewBox="0 0 216.72 229.23" style="enable-background:new 0 0 216.72 229.23;"
     xml:space="preserve">
<defs>
</defs>
<g id="bLoCzg_2_">
    <g>
        <path fill="#fff" d="M97.68,229.23c-1.1-0.23-2.2-0.48-3.32-0.68c-0.67-0.12-1.36-0.11-2.02-0.22c-1.21-0.21-1.47-0.7-1.19-1.96
            c0.22-1.01,0.41-2.03,0.55-3.05c0.11-0.79-0.3-1.39-1.08-1.47c-1.29-0.13-1.72-0.84-1.56-2.12c-0.4-0.03-0.73-0.06-1.13-0.09
            c-0.09,0.41-0.21,0.75-0.22,1.1c-0.01,0.77-0.44,0.99-1.14,1.08c-2.6,0.32-3.03,0.13-2.83-2.48c0.18-2.52,0.85-5.02,1.35-7.51
            c0.25-1.25,0.77-2.47,0.88-3.72c0.19-2.24,1.71-3.44,3.38-4.38c0.93-0.52,2.27-0.8,3.3-0.57c2.86,0.62,5.69,0.75,8.56,0.28
            c2.09-0.34,4.16-0.79,6.26-1.01c1.54-0.16,3.11-0.09,4.66-0.01c0.34,0.02,0.78,0.49,0.96,0.86c0.84,1.71,0.87,3.54,0.67,5.4
            c-0.39,3.69-0.76,7.39-1.21,11.07c-0.08,0.64-0.39,1.62-0.82,1.77c-0.85,0.29-1.8,0.03-2.32-0.97c-0.38-0.74-0.81-0.74-1.33-0.03
            c-0.21,0.29-0.73,0.59-1.05,0.53c-1.04-0.18-2.06-0.48-3.06-0.82c-0.61-0.21-0.83,0-1.25,0.45c-1.41,1.51-1.35,3.26-1.24,5.11
            c0.09,1.34-0.54,2.38-1.85,2.93c-0.28,0.12-0.5,0.35-0.75,0.53C98.48,229.23,98.08,229.23,97.68,229.23z"/>
        <path fill="#fff" d="M0,120.51c0.15-0.36,0.37-0.7,0.43-1.08c0.13-0.79,0.27-1.54,1.28-1.59c0.97-0.05,1.66,0.4,1.83,1.36
            c0.19,1.12,0.84,1.21,1.93,0.91c-0.19-1.52-0.29-3.06-0.57-4.56c-0.6-3.17,0.74-4.94,3.93-4.88c4.15,0.09,8.3,0.27,12.45,0.45
            c1.61,0.07,2.03,0.79,1.38,2.3c-0.49,1.13-1.02,2.25-1.56,3.36c-0.45,0.91-0.55,1.77-0.12,2.75c0.31,0.71,0.23,1.6,0.59,2.28
            c0.29,0.55,0.9,1.11,1.48,1.29c1.04,0.3,1.67,0.86,2,1.84c0.88,2.58,0.12,4.29-2.47,4.95c-4.18,1.06-8.32,2.17-12.33,3.78
            c-1.88,0.76-3.09-0.05-3.66-2.03c-0.36-1.25-0.81-2.47-1.22-3.7c-1.31,0.14-1.69,0.98-1.72,1.85c-0.05,1.3-0.68,1.63-1.84,1.56
            c-1.24-0.07-1.35-0.86-1.36-1.82c-0.03-1.52-0.09-3.04-0.17-4.55c-0.02-0.38-0.17-0.75-0.27-1.13C0,122.75,0,121.63,0,120.51z
             M18.4,111.64c-0.19,0-0.37-0.01-0.56-0.01c-0.15,0.54-0.3,1.09-0.45,1.63c0.44-0.01,0.89-0.02,1.33-0.03
            C18.61,112.69,18.51,112.17,18.4,111.64z"/>
        <path fill="#fff" d="M216.72,109.95c-1.39,0.08-2.79,0.12-4.17,0.28c-0.31,0.04-0.66,0.48-0.82,0.81c-0.2,0.42-0.17,0.94-0.31,1.39
            c-0.28,0.91-0.56,1.25-1.83,1.05c-3.12-0.51-6.33-0.53-9.5-0.73c-0.43-0.03-0.87,0.08-1.31,0.09c-1.85,0.01-2.86-1.04-2.39-2.82
            c0.57-2.21,0.3-4.35,0-6.53c-0.21-1.48,0.29-2.28,1.6-2.98c2.1-1.12,4.24-2.03,6.65-2.14c0.41-0.02,0.96,0.01,1.22,0.25
            c0.86,0.81,1.76,0.65,2.67,0.27c2.37-0.98,3.9-0.02,4.16,2.64c0.03,0.35,0.04,0.71,0.06,1.14c0.35,0.02,0.65,0.04,0.96,0.05
            c1.57,0.03,2.35,0.72,2.55,2.26c0.16,1.18,0.32,2.36,0.49,3.54C216.72,108.99,216.72,109.47,216.72,109.95z"/>
        <path fill="#fff" d="M109.91,0c4.73,4.97,10.17,8.97,14.52,14.15c2.63,3.13,5.97,5.66,8.86,8.59c5.53,5.6,10.98,11.29,16.46,16.94
            c0.72,0.75,1.47,1.47,2.16,2.25c1.26,1.42,1.33,2.48,0.16,3.96c-2.43,3.08-3.69,6.53-3.83,10.49c-0.3,8.55-0.63,17.09-1.14,25.63
            c-0.41,6.82-1.09,13.62-1.7,20.43c-0.06,0.69-0.48,1.34-0.71,2.01c-0.17,0.51-0.22,1.09-0.48,1.55c-0.29,0.51-0.67,1.1-1.16,1.34
            c-3.84,1.87-7.73,3.64-11.58,5.48c-1.47,0.71-2.89,1.53-4.34,2.28c-1.3,0.68-1.95,0.37-1.92-1.09c0.11-6.35,0.13-12.71,0.48-19.05
            c0.27-4.74,0.78-9.49,1.62-14.16c0.45-2.53,0.2-4.51-1.34-6.57c-2.58-3.45-4.97-7.05-7.42-10.6c-1.83-2.66-3.62-5.35-5.44-8.02
            c-0.29-0.42-0.61-0.86-1.01-1.17c-1.27-1.01-2.05-0.87-2.83,0.53c-5.02,9-10.03,18-15.02,27.02c-0.26,0.46-0.38,1.05-0.41,1.59
            c-0.3,5.83-0.64,11.66-0.82,17.49c-0.07,2.18,0.32,4.37,0.38,6.55c0.06,2.11,0.09,4.24-0.82,6.24c-0.71,1.57-1.68,1.98-3.25,1.23
            c-0.9-0.43-1.75-0.97-2.67-1.36c-3.01-1.26-6.03-2.52-9.08-3.68c-0.83-0.32-1.8-0.36-2.7-0.38c-1.61-0.03-2.53-0.83-2.64-2.45
            c-0.01-0.16-0.01-0.32-0.01-0.48c-0.14-9.35-0.15-18.71-0.48-28.05c-0.19-5.34-0.78-10.67-1.42-15.98
            c-0.49-4.12-1.37-8.18-2.02-12.28c-0.52-3.24-2.12-6-3.74-8.76c-1.09-1.85-1.07-2.43,0.57-3.77c6.24-5.12,12.51-10.2,18.78-15.29
            c7.27-5.9,14.07-12.33,20.84-18.79C106.24,2.37,108.11,1.31,109.91,0z M132.55,107.33c1.63,0.02,1.43-1.47,2.06-2.33
            C132.92,104.72,132.07,105.72,132.55,107.33z M147.8,45.73c0.47-0.61,0.88-0.95,0.99-1.36c0.06-0.23-0.37-0.59-0.58-0.89
            c-0.34,0.38-0.74,0.73-0.98,1.17C147.15,44.8,147.49,45.17,147.8,45.73z M105.27,38.52c0.42-0.4,0.84-0.81,1.26-1.21
            c-0.27-0.24-0.57-0.7-0.81-0.67C104.83,36.76,104.77,37.43,105.27,38.52z"/>
        <path fill="#fff" d="M52.37,126.56c-0.22-2.94-0.44-6.13-0.71-9.31c-0.44-5.26-0.98-10.51-1.35-15.77c-0.3-4.23-0.3-8.47-0.64-12.69
            c-0.42-5.1-1-10.18-1.62-15.26c-0.26-2.15,0.08-4.06,1.49-5.72c3.47-4.08,6.94-8.17,10.46-12.21c0.36-0.42,1.28-0.89,1.56-0.71
            c0.48,0.29,0.84,1.05,0.92,1.66c1.45,12.05,1.15,24.19,1.89,36.27c0.12,2.03,0.58,4.04,0.66,6.07c0.12,3.19,0.05,6.39,0.06,9.59
            c0.01,1.6,0.06,2.23,1.99,2.79c4.86,1.42,9.61,3.2,14.43,4.78c4.85,1.59,9.72,3.11,14.84,4.75c0.12-1.33,0.32-2.62,0.35-3.91
            c0.09-5.16,0.06-10.32,0.18-15.47c0.11-4.47,0.56-8.94,0.47-13.41c-0.05-2.68,1.01-4.76,2.23-6.91c3.68-6.5,7.35-13,11.02-19.5
            c0.2-0.35,0.42-0.67,0.68-1.09c1.6,0.72,2.86,1.75,3.68,3.29c2.03,3.81,4.16,7.56,6.03,11.45c1.08,2.25,1.9,4.67,2.49,7.09
            c0.35,1.46,0.29,3.13-0.03,4.61c-0.68,3.15-1.02,6.29-0.99,9.51c0.05,5.08,0.05,10.16-0.04,15.24c-0.04,2.27-0.41,4.53-0.59,6.79
            c-0.12,1.54-0.19,3.09-0.29,4.83c0.63-0.08,1.06-0.05,1.43-0.2c8.84-3.49,17.65-7.05,26.51-10.46c1.96-0.75,2.61-1.86,2.65-3.9
            c0.27-12.96,0.62-25.91,1.01-38.86c0.15-4.96,0.43-9.91,0.69-14.86c0.09-1.67,0.83-2.4,2.3-2.2c0.49,0.07,1.09,0.47,1.36,0.9
            c3.11,4.99,6.49,9.78,10.4,14.17c0.67,0.75,0.97,1.52,0.89,2.5c-0.26,3.02-0.35,6.06-0.77,9.06c-0.95,6.86-0.31,13.74-0.51,20.6
            c-0.17,5.92-0.11,11.85-0.57,17.74c-0.14,1.87-0.6,4.16-2.77,5.29c-2.19,1.14-4.26,2.51-6.5,3.54c-5.22,2.4-10.47,4.75-15.79,6.93
            c-4.91,2.01-9.94,3.72-14.88,5.64c-1.97,0.76-3.81,1.85-5.77,2.62c-3,1.19-6.04,2.29-9.11,3.29c-0.73,0.24-1.71,0.1-2.46-0.18
            c-5.53-2.08-11.11-4.06-16.52-6.42c-8.16-3.55-16.67-5.93-25.2-8.29c-2.96-0.82-6.01-1.32-9.02-1.92
            c-0.62-0.13-1.27-0.07-1.91-0.14c-0.43-0.04-0.88-0.08-1.28-0.23C54.68,127.56,53.66,127.1,52.37,126.56z"/>
        <path fill="#fff" d="M114.46,189.33c-0.78,0-1.45,0-2.28,0c0.16-2.5,0.33-4.95,0.48-7.4c0.05-0.84,0.1-1.68,0.05-2.51
            c-0.02-0.29-0.37-0.81-0.5-0.79c-0.34,0.05-0.79,0.28-0.92,0.56c-0.22,0.49-0.3,1.07-0.33,1.62c-0.14,2.15-0.18,4.32-0.38,6.47
            c-0.06,0.66-0.36,1.42-0.8,1.88c-0.33,0.34-1.15,0.48-1.62,0.32c-0.34-0.11-0.63-0.86-0.65-1.33c-0.06-2.44,0-4.88-0.06-7.32
            c-0.01-0.45-0.29-1.25-0.54-1.28c-0.87-0.13-1.14,0.57-1.15,1.32c-0.03,1.72-0.02,3.44-0.03,5.16c-0.01,0.92,0,1.84-0.03,2.76
            c-0.02,0.83-0.26,1.52-1.26,1.57c-1.02,0.04-2.07,0.09-2.51-1.11c-0.15-0.4-0.19-0.86-0.19-1.29c-0.02-2.28,0.01-4.56-0.02-6.84
            c-0.02-1.63-0.47-1.93-1.93-1.51c0.07,3.11,0.13,6.17,0.19,9.23c0.01,0.4,0.12,0.87-0.05,1.18c-0.25,0.47-0.7,0.83-1.07,1.23
            c-0.32-0.35-0.83-0.65-0.92-1.05c-0.62-2.72-1.13-5.47-1.73-8.2c-0.15-0.68-0.43-1.37-0.81-1.94c-0.22-0.33-0.77-0.44-1.17-0.65
            c-0.14,0.42-0.43,0.86-0.38,1.26c0.11,1.03,0.34,2.05,0.57,3.06c0.61,2.64,1.24,5.28,1.86,7.92c0.04,0.18,0.01,0.37,0.01,0.72
            c-1.55-1.11-2.54-2.51-3.07-4.13c-0.92-2.84-1.67-5.73-2.5-8.6c-0.25-0.87-0.12-1.62,0.5-2.33c0.79-0.91,1.01-1.98,0.63-3.14
            c-0.85-2.58-1.63-5.18-2.59-7.72c-0.43-1.13-1.2-2.13-1.81-3.19c-0.43-0.74-0.85-1.5-1.3-2.23c-0.2-0.34-0.39-0.71-0.69-0.95
            c-1.63-1.35-4.51-1.28-6.08,0.11c-1.11,0.98-2.53,1.08-3.59,0.08c-2.32-2.2-4.6-4.44-6.82-6.74c-0.43-0.45-0.66-1.27-0.65-1.92
            c0.02-2.36,0.09-4.72,0.32-7.07c0.23-2.3,0.69-4.57,1.03-6.86c0.12-0.83,0.14-1.68,0.29-2.5c0.28-1.45,1.28-2.03,2.65-1.48
            c1.87,0.75,3.9,1.22,5.38,2.76c-0.06,0.15-0.07,0.29-0.14,0.36c-2.62,2.71-2.76,6.4-0.23,9.22c0.56,0.62,1.37,1.19,2.16,1.4
            c3.08,0.83,6.17,1.65,9.31,2.2c2.39,0.43,4.84,0.52,7.27,0.64c2.18,0.11,3.85-1.24,5.48-2.42c0.44-0.31,0.32-1.4,0.46-2.13
            c2.08-0.13,4.01,0.45,5.95,1.27c0.88,0.37,2.03,0.38,3.01,0.22c1.41-0.24,2.76-0.8,4.14-1.2c1.45-0.42,2.05-0.14,2.66,1.21
            c0.9,1.97,2.32,2.56,4.4,1.85c0.33-0.11,0.71-0.25,1.04-0.21c4.27,0.46,8.32-0.8,12.44-1.53c1.61-0.29,3.23-0.57,4.81-0.98
            c0.48-0.12,1.04-0.6,1.23-1.05c0.94-2.21,1.13-4.56,1.06-6.94c-0.01-0.31-0.05-0.69-0.24-0.9c-0.82-0.96-0.36-1.46,0.56-1.89
            c1.8-0.85,3.58-1.74,5.38-2.58c0.73-0.33,1.23-0.08,1.38,0.87c-1.17,0.3-1.21,1.28-1.21,2.26c0.01,4.58-0.66,9.07-1.52,13.56
            c-0.36,1.89-1.24,3.05-3.02,3.78c-0.94,0.39-1.75,1.23-2.47,2.01c-0.92,0.99-1.7,2.12-2.53,3.19c-1.39,1.78-3.06,2.03-4.89,0.69
            c-0.77-0.57-1.49-1.2-2.22-1.83c-0.95-0.81-1.82-0.7-2.95-0.18c-4.87,2.22-6.44,6.58-7.58,11.26c-0.32,1.32-0.6,2.64-0.93,3.95
            c-0.21,0.82-0.07,1.47,0.85,1.64c1.54,0.29,1.6,1.56,0.95,2.57c-1.25,1.97-1.97,4.04-2.04,6.4c-0.05,1.61-0.47,3.2-0.76,4.8
            c-0.39,2.23-2.16,3.3-3.98,4.43c0.13-0.72,0.27-1.43,0.37-2.16c0.25-1.73,0.47-3.47,0.71-5.21c0.27-1.97,0.59-3.94,0.79-5.92
            c0.05-0.48-0.18-1.27-0.52-1.44c-0.71-0.36-0.94,0.37-1.04,0.92c-0.49,2.83-0.95,5.66-1.41,8.5
            C114.61,187.79,114.56,188.5,114.46,189.33z M113.07,164.87c0.05-1.21,0.15-2.11,0.12-3.01c-0.08-2.43-0.23-4.86-0.34-7.29
            c-0.06-1.33-1.37-2.66-2.91-2.9c-1.5-0.23-2.88,0.54-3.33,1.92c-0.24,0.76-0.34,1.56-0.56,2.32c-0.53,1.87-1.04,3.76-1.67,5.6
            c-0.22,0.63-1.17,1.22-1.08,1.7c0.11,0.58,0.97,1.02,1.48,1.54c1.13,1.12,1.54,1.14,2.76-0.02c0.92-0.88,1.91-1.02,3.07-0.56
            C111.32,164.44,112.05,164.58,113.07,164.87z M96.15,166.44c-0.16-0.95-0.18-1.6-0.39-2.18c-0.1-0.27-0.61-0.62-0.84-0.56
            c-0.27,0.08-0.59,0.53-0.61,0.84c-0.04,0.54,0.07,1.12,0.23,1.64c0.19,0.59-0.23,1.68,0.89,1.57
            C95.75,167.72,95.98,166.77,96.15,166.44z"/>
        <path fill="#fff" d="M37.26,195.46c-1.27-1.96-2.43-3.76-3.8-5.87c0.25-0.38,0.63-1.17,1.2-1.78c3.73-3.96,7.49-7.88,11.25-11.79
            c1.74-1.81,4.66-1.6,5.98,0.52c0.7,1.12,1.05,2.45,1.58,3.68c0.12,0.28,0.26,0.57,0.46,0.79c0.5,0.57,1.08,1.07,1.54,1.67
            c0.92,1.2,2,1.7,3.59,1.64c2.76-0.11,4.58,3.07,3.19,5.47c-0.78,1.34-1.32,2.95-3.04,3.54c-0.3,0.1-0.54,0.48-0.72,0.78
            c-1.91,3.17-3.81,6.36-5.71,9.53c-0.39,0.65-0.74,1.33-1.21,1.92c-0.68,0.86-1.54,0.96-2.4,0.27c-1.18-0.95-2.3-1.98-3.46-2.96
            c-1.51-1.26-2.24-1.1-2.9,0.72c-0.34,0.93-0.91,1.49-1.87,1.62c-0.99,0.13-1.74-0.27-2.39-1.06c-1.39-1.68-2.83-3.33-4.31-4.92
            c-0.75-0.81-0.79-1.71-0.61-2.67c0.04-0.19,0.44-0.38,0.71-0.45C35.2,195.88,36.06,195.72,37.26,195.46z"/>
        <path fill="#fff" d="M20,172.98c-0.26-1.62-0.99-2.74-2.03-3.64c-0.84-0.72-0.88-1.51-0.53-2.47c0.5-1.38,1.36-2.48,2.63-3.16
            c4.12-2.21,7.76-5.04,11.12-8.27c0.67-0.64,1.34-0.72,2.18-0.39c2.08,0.82,3.04,2.38,2.76,4.61c-0.18,1.48,1.21,4.31,2.5,5.04
            c0.17,0.1,0.38,0.15,0.57,0.16c3.09,0.19,4.37,2.52,5.58,4.83c0.58,1.11,0.17,2.47-1.09,3.09c-3.78,1.85-5.88,5.44-8.82,8.15
            c-1.54,1.42-3.35,2.55-5.08,3.76c-0.21,0.15-0.68,0.06-0.98-0.05c-1.8-0.62-2.46-2.27-3.39-3.71c-0.26-0.4-0.75-0.66-1.13-0.98
            c-0.27,0.54-0.66,1.04-0.79,1.61c-0.18,0.77-0.11,1.61-0.28,2.38c-0.06,0.26-0.48,0.55-0.79,0.64c-0.41,0.11-0.88-0.01-1.31,0.05
            c-0.85,0.13-1.24-0.22-1.37-1.05c-0.17-1.08-0.42-2.04-1.79-2.32c-0.48-0.1-1.01-0.9-1.16-1.47c-0.46-1.75-1.15-3.31-2.58-4.48
            c-0.72-0.59-0.76-1.18-0.1-1.92c1.34-1.52,2.25-1.76,4.11-0.97C18.75,172.67,19.32,172.78,20,172.98z"/>
        <path fill="#fff" d="M67.35,215.33c-0.49,1.11-0.27,1.84,0.68,2.35c0.87,0.47,1.56,1.03,0.99,2.18c-0.75,1.51-1.78,2.17-3.01,1.68
            c-1.74-0.69-3.43-1.52-5.15-2.28c-0.62-0.27-1.25-0.5-1.91-0.77c-0.41-1.89,0.39-2.99,2.34-2.92c1.25,0.05,1.43-0.86,1.69-1.66
            c0.27-0.84-0.46-1.1-1.05-1.32c-1.42-0.54-2.85-1.02-4.27-1.57c-1.62-0.63-2.13-2.07-1.23-3.57c0.84-1.4,1.75-2.77,2.63-4.15
            c0.08-0.13,0.18-0.35,0.29-0.36c1.64-0.24,1.8-1.67,2.42-2.81c0.9-1.67,2.02-3.22,3.04-4.83c0.19-0.3,0.42-0.6,0.53-0.93
            c0.44-1.27,1.38-2.01,2.54-2.57c1.42-0.69,1.91-0.65,2.92,0.57c1.23,1.49,2.47,3.01,4.35,3.66c1.42,0.49,2.92,0.8,4.41,1
            c1.81,0.25,3.35,1.54,3.8,3.31c0.48,1.89,0.31,3.68-0.28,5.53c-0.9,2.85-1.66,5.75-2.44,8.63c-0.48,1.77-1.08,3.44-2.65,4.56
            c-1.68,1.2-2.74,0.94-4.27-0.41c-1.07-0.95-2.49-1.53-3.79-2.21C69.12,216.01,68.25,215.71,67.35,215.33z"/>
        <path fill="#fff" d="M167.55,204.68c-3.15,1.67-6.23,3.34-9.35,4.94c-0.95,0.49-1.57-0.05-1.98-0.94c-1.03-2.22-2.51-2.53-4.38-0.95
            c-1.27,1.07-2.02,0.81-2.76-0.77c-1-2.12-2.27-4.13-3.14-6.29c-0.83-2.07-1.61-4.25-1.86-6.44c-0.28-2.48,3.03-6.31,6.5-5.28
            c1.23,0.37,2.26,0.16,3.24-0.64c0.43-0.35,0.94-0.6,1.44-0.86c0.93-0.48,1.57-1.13,1.85-2.21c0.18-0.71,0.62-1.39,1.07-1.99
            c1.7-2.3,4.39-2.23,6.04,0.15c0.34,0.49,0.58,1.05,0.89,1.56c1.82,3.09,3.63,6.19,5.49,9.26c0.4,0.66,0.43,1.16-0.24,1.6
            c-1.89,1.25-3.78,2.48-5.67,3.73c-0.33,0.22-0.9,0.57-0.86,0.73c0.12,0.49,0.44,1.25,0.77,1.3
            C166.42,201.86,166.74,203.43,167.55,204.68z"/>
        <path fill="#fff" d="M182.09,190.78c0-1.11,0-2.14,0-3.61c-0.9,0.41-1.67,0.59-2.19,1.05c-1.37,1.22-2.64,2.56-3.93,3.87
            c-0.64,0.65-1.3,1.23-2.3,0.87c-0.96-0.35-0.98-1.25-1.35-2.04c-0.57-1.24-1.63-2.26-2.48-3.38c-0.4-0.53-0.95-1.01-1.16-1.6
            c-0.71-1.99-1.8-3.71-3.23-5.26c-1.23-1.33-1.19-1.48-0.02-2.91c0.51-0.62,1.07-1.19,1.54-1.84c0.88-1.19,2.2-1.57,3.45-2.2
            c2.07-1.04,4.07-2.36,5.77-3.91c0.73-0.67,0.75-2.21,0.91-3.38c0.37-2.72,0.53-2.83,3.16-2.01c3.77,1.17,7.38,2.58,10.21,5.51
            c0.62,0.64,0.82,1.21,0.54,2.02c-0.8,2.3-1.65,4.58-2.35,6.91c-0.2,0.68-0.16,1.59,0.13,2.22c0.5,1.1,0.54,2.02-0.17,3.02
            c-1.27,1.79-2.47,3.63-3.73,5.43C184.16,190.63,183.64,190.84,182.09,190.78z"/>
        <path fill="#fff" d="M138.2,196.53c1.78,1.35,2.85,3.07,3.64,4.97c1.03,2.47,2.04,4.95,3,7.44c0.88,2.28,0.13,3.99-2.14,4.95
            c-0.77,0.32-1.59,0.52-2.39,0.75c-1.81,0.52-2.66,2.09-2.08,3.9c0.36,1.13-0.23,2.17-1.51,2.52c-1.69,0.46-3.4,0.89-5.11,1.3
            c-1.24,0.3-2.6-0.71-2.74-1.98c-0.2-1.71-0.65-1.99-2.28-1.43c-0.57,0.19-1.13,0.41-1.69,0.6c-2.3,0.77-4.58-0.45-5.38-2.75
            c-1.24-3.59-1.72-7.29-1.69-11.07c0.02-3.2,2.54-4.76,5.41-3.32c0.14,0.07,0.31,0.13,0.42,0.23c2.07,1.94,4.12,1.32,6.14-0.06
            c2.4-1.64,4.77-3.34,7.14-5.02C137.34,197.24,137.73,196.9,138.2,196.53z"/>
        <path fill="#fff" d="M25.66,146.24c1.35,0.3,2.66,0.49,3.9,0.88c2.07,0.66,2.71,2.01,1.86,4.01c-1.26,2.98-3.89,4.46-6.76,5.26
            c-2.62,0.73-4.82,2.06-6.96,3.59c-0.91,0.65-1.79,1.29-2.94,0.75c-1.15-0.54-1.28-1.63-1.56-2.76c-0.4-1.6-1.18-3.1-1.83-4.62
            c-0.07-0.15-0.44-0.3-0.61-0.25c-0.22,0.06-0.51,0.31-0.54,0.51c-0.09,0.55-0.05,1.11-0.1,1.67c-0.05,0.66,0.3,1.51-0.82,1.68
            c-1.49,0.23-2.4-0.15-2.69-1.32c-0.53-2.13-0.96-4.28-1.45-6.42c-0.29-1.22-0.2-2.33,0.57-3.4c0.53-0.73,0.86-0.67,1.51-0.18
            c0.96,0.71,2.03,1.27,3.06,1.9c0.15-0.12,0.3-0.24,0.45-0.36c-0.49-1.31-0.88-2.67-1.51-3.9c-1.12-2.21-1.08-2.83,1.02-4.09
            c1.4-0.83,2.91-1.48,4.4-2.15c2.33-1.04,4.68-2.03,7.04-3.01c1.73-0.71,3.36-0.44,4.87,0.64c1.16,0.82,1.44,1.62,1.07,3
            c-0.67,2.48-1.34,4.96-1.97,7.44C25.58,145.48,25.66,145.88,25.66,146.24z"/>
        <path fill="#fff" d="M202.82,153.57c1.28,0.13,2.39,0.15,3.47,0.37c1.09,0.23,1.2,0.62,0.58,1.61c-1.27,2.03-2.54,4.06-3.83,6.08
            c-0.63,0.99-1.52,1.19-2.55,0.61c-1.51-0.86-2.09-0.65-2.89,0.93c-0.54,1.07-1.13,2.11-1.78,3.12c-0.77,1.18-1.15,1.27-2.31,0.52
            c-2.66-1.74-5.28-3.57-7.95-5.29c-0.72-0.47-1.57-0.79-2.4-1.02c-1.05-0.29-1.51-0.73-1.13-1.87c0.17-0.51,0.06-1.1,0.11-1.66
            c0.09-0.95,0.15-1.91,0.33-2.83c0.29-1.46,1.16-2.43,2.54-3.09c0.74-0.35,1.39-1.03,1.89-1.7c0.89-1.22,1.69-2.52,2.41-3.85
            c0.37-0.68,0.53-1.49,0.74-2.25c0.13-0.46,0.14-0.95,0.28-1.41c0.8-2.71,1.62-3.11,4.35-2.48c2.21,0.52,4.45,0.91,6.69,1.3
            c0.86,0.15,1.22,0.56,1.52,1.4c1.22,3.45,0.24,6.87,0.05,10.31C202.91,152.79,202.85,153.22,202.82,153.57z"/>
        <path fill="#fff" d="M50.26,43.88c-0.94,1.11-1.85,2.26-2.82,3.33c-4.08,4.51-8.25,8.93-12.23,13.52c-1.9,2.19-3.44,4.7-5.14,7.07
            c-1.98,2.76-3.98,5.5-5.88,8.32c-0.43,0.63-0.58,1.52-0.66,2.31c-0.08,0.78,0.13,1.59,0.16,2.39c0.04,1.09-0.95,2.34-2.02,2.49
            c-0.31,0.04-0.76-0.08-0.96-0.29c-1.32-1.46-2.86-1.43-4.49-0.73c-1.53,0.66-3.09,0.71-4.7,0.36c-1.53-0.33-2.06-0.84-2.24-2.37
            c-0.09-0.75-0.05-1.52,0.02-2.27c0.09-0.99-0.15-1.75-1.16-2.09c-0.91-0.31-0.93-0.96-0.5-1.61c0.57-0.86,1.27-1.63,1.87-2.47
            c0.9-1.26,1.76-2.54,2.63-3.82c0.13-0.2,0.21-0.43,0.35-0.63c1.26-1.75,1.64-1.72,2.6,0.17c0.27,0.53,0.54,1.06,0.92,1.79
            c0.69-0.51,1.32-0.89,1.86-1.39c7.85-7.31,16.06-14.19,24.78-20.44c1.46-1.05,2.93-2.1,4.48-2.99c0.88-0.51,1.94-0.71,2.92-1.04
            C50.1,43.62,50.18,43.75,50.26,43.88z"/>
        <path fill="#fff" d="M168.78,37.04c0.64,0.29,1.31,0.53,1.91,0.89c5.67,3.3,11.19,6.8,15.96,11.37c2.2,2.11,3.85,4.56,5.31,7.19
            c0.89,1.6,1.85,3.17,2.88,4.69c0.36,0.52,1.04,0.81,1.57,1.21c0.15-0.11,0.3-0.22,0.45-0.33c-0.25-0.71-0.46-1.44-0.77-2.12
            c-0.25-0.57-0.44-1.06,0.34-1.33c0.04-0.01,0.08-0.03,0.1-0.06c0.56-0.68,1.06-1.47,2.15-1.14c1.16,0.35,1.77,1.25,2.31,2.28
            c1.33,2.54,2.69,5.07,4.12,7.55c0.53,0.91,0.48,1.41-0.54,1.82c-1.02,0.41-1.92,0.78-3.08,0.27c-0.46-0.2-1.24,0.32-1.88,0.52
            c0.22,0.48,0.37,1.02,0.68,1.43c0.3,0.4,0.77,0.67,1.32,1.12c-3.26,2.21-6.41,4.35-9.71,6.59c-0.83-2.6-1.68-4.95-2.34-7.35
            c-2.2-8.03-6.99-14.65-11.62-21.35c-2.95-4.27-6.08-8.41-9.13-12.61c-0.09-0.12-0.14-0.26-0.21-0.4
            C168.67,37.19,168.73,37.11,168.78,37.04z"/>
        <path fill="#fff" d="M200.03,115.5c1.44,0.29,3.04,0.63,4.65,0.92c1.1,0.2,2.21,0.36,3.32,0.46c1.12,0.11,1.7,0.66,1.92,1.77
            c0.28,1.43,0.63,2.84,1.06,4.23c0.06,0.19,0.95,0.38,1.03,0.26c0.87-1.19,1.77-0.24,2.42,0.11c0.46,0.25,0.81,1.25,0.72,1.83
            c-0.29,1.77-0.78,3.5-1.26,5.23c-0.31,1.11-0.99,1.4-2.12,1.04c-2.11-0.68-2.45-0.42-2.73,1.81c-0.12,0.98-0.37,1.96-0.67,2.91
            c-0.55,1.76-1.84,2.43-3.6,1.81c-1.2-0.43-2.36-0.98-3.49-1.56c-1.78-0.92-3.59-1.21-5.55-0.63c-1.94,0.57-3.32-0.53-3.27-2.57
            c0.05-1.83,0.14-3.66,0.33-5.48c0.06-0.59,0.44-1.18,0.76-1.71c0.43-0.71,0.97-1.36,1.42-2.07c0.59-0.92,0.49-1.73-0.24-2.61
            c-0.35-0.43-0.5-1.28-0.33-1.81C195.1,117.15,197.48,115.51,200.03,115.5z"/>
        <path fill="#fff" d="M7.33,101.29c-0.72,0.29-1.07,0.52-1.45,0.56c-0.56,0.06-1.27,0.17-1.66-0.1c-0.32-0.22-0.48-1.08-0.31-1.49
            c0.56-1.34,0.32-2.64,0.22-4c-0.1-1.34,0.11-2.7,0.22-4.05c0.06-0.79,0.55-1.4,1.3-1.22c0.54,0.13,1.08,0.71,1.39,1.23
            c0.23,0.39,0.09,1,0.14,1.92c0.5-0.42,0.92-0.61,1.05-0.91c0.42-0.99,0.82-2,1.06-3.05c0.45-1.97,1.86-2.84,3.62-2.93
            c3-0.15,6,0.07,8.71,1.63c1.8,1.04,1.84,1.62,0.57,3.2c-1.74,2.16-1.43,4.59-0.74,7.05c0.37,1.33,0.74,2.68,0.91,4.04
            c0.19,1.56-0.76,2.59-2.35,2.66c-3.55,0.16-7.09,0.29-10.64,0.42c-1.29,0.04-1.8-0.52-1.88-1.93
            C7.43,103.38,7.38,102.45,7.33,101.29z"/>
        <path fill="#fff" d="M208.67,89.32c0.14,2.73-0.37,3.72-2.95,4.67c-2.35,0.86-4.8,1.46-7.2,2.17c-0.84,0.25-1.29-0.14-1.44-0.96
            c-0.25-1.37-0.42-2.77-0.78-4.11c-0.3-1.14-0.82-2.23-1.25-3.34c-0.2-0.52-0.4-1.03-0.63-1.54c-0.22-0.47-0.38-1.02-0.73-1.38
            c-0.65-0.67-0.76-1.28,0.08-1.75c2.92-1.64,5.84-3.29,8.85-4.77c0.71-0.35,1.77-0.15,2.63,0.02c0.85,0.17,1.61,0.71,2.45,0.92
            c1.36,0.34,2.12,1.2,2.47,2.49c0.37,1.35,0.75,2.69,1.07,4.05c0.16,0.69-0.01,1.26-0.86,1.42
            C208.58,87.56,208.58,87.57,208.67,89.32z"/>
    </g>
</g>
</svg>
