<!-- Generator: Adobe Illustrator 24.2.0, SVG Export Plug-In  -->
<svg version="1.1" xmlns="http://www.w3.org/2000/svg" xmlns:xlink="http://www.w3.org/1999/xlink" x="0px" y="0px" width="99px"
	 height="203.08px" viewBox="0 0 99 203.08" style="overflow:visible;enable-background:new 0 0 99 203.08;" xml:space="preserve">
<defs>
</defs>
<g id="qaNiwy.tif_1_">
	<g>
		<path fill="#FFF" d="M48.82,185.42c-2.83-0.31-6.42,0.38-8.32-1.12c-4.14-3.27-9.24-7.19-10.4-11.75c-0.73-2.88,4.35-8.17,7.88-11.06
			c13.48-11.01,45.52-7.65,54.56,7.82c2.97,5.09,3.36,17.67-1.34,21.24c-6.12,4.65-12.92,10.7-19.91,11.42
			c-21.31,2.18-42.88,2.24-62.21-9.88C0.83,186.9-3.01,173.94,2.76,166c3.8-5.24,9.66-9.27,15.25-12.78
			c5.43-3.4,11.89-5.08,17.55-8.17c6.68-3.65,10.53-9.33,9.68-17.48c-0.19-1.84-0.03-3.72-0.03-5.58c0-15.28-1.04-17.04-15.48-25.52
			c-2.73,9.83-5.55,19.5-8.08,29.25c-2.4,9.22-8.03,11.19-18.37,6.23c4.9-11.83,10.45-23.44,14.47-35.56
			c3.12-9.42,5.89-9.68-6.29-15.23c-1.39-0.63-2.68-1.46-3.97-2.16c0.62-4.84,1.2-9.47,1.85-14.57c5.43,4.17,10.85,8.32,18.06,13.86
			c5.24-14.29,10.24-27.22,14.66-40.34c1.99-5.9-0.63-8.59-6.47-6.36c-9.2,3.51-18,8.11-26.12,11.86c4.34-8.65,12.25-16.8,23.4-19.1
			c9.64-1.99,13.06-5.77,10.42-16.22C29.43,11.58,15.56,14.85,5.45,26.9C2.75,16.89,2.43,16.34,15.73,8.67
			c7.09-4.09,15.41-6.09,23.33-8.54c1.81-0.56,4.23,0.86,6.36,1.4c0.81,0.21,1.64,0.86,2.38,0.74c18.09-2.93,22.9-1.42,39.49,8.18
			c6.42,3.71,8.8,7.97,8.36,15.31C89.14,21.56,83.4,17.07,77,13.98c-6.06-2.93-12.81-4.38-20.35-6.84c0,5.68,0,10,0,14.94
			C68.72,21.55,78.27,26.05,87,34.32c8.3,7.87,8.67,20.01-3.2,27.91c-2.15,1.43-4.58,2.54-7.02,3.43c-5.14,1.86-5.5,4.67-2.11,8.43
			c2.76-1.52,5.57-2.92,8.23-4.56c2.62-1.62,5.09-3.48,7.69-5.28c0.78,2.61,1.55,4.76,2.05,6.98c1.15,5.15,0.48,9.34-5.68,10.67
			c-7.14,1.54-7.24,4.98-4.18,11.27c6.01,12.33,10.85,25.24,16.21,37.99c-7.35,3.71-11.88,2.38-15.29-5.43
			c-2.3-5.28-4.53-10.6-6.92-15.84c-2.27-5-4.71-9.93-7.49-15.77c-3.82,2.56-8.1,4.88-11.63,8.06c-1.49,1.34-1.83,4.47-1.93,6.82
			c-0.39,9.45-0.59,18.9-0.64,28.36c-0.05,9.34-6.29,12.89-13.62,16.05c-7.78,3.36-16.01,6.39-22.69,11.4
			c-8.11,6.08-7.47,16.69,1.37,20.72c17.11,7.79,35.19,12.13,53.35,3.29c3.1-1.51,6.28-6.91,6.04-10.25
			c-0.28-3.81-3.57-8.65-6.95-10.75c-9.16-5.69-18.96-4.27-28.33,0.39c-6.74,3.36-6.92,8.68-0.48,12.92c1.67,1.1,3.55,1.9,5.33,2.84
			C49.03,184.45,48.92,184.93,48.82,185.42z M48.35,92.87c3.77-3.02,6.75-6.18,10.37-8.12c5.23-2.81,4.28-6.08,2.2-10.25
			c-3.64-7.3-7.01-14.73-10.81-22.76c-4.82,9.64-9.43,18.61-13.72,27.75c-0.57,1.22-0.04,3.88,0.96,4.79
			C40.76,87.38,44.61,90.01,48.35,92.87z M57.7,30.56c-1.5,6.39,4.66,23.88,9.41,27.07c0.79,0.54,2.24,1.28,2.69,0.96
			c3.02-2.16,7.14-4.06,8.38-7.09c1.18-2.89,0.31-7.7-1.45-10.52C72.48,34.19,65.35,31.67,57.7,30.56z"/>
	</g>
</g>
</svg>
