<!-- Generator: Adobe Illustrator 24.1.0, SVG Export Plug-In  -->
<svg version="1.1" xmlns="http://www.w3.org/2000/svg" xmlns:xlink="http://www.w3.org/1999/xlink" x="0px" y="0px"
	 width="212.48px" height="210.1px" viewBox="0 0 212.48 210.1" style="enable-background:new 0 0 212.48 210.1;"
	 xml:space="preserve">
<defs>
</defs>
<g>
	<g>
		<path fill="#fff" d="M22.47,151.49c1.45,1.05,2.67,2.43,4.18,2.9c1.82,0.57,2.72,1.43,2.96,3.25c0.07,0.52,0.5,1.04,0.89,1.44
			c0.2,0.21,0.81,0.33,1.01,0.18c1.48-1.08,3.2-2.01,4.29-3.42c2.78-3.62,5.79-7,9.25-9.97c2.05-1.76,4.17-3.41,5.69-5.72
			c1-1.52,2.17-2.92,3.34-4.32c0.65-0.77,1.5-1.37,2.17-2.13c0.47-0.54,0.86-1.18,1.1-1.84c0.08-0.21-0.44-0.92-0.72-0.94
			c-4.94-0.27-9.38-2-13.67-4.35c-1.45-0.79-3.23-0.96-4.73-1.66c-1.46-0.69-3.15-1.24-3.49-3.3c-0.1-0.58-0.87-1.22-1.48-1.52
			c-2.94-1.47-5.44-3.27-6.5-6.63c-0.42-1.32-1.32-2.49-2.01-3.73c-1.87-3.37-3.79-6.71-5.56-10.14c-0.42-0.82-0.36-1.89-0.47-2.86
			c-0.31-2.64,0.24-5.25,0.34-7.87c0.13-3.5,0.06-7,0.05-10.5c0-0.43-0.03-0.97-0.27-1.29c-0.82-1.09-0.31-1.97,0.27-2.88
			c1.78-2.8,3.56-5.6,5.34-8.4c0.12-0.19,0.31-0.36,0.34-0.56c0.47-2.87,2.67-4.49,4.56-6.34c1.01-0.99,1.96-2.05,2.88-3.13
			c1.87-2.23,4.28-3.64,6.88-4.86c2.8-1.32,5.46-2.94,8.53-3.65c0.79-0.18,1.55-0.69,2.22-1.18c1.13-0.83,2.38-0.84,3.67-0.82
			c1.24,0.02,2.49,0.01,3.73,0.02c1.36,0.01,2.73-0.16,3.96,0.74c0.4,0.29,1.02,0.41,1.53,0.37c2.52-0.19,4.89,0.54,7.31,1.03
			c0.77,0.16,1.58,0.19,2.37,0.23c1.4,0.06,2.85-0.18,4.1,0.74c0.17,0.12,0.45,0.23,0.63,0.18c2.18-0.62,3.93,0.69,5.68,1.5
			c1.56,0.72,2.86,2.05,4.17,3.23c2.01,1.8,3.98,3.66,5.88,5.58c1.38,1.39,3.05,2.56,3.59,4.66c0.3,1.16,1.56,1.8,2.75,1.6
			c1.31-0.22,2.08-1.09,2.16-2.35c0.19-2.84,0.23-5.68,0.36-8.52c0.06-1.42,0.23-2.84,0.23-4.26c0-0.91-0.22-1.82-0.33-2.66
			c-1.16,0.14-2.14,0.26-3.12,0.39c-0.21,0.03-0.48,0.07-0.6,0.21c-1.13,1.33-2.62,0.97-3.98,0.72c-0.61-0.11-1.36-0.78-1.57-1.37
			c-0.19-0.52,0.18-1.32,0.49-1.91c0.54-1.04,1.21-2,1.82-3c0.28-0.45,0.58-0.89,0.84-1.35c0.94-1.72,1.87-3.45,2.79-5.17
			c0.48-0.89,0.96-1.77,1.41-2.67c1.2-2.42,2.37-4.84,3.57-7.26c1.91-3.85,3.84-7.7,5.75-11.55c0.76-1.54,1.48-3.11,2.24-4.66
			c0.15-0.31,0.4-0.71,0.68-0.79c1.29-0.36,1.26-1.32,1.18-2.32c-0.13-1.64,0.46-2.91,1.7-3.99c0.72-0.64,1.22-1.52,1.89-2.23
			c0.22-0.23,0.78-0.46,0.97-0.34c1.49,0.93,2.96,1.76,3.42,3.8c0.49,2.2,1.37,4.31,1.15,6.63c-0.02,0.16,0.04,0.36,0.13,0.5
			c1.49,2.21,1.93,4.76,2.5,7.29c0.65,2.88,1.56,5.7,2.49,8.5c0.99,3,2.1,5.96,3.24,8.91c0.56,1.45,1.45,2.78,1.96,4.24
			c0.66,1.89,1.2,3.84,1.58,5.8c0.22,1.16,0.05,2.39,0.05,3.59c0,2.15-0.79,3.07-2.94,3.34c-0.39,0.05-0.8,0.04-1.2,0.04
			c-1.1,0-2.21,0-3.6,0c0.15,3.41,0.29,6.75,0.42,10.09c0.03,0.66-0.04,1.33-0.04,1.99c0,0.62-0.05,1.26,0.09,1.84
			c0.24,0.96,1.12,1.27,1.82,0.56c1.05-1.06,2.16-1.88,3.65-2.26c0.54-0.14,1.08-0.67,1.41-1.16c2.06-3.07,5.25-4.56,8.45-5.93
			c4.21-1.81,8.77-2.07,13.24-2.8c5.6-0.92,10.87-0.08,16.11,1.67c0.29,0.1,0.6,0.17,0.9,0.26c1.81,0.52,3.44,1.1,5.01,2.41
			c2.63,2.19,5.82,3.71,8.66,5.67c1.16,0.8,2.12,1.96,3.01,3.08c1.15,1.46,2.06,3.12,3.23,4.56c0.77,0.96,1.33,1.98,1.15,3.14
			c-0.29,1.85,0.75,2.93,2.06,3.67c1.56,0.88,1.97,2.16,2.21,3.79c0.52,3.51,1.24,7,1.87,10.5c0.07,0.39,0.21,0.8,0.16,1.18
			c-0.56,4.49-0.74,9.08-1.89,13.42c-0.77,2.9-2.87,5.46-4.47,8.12c-1.4,2.32-2.91,4.57-4.43,6.82c-0.47,0.68-1.04,1.38-1.72,1.82
			c-6.05,3.91-12.17,7.7-19.15,9.78c-0.08,0.03-0.17,0.05-0.25,0.1c-2.27,1.36-4.64,2.19-7.37,2.09c-1.33-0.05-1.82,1.39-0.89,2.42
			c2.22,2.45,4.75,4.45,7.7,6.05c1.68,0.91,3.2,2.44,4.31,4.03c1.63,2.34,3.6,3.97,6.29,4.8c0.13,0.04,0.29,0.02,0.39,0.09
			c2.12,1.63,3.49,0.09,4.95-1.15c0.46-0.39,0.98-0.72,1.42-1.13c0.19-0.18,0.31-0.5,0.34-0.77c0.06-0.44-0.01-0.89,0.02-1.33
			c0.12-1.8,0.96-2.86,2.31-2.94c1.72-0.1,2.85,0.9,3.43,2.5c0.7,1.9,1.71,3.68,2.55,5.54c0.47,1.04,0.88,2.11,1.28,3.18
			c0.64,1.74,1.2,3.52,1.91,5.24c0.26,0.62,0.76,1.23,1.31,1.62c2.53,1.79,3.62,4.51,4.84,7.18c1.03,2.27,2.11,4.53,3.26,6.75
			c0.54,1.04,1.41,1.91,1.93,2.96c0.42,0.85,0.58,1.84,0.75,2.78c0.58,3.24,1.96,6.15,3.49,9.02c0.22,0.4,0.37,1.22,0.17,1.38
			c-0.38,0.31-1.21,0.57-1.53,0.36c-1.49-0.97-3.14-1.23-4.84-1.41c-0.24-0.02-0.52-0.21-0.67-0.41c-1.15-1.6-2.76-1.88-4.58-1.77
			c-0.65,0.04-1.35-0.06-1.95-0.29c-2.61-0.97-5.31-1.26-8.07-1.33c-3.47-0.08-6.93-0.16-10.39-0.39
			c-5.13-0.33-10.27-0.72-15.38-1.24c-1.02-0.1-1.97-0.9-2.92-1.37c0.38-1.4,0.69-2.68,1.1-3.92c0.13-0.38,0.55-0.67,0.88-0.96
			c0.93-0.82,1.9-1.6,2.81-2.45c0.76-0.7,0.95-1.55,0.13-2.32c-0.89-0.83-1.84-1.62-2.83-2.34c-2.79-2.04-5.6-4.07-8.45-6.04
			c-0.75-0.52-1.66-0.79-2.45-1.26c-0.32-0.19-0.46-0.64-0.74-0.92c-0.38-0.37-0.85-0.98-1.21-0.93c-0.4,0.05-1.01,0.73-1.01,1.14
			c-0.05,4.94-1.69,9.51-3.14,14.12c-0.48,1.51-1.22,2.95-1.92,4.38c-0.13,0.28-0.62,0.43-0.97,0.54c-0.68,0.21-1.4,0.29-2.06,0.53
			c-2.76,1.02-3.15,1.7-3.3,4.61c-0.05,0.89-0.81,1.74-0.91,2.65c-0.15,1.41-0.96,2.34-1.77,3.34c-1.47,1.83-3.61,2.56-5.65,3.32
			c-1.53,0.57-3.03,0.92-3.91,2.48c-0.24,0.41-0.79,0.72-1.26,0.91c-5.23,2.17-10.58,3.86-16.25,4.46c-2.82,0.3-5.61,0.82-8.42,1.21
			c-0.65,0.09-1.33,0.12-1.98,0.05c-1.24-0.14-2.46-0.54-3.69-0.54c-4.66,0-8.41-2.52-12.44-4.31c-1.32-0.59-2.82-0.8-4.13-1.39
			c-1.53-0.69-3.22-1.25-3.59-3.35c-0.1-0.58-0.89-1.19-1.5-1.5c-2.94-1.48-5.41-3.3-6.5-6.64c-0.46-1.4-1.38-2.67-2.18-3.94
			c-2.23-3.52-4.43-7.06-5.66-11.09c-0.2-0.65-0.08-1.4-0.15-2.1c-0.1-0.96-0.16-1.94-0.39-2.88c-0.08-0.32-0.61-0.73-0.95-0.74
			c-0.35-0.01-0.76,0.36-1.05,0.66c-0.57,0.57-1.04,1.23-1.6,1.81c-0.94,0.97-1.89,1.94-2.89,2.85c-0.34,0.31-0.84,0.63-1.27,0.65
			c-2.42,0.07-3.56,1.09-3.5,3.49c0.03,1.03,0.41,2.05,0.57,3.08c0.14,0.88,0.08,1.81,0.3,2.66c0.16,0.6,0.55,1.21,0.99,1.66
			c0.94,0.95,1.36,1.99,0.85,3.25c-0.49,1.23-1.49,1.62-2.77,1.67c-0.81,0.03-1.61,0.34-2.41,0.51c-0.9,0.2-1.8,0.39-2.7,0.6
			c-0.59,0.14-1.17,0.32-1.75,0.46c-1.02,0.25-2.06,0.46-3.07,0.75c-1.05,0.29-2.12,0.57-3.13,0.99c-1.46,0.61-2.84,1.44-4.33,1.99
			c-0.93,0.34-1.99,0.47-2.99,0.47c-4.31,0.01-8.63,0.01-12.93-0.16c-2.09-0.08-3.93,0.37-5.67,1.47c-0.96,0.6-1.85,0.87-3.08,0.33
			c-1.08-0.47-2.43-0.33-3.66-0.49c-0.49-0.06-0.97-0.18-1.45-0.27c0.12-0.63,0.12-1.33,0.41-1.86c0.39-0.72,1.15-1.25,1.52-1.98
			c2.9-5.69,5.81-11.37,8.58-17.13c2.36-4.91,4.67-9.86,6.74-14.91c0.79-1.94,2.1-3.47,3.01-5.26c0.83-1.63,1.15-3.52,1.67-5.3
			C22.14,152.85,22.31,152.12,22.47,151.49z M181.01,95.21c0.15-12.56-9.76-23.18-22.25-23.52c-9.96-0.27-17.23,4.61-22.45,12.79
			c-1,1.57-1.84,3.41-2.15,5.22c-0.4,2.38-0.19,4.86-0.28,7.3c-0.02,0.65-0.02,1.37-0.29,1.94c-0.84,1.79-0.97,3.66-0.26,5.42
			c0.87,2.16,1.86,4.33,3.16,6.25c1.5,2.21,3.17,4.42,6.1,5c0.31,0.06,0.6,0.36,0.85,0.59c0.84,0.78,1.59,1.69,2.52,2.35
			c1.55,1.1,3.15,2.14,5.22,2.01c1.06-0.07,2.13,0.17,3.19,0.1c1.79-0.12,3.83,0.26,5.19-1.16c1.36-1.43,3.03-1.91,4.76-2.43
			C174.5,114.06,180.73,105.1,181.01,95.21z M80.65,160.18c0.18,1.85,0.2,3.73,0.6,5.53c0.59,2.66,1.44,5.26,2.22,7.88
			c0.64,2.18,1.34,4.33,3.09,5.93c0.85,0.78,1.75,1.5,2.58,2.3c3.39,3.28,7.41,5.23,12.04,6.11c12.56,2.36,25.98-7.71,25.98-21.13
			c0-3.23-0.04-6.49-1.72-9.44c-0.74-1.31-1.55-2.64-1.99-4.06c-1.22-3.99-3.64-6.95-7.23-8.98c-0.83-0.47-1.72-0.94-2.64-1.13
			c-2.6-0.55-5.25-0.41-7.92-1.01c-3.02-0.67-6.52-1.09-9.58,0.78c-0.31,0.19-0.79,0.23-1.16,0.18c-2.02-0.27-3.63,0.74-5.41,1.46
			c-4.18,1.69-6.01,5.24-7.86,8.92C80.55,155.69,80.9,157.93,80.65,160.18z M41.59,90.2c-0.91,3.87,0.99,7.37,3.41,10.63
			c1.36,1.83,3.26,3.26,4.6,5.1c1.34,1.85,3.1,3,5,4.05c0.77,0.43,1.56,1.07,2.37,1.1c3.48,0.14,6.98,0.59,10.44-0.39
			c1.34-0.38,2.78-0.4,4.17-0.55c1.69-0.18,3.61,0.38,4.99-0.93c2.52-2.41,5.06-4.84,7.26-7.53c1.3-1.59,2.27-3.53,1.97-5.9
			c-0.24-1.87,0.08-3.8,0.02-5.7c-0.1-2.94,0.06-5.93-1.71-8.59c-0.8-1.2-1.21-2.64-1.94-3.9c-1.1-1.92-2.14-3.91-3.53-5.61
			c-2.55-3.11-5.69-5.52-9.74-6.36c-13.09-2.72-25.29,7.1-27.29,20.14C41.42,87.06,41.59,88.42,41.59,90.2z"/>
	</g>
</g>
</svg>
