<!-- Generator: Adobe Illustrator 25.0.1, SVG Export Plug-In  -->
<svg version="1.1" xmlns="http://www.w3.org/2000/svg" xmlns:xlink="http://www.w3.org/1999/xlink" x="0px" y="0px"
	 width="188.95px" height="240.79px" viewBox="0 0 188.95 240.79"
	 style="overflow:visible;enable-background:new 0 0 188.95 240.79;" xml:space="preserve">
<defs>
</defs>
<g>
	<path fill="#FFF" d="M138.71,229.32c-1.2-3.12-2.01-5.25-2.82-7.37c-0.5-0.14-0.99-0.28-1.49-0.41c-1.54,6.31-2.89,12.78-11.07,14.97
		c0-2.73,0.25-5.41-0.12-8.01c-0.15-1.09-1.6-2-2.46-2.99c-0.79,0.88-1.92,1.65-2.29,2.68c-0.92,2.62-1.58,5.33-2.19,8.05
		c-0.78,3.45-2.47,4.97-6.32,4.48c-4-0.51-5.19-2.33-5.52-6.18c-0.17-1.91-2.56-3.64-3.94-5.44c-0.93,1.74-2.13,3.38-2.7,5.23
		c-0.52,1.71-0.36,3.62-0.49,5.39c-9.94,0.3-12.31,0.5-11.39-10.88c0.08-1.01-1.37-2.15-2.11-3.23c-0.86,0.79-2.4,1.54-2.45,2.37
		c-0.17,3.11,0.15,6.24,0.29,9.37c-6.5,0.62-7.8-0.95-10.66-14.22c-3.33,4.33-6.05,7.86-9.48,12.32
		c-4.34-8.12-6.17-15.16-5.38-22.77c1.08-10.4-4.65-18.78-9.23-26.97c-3.38-6.05-10.59-8.64-18.26-6.54
		c-4.31,1.18-6.41-0.65-9.75-4.07C8.07,163.94,6.43,149.87,3.47,136.02c-0.3-1.42-1.02-2.81-1.8-4.07
		c-2.64-4.28-2.13-8.06,1.37-11.65c5.91-6.07,7.99-12.56,3.24-20.62c-1.56-2.64-1.55-6.49-1.44-9.77c0.19-6.15,1.3-12.27,1.46-18.42
		C6.8,51.25,17.92,36.12,30.05,21.47c7.45-9,18.39-12.28,28.76-15.33c17.52-5.15,35.31-7.11,54.07-5.68
		c16.67,1.27,30.27,7.93,43.49,15.91c9.71,5.86,17.92,14.16,20.65,26.48c2.01,9.05,5.61,17.74,8.11,26.7
		c4.98,17.87,2.9,35.89,0.73,53.91c-1.16,9.63-2.39,19.34,2.85,28.42c0.52,0.9,0.14,3.05-0.63,3.86
		c-7.79,8.18-15.67,16.28-23.69,24.23c-2.76,2.74-6.14,3.19-9.76,1.2c-3.17-1.74-4.95-0.43-6.49,2.74c-4.17,8.59-3.88,17.75-4,26.86
		C144.05,217.21,142.46,223.07,138.71,229.32z M67.58,40.78c9.83,2.59,19.13,4.83,28.25,7.63c1.63,0.5,2.53,3.34,3.77,5.11
		c-2.22,0.81-4.49,2.39-6.65,2.25c-3.89-0.26-7.68-2.08-11.57-2.28c-4.93-0.26-10.88-1.16-14.64,1.12
		c-4.81,2.91-9.84,6.07-13.25,11.74c-9.73,16.18-0.26,40.02,18.29,42.27c10.09,1.23,20.28,0.41,28.71-7.55
		c8.62-8.14,11.74-23.32,5.94-33.69c-0.64-1.14-0.26-2.86-0.35-4.31c1.68-0.09,3.73-0.85,4.98-0.16c4.81,2.64,6.19,7.42,6.89,12.51
		c0.6,4.36,1.33,8.7,2.12,13.75c6.58-11.14,4.34-28.08-4.42-36.39c4.43-4.52,8.12-10.19,16.03-7.67c1.34,0.43,2.99,0.13,4.45-0.11
		c7.65-1.21,11.98-7.41,10.25-14.55c-8.22,6.13-14.22,7.18-18.25,2.44c-1.67-1.96-2.65-5.48-2.21-7.99c0.42-2.41,3.06-4.44,4.78-6.7
		c-9.02,0.18-14.69,5.01-13.61,13.25c0.79,6.08,0.07,9.83-5.44,13.2c-3.24,1.99-5.01,2.38-7.43-0.41c-0.82-0.95-1.88-1.92-3.03-2.34
		C90.17,37.88,79.03,38.36,67.58,40.78z M51.14,158.29c9.63-0.08,18.81-1.26,26.7-7.75c3.53-2.9,3.84-5.88,1.76-9.18
		c-1.21-1.92-3.26-3.71-5.34-4.62c-10.35-4.54-20.73-9.09-31.35-12.92c-3.66-1.32-8.11-1.02-12.13-0.64
		c-4.52,0.42-9.28,7.36-8.57,11.54C24.38,147.26,37.86,158.25,51.14,158.29z M155.85,123.47c-0.13-0.5-0.26-1-0.39-1.5
		c-12.88,3.4-25.82,6.58-38.55,10.44c-1.73,0.52-3.62,4.58-3.39,6.78c1.31,12.52,10.29,19.5,22.2,18.06
		c4.43-0.54,8.72-2.1,13.15-2.69c8.7-1.17,13.82-6.96,18.13-13.68c5.62-8.75,1.28-16.98-8.9-17.28
		C157.34,123.57,156.59,123.51,155.85,123.47z M100.04,188.14c1.13,1.48,2.3,4.18,4.34,5.35c2.09,1.2,5.15,1.47,7.56,1.01
		c1.05-0.2,2.61-3.64,2.14-4.96c-3.77-10.57-7.67-21.13-12.18-31.4c-2.11-4.8-4.47-4.77-6.41,0.02
		c-4.09,10.09-7.67,20.41-10.97,30.79c-1.2,3.76,3.84,7.38,7.66,5.48C95.01,193.01,97.25,190.43,100.04,188.14z"/>
</g>
</svg>
