<!-- Generator: Adobe Illustrator 23.0.4, SVG Export Plug-In  -->
<svg version="1.1" xmlns="http://www.w3.org/2000/svg" xmlns:xlink="http://www.w3.org/1999/xlink" x="0px" y="0px"
     width="202.39px" height="235.67px" viewBox="0 0 202.39 235.67" style="enable-background:new 0 0 202.39 235.67;"
     xml:space="preserve">
<defs>
</defs>
<g id="xyiOdb_2_">
    <g>
        <path fill="#fff" d="M202.39,0.48c-2.19,2.26-4.51,4.41-6.55,6.8c-6.51,7.58-12.9,15.26-19.36,22.88c-2.77,3.26-5.62,6.45-8.39,9.71
            c-0.42,0.5-0.78,1.13-0.93,1.76c-0.33,1.42,0.19,2.03,1.67,2.04c3,0.02,6-0.04,8.99,0.01c0.75,0.01,1.49,0.34,2.23,0.52
            c-0.32,0.69-0.47,1.55-0.98,2.05c-2.71,2.7-5.39,5.45-8.3,7.94c-6.8,5.82-13.73,11.5-20.6,17.24c-0.06,0.05-0.13,0.1-0.18,0.16
            c-2.46,2.75-2.73,1.8-4.74,0.17c-3.14-2.54-6.29-5.06-9.93-6.88c-0.51-0.26-0.96-0.66-1.63-1.13c2.63-2.25,5.12-4.35,7.58-6.48
            c1.05-0.92,2.08-1.88,3.04-2.89c0.96-1.01,0.78-1.71-0.54-2.02c-1.08-0.26-2.2-0.37-3.3-0.49c-0.79-0.09-1.61-0.01-2.39-0.16
            c-0.4-0.08-0.91-0.43-1.05-0.78c-0.1-0.25,0.23-0.82,0.52-1.07c1.63-1.42,3.3-2.78,4.96-4.16c5.01-4.16,9.98-8.37,15.02-12.49
            c13.82-11.3,27.32-23.04,42.85-32.08c0.54-0.32,1.02-0.74,1.53-1.11C202.07,0.16,202.23,0.32,202.39,0.48z"/>
        <path fill="#fff" d="M132.73,86.68c-0.64,0.59-1.1,1.09-1.63,1.49c-4.66,3.51-9.33,7-14.01,10.49c-0.6,0.45-1.32,0.94-0.97,1.7
            c0.23,0.5,0.95,0.94,1.53,1.07c4.84,1.04,9.7,1.99,14.55,2.98c0.78,0.16,1.54,0.41,2.3,0.65c1.45,0.46,1.66,1.16,0.57,2.21
            c-3.46,3.33-6.81,6.78-10.47,9.86c-6.82,5.74-13.98,11.07-20.71,16.92c-4.59,3.98-9.68,7.18-14.58,10.69
            c-0.29,0.21-0.61,0.41-0.84,0.68c-0.54,0.64-0.24,1.36,0.57,1.49c0.2,0.03,0.4,0.02,0.6,0.01c5.03-0.3,10.05-0.6,15.08-0.91
            c0.98-0.06,2.19-0.45,2.68,0.7c0.49,1.15-0.73,1.62-1.41,2.2c-13.98,12.02-28.01,23.97-41.92,36.07
            c-3.71,3.22-7.08,6.83-10.53,10.33c-0.43,0.44-0.61,1.26-0.61,1.91c0,0.22,0.85,0.58,1.35,0.66c3.27,0.56,6.54,1.06,9.82,1.58
            c0.61,0.1,1.22,0.2,1.83,0.3c0.04,0.14,0.08,0.29,0.12,0.43c-20.5,11.56-41,23.11-61.5,34.67c-0.06-0.07-0.12-0.13-0.18-0.2
            c0.08-0.2,0.15-0.41,0.26-0.6c8.15-14.18,15.2-28.91,22.09-43.72c1.77-3.8,3.83-7.46,5.78-11.17c0.19-0.37,0.51-0.67,1.04-0.93
            c0.02,0.37,0.05,0.74,0.05,1.11c0.01,2.96-0.01,5.92,0.04,8.88c0.01,0.55,0.28,1.1,0.43,1.65c0.59-0.26,1.3-0.39,1.74-0.81
            c5.53-5.26,10.98-10.62,16.56-15.82c2.16-2.01,4.6-3.71,6.92-5.56c0.34-0.27,0.74-0.52,0.97-0.87c0.2-0.3,0.35-0.81,0.22-1.09
            c-0.13-0.26-0.68-0.51-0.99-0.46c-4.64,0.79-9.11-0.83-13.69-0.95c-2.2-0.06-4.39-0.1-6.59-0.17c-0.5-0.02-1-0.11-1.86-0.2
            c1.18-1.12,2.05-2.1,3.06-2.91c10.68-8.58,20.34-18.27,30.28-27.67c4.59-4.34,9.37-8.48,14.06-12.71
            c0.27-0.24,0.61-0.44,0.78-0.74c0.25-0.46,0.51-0.99,0.5-1.48c0-0.18-0.79-0.5-1.2-0.48c-3.06,0.19-6.12,0.51-9.18,0.66
            c-2.95,0.15-5.91,0.17-8.86,0.16c-0.41,0-1.06-0.43-1.17-0.79c-0.1-0.32,0.33-0.89,0.64-1.24c0.34-0.38,0.83-0.62,1.24-0.94
            c10.5-8.24,20.98-16.5,31.5-24.72c2.74-2.14,5.58-4.15,8.37-6.22c0.16-0.12,0.3-0.26,0.46-0.39c2.54-2.08,5.08-4.17,7.64-6.23
            c1.29-1.04,2.93-1.11,4.47-0.13c1.45,0.93,2.79,2.01,4.22,2.96c2.26,1.49,4.57,2.92,6.85,4.38
            C131.51,85.78,132.02,86.17,132.73,86.68z"/>
        <path fill="#fff" d="M101.24,235.67c-0.22-2.34-0.37-4.68-0.67-7.01c-0.43-3.44-1.06-6.87-1.43-10.32c-0.76-7.03-1.33-14.09-2.14-21.12
            c-0.63-5.43-1.52-10.83-2.29-16.25c-0.04-0.28-0.15-0.59-0.07-0.83c1.07-3.25-0.26-6.51,0.07-9.76c0.08-0.82-0.44-1.32-1.26-1.49
            c-1.04-0.21-2.06-0.46-3.34-0.75c2.13-1.8,4.02-3.5,6.05-5.05c0.49-0.37,1.38-0.31,2.08-0.28c4.56,0.18,9.13,0.16,13.64-0.59
            c2.19-0.37,4.4-0.85,6.48-1.62c2.8-1.04,5.57-2.25,8.19-3.67c9.65-5.23,17.42-12.24,21.89-22.62c2.01-4.68,3.14-9.33,2.76-14.4
            c-0.37-4.9-0.57-9.81-0.9-14.72c-0.06-0.91-0.24-1.85-0.58-2.69c-1.77-4.44-3.26-9.05-5.51-13.24
            c-4.18-7.81-10.91-13.02-18.82-16.78c-1.08-0.51-2.09-1.19-3.2-1.59c-1.37-0.5-2.81-0.87-4.24-1.15
            c-4.59-0.89-9.22-1.91-13.91-1.53c-10.1,0.8-19.77,2.99-27.72,9.88c-2.92,2.53-5.5,5.36-7.38,8.76
            c-2.15,3.87-4.03,7.93-6.52,11.57c-3.31,4.84-3.57,10.27-3.71,15.7c-0.12,4.46,0.2,8.96,0.71,13.39c0.26,2.25,1.31,4.42,2.11,6.59
            c0.42,1.13,0.31,1.93-0.64,2.74c-1.37,1.16-2.63,2.43-4.25,3.95c-1.3-3.95-2.54-7.67-3.76-11.4c-0.17-0.53-0.27-1.09-0.45-1.61
            c-0.35-0.97-1.15-1.26-2.09-1.32c-3.71-0.23-7.44-0.31-11.13-0.7c-8.54-0.92-17.07-1.9-25.58-3.04
            c-4.19-0.56-8.32-1.52-12.48-2.31c-0.3-0.06-0.58-0.2-1.15-0.4c0.49-0.16,0.71-0.23,0.94-0.31c1.87-0.64,3.71-1.41,5.61-1.9
            c7.07-1.82,14.14-3.7,21.27-5.26c5.06-1.11,10.24-1.68,15.34-2.64c2.54-0.47,5.03-1.24,7.53-1.94c0.32-0.09,0.7-0.58,0.75-0.93
            c1.29-9.67,5.63-17.84,11.91-25.19C69.5,74.64,76.76,69,85.53,65.51c3.61-1.44,7.5-2.2,11.3-3.08c1.64-0.38,2.59-1.09,3.05-2.73
            c2.05-7.3,4.17-14.58,6.27-21.87c2.9-10.05,5.79-20.1,8.7-30.15c0.14-0.48,0.35-0.94,0.53-1.41c0.11,0,0.21,0,0.32,0
            c0.07,0.5,0.2,1.01,0.21,1.51c0.15,5.4,0.24,10.8,0.42,16.19c0.16,4.91,0.34,9.83,0.66,14.73c0.11,1.69,0.83,3.35,0.95,5.04
            c0.39,5.82,0.65,11.66,0.95,17.49c0.1,2.03,0.14,2.04,2,2.71c16.02,5.76,27.92,15.88,34.02,32.14c0.42,1.12,0.96,2.2,1.31,3.35
            c0.63,2.05,2.08,2.98,4.09,3.37c2.77,0.54,5.51,1.3,8.3,1.73c2.56,0.39,5.19,0.35,7.75,0.71c5.18,0.72,10.35,1.55,15.51,2.41
            c2.56,0.42,5.1,0.99,7.64,1.51c0.62,0.13,1.22,0.37,1.84,0.7c-2.27,0.69-4.49,1.63-6.92,1.46c-1.62-0.12-3.1,0.12-4.49,0.94
            c-0.23,0.14-0.54,0.31-0.77,0.26c-2.62-0.52-4.79,0.88-7.1,1.66c-1.21,0.41-2.34,1.01-3.7,0.66c-0.25-0.07-0.59,0.15-0.88,0.25
            c-1.32,0.43-2.61,0.97-3.95,1.28c-3.97,0.91-7.95,1.77-11.94,2.57c-2.16,0.43-3.04,1.68-3.39,3.83c-0.65,3.97-1.2,8.04-2.52,11.81
            c-3.32,9.46-9.22,17.2-17.03,23.47c-7.34,5.88-15.57,9.86-24.92,11.31c-1.36,0.21-1.96,0.88-2.05,2.19
            c-0.04,0.56-0.13,1.12-0.29,1.65c-0.27,0.89-0.1,1.58,0.54,2.29c0.33,0.37,0.51,1.09,0.43,1.59c-1.46,8.66-2.9,17.33-4.49,25.97
            c-1.2,6.48-2.64,12.9-3.91,19.37c-0.77,3.96-1.4,7.95-2.1,11.92c-0.08,0.43-0.18,0.85-0.27,1.28
            C101.46,235.64,101.35,235.66,101.24,235.67z"/>
    </g>
</g>
</svg>
