<!-- Generator: Adobe Illustrator 24.1.0, SVG Export Plug-In  -->
<svg version="1.1" xmlns="http://www.w3.org/2000/svg" xmlns:xlink="http://www.w3.org/1999/xlink" x="0px" y="0px"
	 width="182.01px" height="236px" viewBox="0 0 182.01 236" style="enable-background:new 0 0 182.01 236;" xml:space="preserve">
<defs>
</defs>
<g>
	<g>
		<path fill="#fff" d="M89.79,0c5.31,4.74,6.46,7.56,4.37,10.76c4.85,4.95,0.93,11.2,2.22,16.74c4.86-2.78,9.48-5.47,14.17-8.02
			c0.47-0.25,1.42,0.39,2.74,0.8c-8.3,16.22-12.05,33.23-10.91,51.46c0.88-1.89,1.85-3.74,2.61-5.68
			c3.81-9.71,9.95-17.96,16.79-25.61c5-5.58,10.62-10.64,16.26-15.59c1.4-1.23,3.96-1.14,5.98-1.66c-0.64,1.87-0.82,4.11-1.98,5.56
			c-7.25,9.01-12.66,19.03-17.43,29.5c-1.7,3.73-4.83,6.83-6.38,10.6c-4.54,11.01-7.39,22.25-6.22,34.52
			c1.13,11.76,2.91,23.25,7.32,34.21c2.92,7.26,7.23,13.63,13.52,18.48c8.67,6.68,24.1,3.14,30.6-6.93
			c4.2-6.5,3.88-13.73,3.47-20.92c-0.65-11.58-3.87-22.24-13.52-29.58c-6.96-5.3-18.66-4.93-21.84,7.38
			c-2.04,7.89-0.81,15.31,1.91,22.58c0.99,2.64,3.03,5.04,5.08,7.07c2.25,2.23,4.88,1.79,7.03-0.58c3.59-3.95,4.16-11.51,1.42-16.16
			c-1.41-2.4-3.04-1.21-4.81-0.75c-1.28,0.33-2.68,0.19-4.02,0.27c0.17-1.42-0.07-3.07,0.58-4.21c1.52-2.65,3.35-4.95,7.03-5.11
			c4.4-0.2,7.68,1.55,9.66,5.14c3.68,6.67,4.82,23.15-3.27,30.3c-3.68,3.26-12.27,4.87-17.31,2.28c-7.17-3.69-12.56-9.13-14.6-17.11
			c-2.68-10.44-4.53-21.14,0.81-31.21c3.23-6.1,7.65-11.78,15.34-12.77c7.74-1,15.49-2.75,23.03,1.55
			c15.09,8.61,23.33,21.01,22.53,38.79c-0.28,6.11-0.28,12.24-0.82,18.32c-1.81,20.37-18.74,32.3-37.18,31.3
			c-7.14-0.38-13.08-4.15-19.03-7.7c-0.68-0.41-1.39-0.78-2.12-1.11c-0.18-0.08-0.47,0.1-1.31,0.32c2.07,4.79,3.66,9.74,6.22,14.13
			c5.08,8.73,10.71,17.14,16.04,25.73c0.63,1.02,0.73,2.36,1.07,3.55c-1.48-0.07-3.44,0.44-4.37-0.31
			c-5.49-4.43-11.46-8.56-15.89-13.93c-6.4-7.74-11.77-16.35-17.28-24.79c-1.85-2.83-2.76-6.27-4.62-9.47
			c0,4.61-0.31,9.25,0.09,13.83c0.4,4.59,1.39,9.14,2.32,13.67c0.96,4.67,1.82,9.41,3.35,13.91c1.46,4.31,3.71,8.35,5.83,12.97
			c-7.96,1.07-11.13-5.78-17.5-8.82c0,1.68,0.07,2.87-0.01,4.05c-0.41,6.06-0.42,12.21-1.5,18.15c-0.41,2.26-3.31,4.07-5.07,6.08
			c-1.82-1.82-4.16-3.34-5.35-5.5c-3.46-6.28-2.43-13.19-1.94-19.96c0.06-0.81,0.17-1.61,0.38-3.6c-1.9,1.41-2.86,2.17-3.86,2.86
			c-3.18,2.18-6.31,4.47-9.63,6.4c-0.88,0.51-2.42-0.1-3.65-0.2c0.18-1.12,0.06-2.42,0.59-3.33c1.48-2.53,3.12-4.98,4.89-7.32
			c5.52-7.3,6.59-15.88,7.3-24.59c0.41-5.04,0.91-10.07,1.3-15.11c0.09-1.23-0.1-2.47-0.21-4.89c-3.27,6.52-5.71,12.07-8.72,17.28
			c-7.2,12.45-15.92,23.64-27.95,31.86c-0.77,0.52-2.03,0.33-3.06,0.46c0.13-1.14-0.1-2.5,0.44-3.4
			c6.01-10.06,12.18-20.02,18.18-30.09c1.33-2.23,2.12-4.79,3.16-7.2c-0.25-0.27-0.5-0.53-0.74-0.8c-1.19,0.59-2.41,1.12-3.55,1.79
			c-12.1,7.09-24.89,7.33-37.33,2.03c-9.8-4.17-17.08-11.83-18.52-22.94c-1.28-9.94-2.2-20.09-1.71-30.08
			c0.72-14.97,14.17-31.16,28.89-34.31c9.33-2,18.6-1.16,26.55,6.76c9.97,9.93,10.47,20.68,7.31,33.27
			c-1.42,5.65-4.03,10.24-6.81,15.08c-5.23,9.11-23.31,10.73-29.45-0.65c-2.4-4.44-1.9-10.55-2.28-15.93
			c-0.15-2.17,0.74-4.46,1.36-6.64c1.7-5.99,9.19-9.51,14.92-7.09c2.78,1.18,3.75,3.28,3.29,7.6c-3.55-2.08-6.85-2.89-9.47,1.38
			c-2.22,3.61-1.05,13.5,2.19,16.26c3.37,2.86,6.99,2.71,9.84-0.66c4.74-5.59,8.18-25.26,1.9-33.46c-4.71-6.16-14.09-6.7-19.72-2.19
			c-7.54,6.03-11.84,14.22-13.08,23.48c-1.37,10.2-1.46,20.52,5.33,29.54c7.32,9.72,23.35,10.66,31.22,1.37
			c7.67-9.05,12.56-19.37,15.59-31.04c3.39-13.06,3.52-25.94,1.02-38.82c-1.33-6.82-4.55-13.34-7.46-19.75
			c-5.73-12.64-12.16-24.92-20.76-35.93c-0.86-1.1-1.46-2.41-2.18-3.62c0.21-0.33,0.43-0.67,0.64-1c1.31,0.46,2.82,0.64,3.9,1.41
			c7.78,5.52,14.85,11.91,19.91,20.01c5.33,8.53,9.92,17.52,14.83,26.32c0.26,0.46,0.47,0.95,1.32,1.17
			c0.25-9.27,0.69-18.52-2.29-27.11C73.67,36.6,69.2,28.6,65.18,19.92c7.33-0.77,11.1,6.03,17.4,8.81c-0.17-1.42-0.3-2.24-0.36-3.06
			C81.57,16.34,80.46,6.9,88.98,0C89.25,0,89.52,0,89.79,0z"/>
	</g>
</g>
</svg>
