<!-- Generator: Adobe Illustrator 24.1.0, SVG Export Plug-In  -->
<svg version="1.1" xmlns="http://www.w3.org/2000/svg" xmlns:xlink="http://www.w3.org/1999/xlink" x="0px" y="0px"
	 width="189.06px" height="212.83px" viewBox="0 0 189.06 212.83" style="enable-background:new 0 0 189.06 212.83;"
	 xml:space="preserve">
<defs>
</defs>
<g>
	<g>
		<path fill="#fff" d="M119.9,0c1.19,1.5,1.35,5.85,0.44,7.74c-2.05,4.23-4.9,7.9-8.01,11.36c-1.41,1.57-3.04,3.11-5.36,3.39
			c-0.21,0.03-0.44,0.11-0.62,0.24c-3.53,2.49-7.44,4.56-9.62,8.56c-0.15,0.27-0.34,0.54-0.4,0.83c-0.62,3.01-1.62,5.94-1.46,9.1
			c0.12,2.21-0.03,4.44-0.16,6.66c-0.17,2.87,0.67,5.51,1.59,8.17c0.77,2.22,1.76,4.5,1.84,6.77c0.09,2.59-0.24,5.42-1.25,7.78
			c-1.63,3.85-3.97,7.41-5.99,11.1c-0.93,1.71-2.34,2.9-3.82,4.14c-2.64,2.22-5.09,4.69-7.42,7.25c-2.03,2.23-2.99,5.05-3.06,8.07
			c-0.05,2.3-0.14,4.66,0.31,6.89c0.87,4.3,3.99,7.11,7.27,9.71c0.27,0.22,0.56,0.41,0.84,0.61c-1.54,2.11-3.65,3.03-6.08,3.67
			c-1.84,0.48-3.49,1.66-5.23,2.51c-0.39,0.19-0.8,0.44-1.22,0.47c-2.25,0.15-3.47,1.58-4.4,3.4c-0.12,0.24-0.15,0.57-0.34,0.72
			c-2.66,2.03-3.47,5.71-6.56,7.36c-0.22,0.12-0.39,0.37-0.54,0.58c-2.14,2.94-4.42,5.79-6.35,8.86c-1.09,1.73-1.77,3.78-2.33,5.77
			c-1.16,4.09-2.52,8.19-3.05,12.37c-0.47,3.73-0.16,7.61,0.21,11.39c0.38,3.92,1.18,7.8,1.91,11.68c0.21,1.1,0.79,2.14,1.29,3.17
			c0.94,1.94,2.02,3.83,2.9,5.8c0.71,1.6,1.32,3.28,1.76,4.97c0.41,1.59,0.53,3.25,0.77,4.85c-2.76,0.69-4.84-0.3-6.92-1.31
			c-1.98-0.96-3.97-1.9-5.94-2.89c-0.46-0.23-0.83-0.64-1.24-0.96c-0.41-0.33-0.79-0.83-1.25-0.94c-1.54-0.36-2.2-1.51-2.86-2.75
			c-0.3-0.57-0.72-1.16-1.25-1.5c-2.4-1.54-4.9-2.92-7.28-4.49c-0.98-0.65-1.94-1.5-2.59-2.47c-1.34-2.01-3.36-3.23-5.07-4.81
			c-0.63-0.58-1.1-1.34-1.63-2.02c-0.11-0.14-0.16-0.33-0.29-0.45c-3.58-3.1-5.02-7.68-7.76-11.38c-2.57-3.48-4.21-7.64-6.31-11.48
			c-0.67-1.22-1.59-2.31-2.24-3.54c-0.39-0.76-0.46-1.68-0.7-2.53c-0.23-0.84-0.49-1.67-0.74-2.5c-0.04-0.13-0.16-0.23-0.18-0.35
			c-0.42-2.21-0.84-4.43-1.26-6.65c-0.02-0.09,0.03-0.19,0-0.26c-1.24-2.6-0.56-5.68-2.06-8.22c-0.16-0.28-0.15-0.68-0.15-1.03
			c-0.03-5.6-0.05-11.2-0.04-16.8c0-0.46,0.23-0.92,0.4-1.36c0.13-0.37,0.44-0.71,0.47-1.08c0.2-2.66,1.17-5.08,2.13-7.53
			c0.96-2.43,1.65-4.97,2.55-7.43c1.6-4.34,4.42-7.86,7.74-10.98c6.57-6.17,14.27-10.5,22.63-13.75c3.98-1.55,8.01-3.06,11.2-6.02
			c3.96-3.67,6.46-8.1,6.49-13.67c0.02-2.67,0.02-5.34,0.08-8c0.1-4.4,1.27-8.53,3.21-12.48c0.73-1.49,0.98-3.25,1.87-4.62
			c1.11-1.71,2.7-3.11,4-4.71c1.39-1.71,2.53-3.67,4.1-5.17c1.43-1.37,2.67-3.27,5.03-3.3c0.09,0,0.18-0.02,0.26-0.04
			c2.55-0.67,5.1-1.33,7.64-2.01c1.58-0.42,3.17-0.79,4.72-1.31c0.99-0.33,1.88-0.96,2.87-1.33c0.9-0.34,1.85-0.69,2.79-0.72
			c2.4-0.09,4.8-0.01,7.2,0.01c0.44,0,0.92,0.09,1.33-0.03c2.38-0.66,4.79-1.23,7.09-2.1c1.71-0.64,3.33-1.58,4.87-2.58
			c1.85-1.2,3.47-2.79,5.38-3.87c1.25-0.7,2.5-1.26,3.32-2.48C119.55,0,119.72,0,119.9,0z"/>
		<path fill="#fff" d="M97.65,126.28c5.23,0.04,9.78,1.09,14.12,3.05c0.24,0.11,0.49,0.25,0.74,0.28c5.22,0.7,9.32,3.84,13.17,6.9
			c4.42,3.52,8.25,7.85,10.76,13.08c0.87,1.82,1.75,3.63,1.58,5.82c-0.09,1.22,0.56,2.48,0.74,3.75c0.19,1.34,0.28,2.71,0.29,4.07
			c0.03,5.78,0.11,11.55-0.07,17.32c-0.05,1.63-0.92,3.24-1.44,4.85c-0.16,0.5-0.63,0.97-0.62,1.45c0.03,2.97-1.74,5.1-3.4,7.19
			c-5.05,6.38-10.98,11.82-18.57,15c-6.35,2.65-12.98,4.35-20,3.61c-4.03-0.42-8.04-1-11.79-2.59c-0.98-0.41-1.63-1.56-2.48-2.31
			c-1.65-1.45-3.33-2.88-5.03-4.28c-0.33-0.27-0.8-0.37-1.21-0.54c-1.34-0.54-2.72-0.99-4-1.62c-3.08-1.52-4.93-4.21-6.54-7.11
			c-0.39-0.7-0.7-1.44-1.14-2.1c-1.91-2.9-3.23-6.07-4.37-9.33c-0.1-0.29-0.2-0.61-0.39-0.84c-2.38-2.76-2.81-6.08-2.87-9.56
			c-0.04-2.26-0.36-4.51-0.44-6.77c-0.03-0.8,0.33-1.61,0.45-2.43c1.4-9.47,5.65-17.43,12.61-23.96
			c6.89-6.47,15.1-10.37,24.29-12.31c0.69-0.15,1.38-0.38,2.08-0.44C95.44,126.35,96.78,126.32,97.65,126.28z"/>
		<path fill="#fff" d="M182.28,133.43c2.87-0.39,5.31,1.63,5.44,4.8c0.01,0.35,0.03,0.72,0.16,1.04c1.6,3.81,1.5,7.62,0.13,11.47
			c-0.23,0.64-0.24,1.42-0.14,2.1c0.4,2.71-0.67,5.15-1.46,7.6c-0.84,2.61-2.01,5.11-3.03,7.66c-2.19,5.49-5.42,10.34-8.91,15.08
			c-3.72,5.05-8.51,8.89-13.38,12.68c-1.43,1.11-2.72,2.42-4.17,3.5c-1.02,0.76-2.17,1.37-3.32,1.94c-3.3,1.62-6.66,3.13-9.92,4.81
			c-1.59,0.82-2.19-0.42-2.88-1.23c-0.27-0.32,0.05-1.22,0.22-1.82c0.4-1.4,0.88-2.77,1.3-4.16c0.49-1.59,0.88-3.21,1.44-4.78
			c0.76-2.12,1.84-4.14,2.41-6.31c0.48-1.81,0.41-3.77,0.61-5.66c0.09-0.87,0.27-1.73,0.39-2.59c0.13-0.87,0.35-1.75,0.35-2.63
			c0.03-6.84-0.17-13.69,0.13-20.52c0.08-1.89,1.6-3.73,2.52-5.56c0.07-0.14,0.64-0.05,0.98-0.02c3.36,0.25,6.72,0.72,10.08,0.71
			c2.5-0.01,5-0.65,7.5-1.01c0.13-0.02,0.27-0.04,0.39-0.1c1.96-0.9,3.8-2.03,6.02-2.4c0.81-0.14,1.71-1.15,2.12-1.98
			c1.4-2.78,3.07-5.45,3.5-8.67C180.91,136.08,181.7,134.85,182.28,133.43z"/>
	</g>
</g>
</svg>
