<!-- Generator: Adobe Illustrator 23.0.4, SVG Export Plug-In  -->
<svg version="1.1" xmlns="http://www.w3.org/2000/svg" xmlns:xlink="http://www.w3.org/1999/xlink" x="0px" y="0px"
     width="141.68px" height="225.86px" viewBox="0 0 141.68 225.86" style="enable-background:new 0 0 141.68 225.86;"
     xml:space="preserve">
<defs>
</defs>
<g id="ULb5YF_2_">
    <g>
        <path fill="#fff" d="M67.28,225.86c-0.3-0.67-0.8-1.33-0.86-2.03c-0.76-8.32-1.83-16.62-1.73-25c0.08-6.2,0.23-12.4,0.18-18.59
            c-0.06-6.12-0.34-12.23-0.54-18.35c-0.01-0.34-0.1-0.81-0.33-0.97c-2.56-1.86-5.11-3.74-8.51-3.73c-2.16,0.01-3.83,0.83-5.08,2.64
            c-2.09,3.03-2.55,6.32-1.72,9.84c1.91,8.08,3.85,16.16,5.75,24.24c0.16,0.67,0.12,1.39,0.17,2.08c-0.15,0.05-0.29,0.1-0.44,0.15
            c-0.32-0.32-0.69-0.59-0.94-0.95c-1.61-2.38-3.24-4.76-4.76-7.2c-0.67-1.07-1.22-2.26-1.6-3.46c-1.41-4.45-2.74-8.93-4.07-13.4
            c-0.87-2.94-1.97-5.86-2.43-8.87c-0.4-2.65-0.38-5.46,0.02-8.11c1.05-6.96,8.39-10.91,14.88-8.31c2.73,1.1,5.53,2.03,8.43,3.08
            c0-0.55,0-0.9,0-1.26c0-7.56-0.01-15.12,0.02-22.68c0-0.93-0.18-1.31-1.21-1.4c-15.06-1.32-28.96-6.03-41.5-14.53
            c-7.47-5.06-13.55-11.44-17.75-19.48c-0.68-1.3-1.04-2.86-1.19-4.34C1.16,76.14,3.45,67.8,8.29,60.13
            c2.71-4.29,5.3-8.65,8.76-12.43c6.4-7,14.44-11.19,23.32-14.09c4.36-1.42,8.84-1.73,13.34-2.11c6.89-0.59,13.74-0.29,20.57,0.66
            c0.2,0.03,0.41,0.02,0.59,0.08c4.86,1.58,9.75,3.05,14.55,4.78c2.75,0.99,4.97,2.85,6.66,5.29c1.57,2.27,3.19,4.5,4.79,6.75
            c1.18,1.66,1.45,3.55,1.13,5.5c-0.75,4.6-2.83,8.46-6.56,11.33c-0.55,0.42-1.28,0.59-1.91,0.91c-0.66,0.33-1.29,0.7-1.94,1.06
            c-0.06,0.04-0.09,0.18-0.14,0.19c-2.3,0.28-3.92,2.44-6.4,2.27c-2.3-0.15-4.65,0.05-6.89-0.36c-2.62-0.48-5.14-1.46-7.7-2.23
            c-0.19-0.06-0.43-0.08-0.55-0.21c-0.34-0.36-0.63-0.76-0.93-1.15c0.39-0.28,0.74-0.71,1.17-0.82c3.41-0.85,6.85-1.59,10.25-2.45
            c5.65-1.42,10.27-4.52,14.1-8.85c2.7-3.05,2.4-5.98-0.91-8.35c-4.15-2.96-8.89-4.48-13.86-5.33c-4.52-0.78-9.02-0.82-13.59-0.09
            c-4.37,0.7-8.83,0.84-13.24,1.3c-6.73,0.69-13.21,2.27-19.25,5.43c-2.33,1.22-4.76,2.27-7.11,3.45
            c-4.99,2.51-8.93,6.19-11.63,11.08c-1.89,3.42-3.75,6.88-5.34,10.45c-3.1,6.92-1.58,13.03,4.2,17.95
            c1.37,1.17,2.79,2.29,4.07,3.55c3.65,3.58,8.36,5.41,12.68,7.87c4.32,2.46,9.02,3.88,13.85,4.84c6.03,1.21,12.05,2.54,18.14,3.29
            c3.85,0.48,7.84,0.23,11.73-0.09c18.42-1.53,34.63-8.66,49.19-19.82c4.26-3.26,7.58-7.44,10.79-11.69
            c0.82-1.08,1.63-2.19,2.54-3.19c0.56-0.6,1.32-1.02,1.98-1.52c0.12,0.09,0.24,0.18,0.36,0.27c-0.14,0.68-0.22,1.38-0.42,2.05
            c-1.21,4.13-3.57,7.69-6.03,11.12c-2.99,4.17-6,8.35-10.03,11.68c-4.5,3.72-8.79,7.68-13.23,11.47c-1.6,1.37-3.42,2.34-5.67,2.2
            c-0.35-0.02-0.92,0.57-1.09,1c-0.34,0.83-0.83,1.34-1.71,1.48c-0.2,0.03-0.45,0.02-0.57,0.14c-2.99,2.87-6.87,3.95-10.67,4.92
            c-4.71,1.2-9.56,1.86-14.36,2.66c-1.18,0.2-1.6,0.57-1.58,1.82c0.14,7.07,0.19,14.15,0.27,21.23c0,0.43,0,0.86,0,1.55
            c1.56-0.93,3-1.69,4.33-2.61c3.07-2.12,6.12-2.02,9.2-0.11c3.37,2.1,5.11,5.27,5.89,9.08c0.57,2.78,0.57,5.47-0.15,8.28
            c-0.69,2.69-0.73,5.53-1.15,8.29c-1.33,8.72-4.07,16.99-7.94,24.89c-0.21,0.43-0.37,0.91-0.66,1.27c-0.24,0.3-0.65,0.48-0.98,0.71
            c-0.13-0.35-0.38-0.71-0.36-1.05c0.05-0.91,0.14-1.84,0.34-2.73c1.99-9.16,3.33-18.41,3.6-27.78c0.06-1.93-0.22-3.9-0.61-5.8
            c-0.37-1.79-1.78-2.71-3.62-2.7c-2.86,0.02-5.13,1.39-7.05,3.36c-0.32,0.33-0.36,1.03-0.38,1.56c-0.16,4.47-0.15,8.96-0.48,13.42
            c-0.26,3.54-0.87,7.06-1.47,10.56c-1.14,6.63-1.6,13.31-1.9,20.02c-0.26,5.86-1.04,11.7-1.66,17.54c-0.1,0.91-0.61,1.77-0.93,2.65
            C67.76,225.86,67.52,225.86,67.28,225.86z"/>
        <path fill="#fff" d="M141.68,19.46c-0.39,0.44-0.73,0.95-1.17,1.32c-3.96,3.3-7.97,6.55-11.9,9.88c-1.55,1.31-2.96,2.8-4.44,4.2
            c-0.69,0.66-0.81,1.37-0.46,2.27c3.26,8.49,2.55,16.65-1.18,24.96c-3.12,6.96-7.93,12.71-12.07,18.94
            c-3.28,4.92-7.84,8.71-13.19,11.24c-1.85,0.87-3.51,1.9-5.25,2.91c-4.29,2.48-9.13,3.35-13.99,4.27
            c-6.43,1.21-12.47,0.36-18.65-1.4c-7.28-2.07-14.23-4.83-20.71-8.65c-5.27-3.1-8.33-7.94-9.26-14.03
            c-0.37-2.4,0.24-4.62,1.68-6.57c3.02-4.07,7.03-6.52,12.11-6.87c4.05-0.28,8.13-0.91,12.19-0.01c0.49,0.11,0.9,0.58,1.35,0.89
            c-0.42,0.43-0.76,1.09-1.26,1.24c-2.71,0.81-5.53,1.32-8.19,2.25c-2.69,0.95-5.3,2.17-7.84,3.49c-1.13,0.59-2.07,1.63-2.95,2.6
            c-1.72,1.89-1.56,3.85,0.61,5.26c2.2,1.43,4.5,2.76,6.9,3.81c6.35,2.78,13.05,4.54,19.78,6.07c5.39,1.23,10.84,0.62,16.2-0.43
            c9.85-1.93,18.99-5.62,26.47-12.42c3.82-3.47,7.11-7.57,10.33-11.63c4.15-5.22,3.14-10.79,0.54-16.37
            c-2.23-4.78-5.68-8.31-10.04-11.29c-7.53-5.15-15.79-7.92-24.74-8.98c-6.15-0.72-12.29-1.56-18.46-2.05
            c-2.84-0.22-5.76,0.08-8.6,0.5c-6.35,0.95-12.68,2.13-19.01,3.23c-0.67,0.12-1.34,0.28-1.96,0.53c-6.72,2.77-13.39,5.67-19.5,9.67
            C9.83,41.69,5.97,46.4,2.2,51.18c-0.47,0.6-1.19,1-1.8,1.5c-0.13-0.09-0.27-0.17-0.4-0.26c0.03-0.52-0.03-1.08,0.12-1.56
            c0.57-1.79,1.12-3.59,1.85-5.31c0.53-1.23,1.21-2.45,2.05-3.48c3.86-4.66,8.66-8.27,13.42-11.93c0.73-0.56,1.43-1.16,2.19-1.67
            c0.91-0.62,1.02-1.27,0.2-2.02c-2.03-1.86-4.03-3.76-6.13-5.55c-2.16-1.84-4.44-3.54-6.63-5.34c-0.36-0.3-0.53-0.82-0.79-1.24
            c0.43-0.25,0.86-0.7,1.3-0.72c1.54-0.05,3.13-0.16,4.63,0.13c4.31,0.84,8.63,1.76,12.08,4.83c0.65,0.58,1.03,1.1,1.03,2
            c-0.01,1.64,0.46,2.15,2.07,2.02c1.25-0.1,2.54-0.34,3.7-0.8c3.52-1.4,6.99-2.95,10.48-4.43c1.56-0.66,1.61-0.83,0.51-2.03
            c-2.19-2.39-4.34-4.82-6.6-7.13c-1.45-1.48-3.11-2.75-4.63-4.16c-0.72-0.67-1.43-1.4-1.98-2.21c-0.65-0.98-0.04-2.02,1.07-1.8
            c4.2,0.84,8.57,1.2,12.08,4.14c2.11,1.77,4.35,3.39,6.54,5.06c0.75,0.57,0.98,1.15,0.44,2.04c-0.56,0.93-0.28,1.62,0.74,2.13
            c1.78,0.9,3.65,1.05,5.6,0.65c5.54-1.12,11.11-2.03,16.78-1.5c6.36,0.59,12.71,1.35,18.82,3.4c1.52,0.51,3.19,0.73,4.8,0.82
            c1.47,0.09,2.2-0.93,1.67-2.27c-0.46-1.17-0.12-1.97,0.6-2.83c2.95-3.52,5.54-7.36,9.29-10.15c0.29-0.21,0.56-0.47,0.89-0.58
            c0.74-0.26,1.2,0.02,1.11,0.84c-0.05,0.47-0.22,0.93-0.38,1.38c-1.76,4.88-3.53,9.76-5.29,14.64c-0.61,1.7-0.53,1.94,1.06,2.72
            c4.17,2.02,7.93,4.64,11.34,7.76c1.04,0.95,2.19,1.37,3.62,1.14c1.45-0.23,2.32-0.98,2.57-2.43c0.31-1.79,1.38-2.87,3.06-3.51
            c3.62-1.37,7.19-2.89,10.84-4.18c1.32-0.47,2.81-0.5,4.22-0.62c0.41-0.03,0.86,0.32,1.29,0.5
            C141.68,19.3,141.68,19.38,141.68,19.46z"/>
    </g>
</g>
</svg>
