<!-- Generator: Adobe Illustrator 24.1.0, SVG Export Plug-In  -->
<svg version="1.1" xmlns="http://www.w3.org/2000/svg" xmlns:xlink="http://www.w3.org/1999/xlink" x="0px" y="0px"
	 width="214.46px" height="217.92px" viewBox="0 0 214.46 217.92" style="enable-background:new 0 0 214.46 217.92;"
	 xml:space="preserve">
<defs>
</defs>
<g id="zHsEFn.tif_1_">
	<g>
		<path fill="#fff" d="M214.46,9.81c0,3.38,0,6.76,0,10.14c-0.23,0.46-0.64,0.92-0.65,1.39c-0.05,2.54-0.05,5.09,0.03,7.63
			c0.03,0.73,0.4,1.46,0.62,2.18c0,2.05,0,4.09,0,6.14c-0.52,0.82-1.18,1.58-1.52,2.46c-0.49,1.28-1.31,1.77-2.62,1.76
			c-2.13-0.02-4.26-0.02-6.38,0.03c-0.97,0.02-2.23,0.58-2.84,0.15c-1.56-1.09-3.14-0.15-4.68-0.35c-1.76-0.23-3.64,0.74-5.55,0.23
			c-0.23-0.06-0.55,0.01-0.77,0.14c-1.42,0.78-2.77,1.05-4.04-0.3c-0.17-0.18-0.55-0.22-0.84-0.21c-2.2,0.02-4.39,0.08-6.59,0.11
			c-2.27,0.03-4.53,0.03-6.8,0.05c-2.23,0.02-3.81,1.05-5.1,2.87c-1.35,1.9-2.91,3.65-4.49,5.37c-4.27,4.69-8.61,9.32-12.89,14
			c-1.41,1.54-2.74,3.15-4.22,4.85c0.49,0.19,0.71,0.25,0.89,0.35c1.99,1.11,3.9,1.13,5.93-0.03c0.5-0.29,1.94,0.01,2.15,0.43
			c0.78,1.56,2.08,2.07,3.57,2.19c5.7,0.49,11.42,0.91,17.13,1.31c0.87,0.06,1.76-0.07,2.64-0.18c1.26-0.15,2.52-0.42,3.78-0.52
			c4.38-0.34,8.84,1.1,13.18-0.55c0.16-0.06,0.35,0,0.53-0.01c3.12-0.29,6.25-0.57,9.37-0.86c0.09-0.01,0.17-0.05,0.26-0.06
			c1.75-0.18,3.53-0.62,5.25-0.46c1.15,0.11,2.65,0.79,3.21,1.69c0.74,1.19,0.83,2.85,0.97,4.33c0.09,0.98-0.31,2-0.32,3.01
			c-0.07,4.31-0.1,8.61-0.06,12.92c0.01,0.53,0.55,1.04,0.85,1.57c0,0.89,0,1.78,0,2.67c-2.77,4.17-5.56,8.33-8.29,12.53
			c-0.5,0.77-1.05,1.06-1.95,1.07c-2.98,0.03-5.95,0.12-8.92,0.23c-5.85,0.21-11.69,0.44-17.54,0.65c-1.18,0.04-2.36,0.01-4.01,0.01
			c0.8,0.97,1.7,1.58,1.85,2.34c0.5,2.55,2.52,3.77,4.16,5.37c0.95,0.93,1.77,1.99,2.67,2.97c0.19,0.21,0.51,0.5,0.73,0.47
			c1.15-0.15,1.4,0.58,1.67,1.44c0.16,0.52,0.48,1.04,0.85,1.45c1.1,1.25,2.56,2.08,3.82,3.11c1.79,1.47,3.16,3.47,4.71,5.24
			c0.47,0.53,0.9,1.1,1.43,1.57c1.08,0.96,2.29,1.79,3.32,2.8c1.12,1.1,2.06,2.39,3.14,3.54c3.14,3.31,6.33,6.57,9.47,9.88
			c0.31,0.32,0.58,0.84,0.58,1.27c0.06,6.57,0.07,13.13,0.1,19.7c0.02,3.81-0.03,7.63,0.13,11.43c0.08,1.97,0.66,3.92,0.81,5.9
			c0.17,2.25,0.1,4.51,0.16,6.77c0.09,3.19,0.25,6.38,0.26,9.57c0,0.64-0.35,1.52-0.84,1.89c-2.56,1.91-5.21,3.7-7.85,5.48
			c-0.33,0.22-0.84,0.24-1.26,0.22c-3.05-0.2-6.09-0.56-9.14-0.62c-3.41-0.07-6.84-0.06-10.24,0.26c-3.16,0.3-6.27,1.17-9.43,1.56
			c-3.11,0.38-6.27,0.43-8.97,2.36c-0.25,0.18-0.69,0.1-1.04,0.1c-10.02-0.03-20.03-0.16-30.02,0.91c-3.5,0.37-7.09,0.19-10.61-0.04
			c-4.16-0.26-8.29-0.86-12.44-1.28c-1.41-0.14-2.83-0.29-4.24-0.28c-5.06,0.01-10.12,0.08-15.18,0.14
			c-7.54,0.09-15.09,0.21-22.63,0.28c-1.91,0.02-3.83,0.09-5.72-0.12c-3.39-0.38-6.74-1.19-10.13-1.38
			c-4.25-0.24-8.52-0.1-12.78,0.01c-3.54,0.09-7.07,0.49-10.6,0.55c-5.9,0.11-11.8,0.01-17.69,0.11c-2.4,0.04-4.95-0.44-7.14,1.59
			c-1.14-1.85-3.12-2.82-2.96-5.57c0.26-4.37-0.07-8.78-0.24-13.18c-0.04-0.99-0.55-1.95-0.63-2.94c-0.23-2.86-0.32-5.74-0.51-8.6
			c-0.11-1.72-0.35-3.43-0.43-5.15c-0.08-1.64,0.35-3.42-0.16-4.9c-0.91-2.63-0.64-5.26-0.68-7.9c-0.01-1,0.22-2.01,0.37-3.02
			c0.12-0.82,0.4-1.64,0.41-2.46c0.05-2.74,0.02-5.48,0.02-8.17c3.02-0.81,4.9-3.15,7.16-4.87c1.61-1.23,2.82-3,4.18-4.55
			c2.22-2.53,4.46-5.04,6.6-7.62c2.6-3.14,5.12-6.34,7.66-9.52c2.15-2.69,4.19-5.47,6.45-8.07c1.44-1.65,3.22-3.01,4.79-4.55
			c1.31-1.28,2.54-2.64,3.81-3.96c-1.66,0.15-2.34-0.8-3.05-1.96c-0.8-1.31-2.22-1.7-3.71-1.74c-0.75-0.02-1.51,0.03-2.26,0.03
			c-6.93,0-13.86-0.01-20.79-0.02c-2.4,0-4.8,0.01-7.2-0.03c-0.62-0.01-1.4,0.12-1.53-0.87c-0.16-1.27-0.48-2.54-0.51-3.81
			c-0.14-5.1-0.23-10.21-0.27-15.32c-0.04-5.98-0.01-11.96-0.01-18.18c0.27-0.06,0.85-0.3,1.44-0.32c2.17-0.07,4.34-0.07,6.52-0.08
			c2.61,0,5.22-0.02,7.83,0.03c2.25,0.04,4.5,0.24,6.76,0.24c2.34,0,4.67-0.17,7.01-0.26c5.37-0.21,10.73,0.52,16.1,0.02
			c1.88-0.18,3.81,0.05,5.71,0.15c1.96,0.1,3.91,0.3,5.86,0.4c0.56,0.03,1.13-0.14,1.69-0.22c0.34-0.05,0.68-0.17,1.01-0.15
			c1.14,0.08,2.29,0.32,3.42,0.28c2.1-0.07,4.19-0.28,6.28-0.44c0.24-0.02,0.48-0.1,1.09-0.24c-8.46-9.73-16.74-19.27-25.04-28.82
			c-0.38,0.24-0.69,0.44-1.05,0.67c-1.09-1.68-2.54-2.86-4.46-2.92c-2.42-0.06-4.87-0.38-7.26,0.52c-0.85,0.32-1.83,0.38-2.76,0.39
			c-3.2,0.05-6.39,0.11-9.59,0.01c-3.46-0.1-7,0.77-10.38-0.73c-0.34-0.15-0.79-0.06-1.19-0.06c-2.09,0-4.18,0.04-6.26,0
			c-1.85-0.03-2.46-0.65-2.47-2.42c-0.01-2.66,0.06-5.33,0.01-7.99C2.27,21.74,2.86,15.03,1.83,8.36C1.63,7.11,1.6,5.83,1.51,4.75
			c2.11-1.2,4.16-1.34,6.27-1.19C8.21,3.59,8.67,3.5,9.09,3.39c1.96-0.49,3.92-1.02,5.88-1.5c0.29-0.07,0.62-0.02,0.93-0.03
			c3.51-0.02,7.02,0.06,10.52-0.07c2.72-0.11,5.42-0.67,8.13-0.7c9.33-0.1,18.66-0.06,27.98-0.02c0.47,0,1.07,0.36,1.39,0.74
			c1.05,1.24,1.89,2.67,3.01,3.84c2.52,2.65,5.14,5.22,7.77,7.76c0.85,0.82,1.82,1.84,2.87,2.03c1.22,0.23,2.09,1.03,2.28,1.74
			c0.5,1.91,2.05,2.79,3.2,4.08c1.16,1.29,2.89,2.04,3.51,3.86c0.17,0.49,0.76,1.14,1.19,1.17c1.54,0.09,2.08,1.37,2.96,2.22
			c0.69,0.67,1.19,1.52,1.84,2.24c1.56,1.73,3.15,3.44,4.74,5.14c1.12,1.19,2.24,2.39,3.43,3.51c0.61,0.58,1.51,0.89,2.05,1.51
			c1.69,1.95,2.11,2.1,4.38,1.02c0.13,1.47,0.69,2.23,2.19,1.25c0.09-0.06,0.26-0.01,0.39,0c3.11,0.2,5.02-0.98,6.49-3.74
			c0.94-1.76,2.04-3.42,4.31-3.79c0.6-0.1,1.19-0.59,1.66-1.04c2.53-2.43,4.99-4.93,7.54-7.34c1.64-1.55,3.49-2.89,5.1-4.48
			c2.39-2.36,4.28-5.2,7.14-7.12c1.08-0.73,1.96-1.78,2.85-2.76c0.77-0.85,1.45-1.79,2.13-2.73c1.82-2.5,3.76-4.93,5.38-7.55
			c1.73-2.81,2.47-3.21,5.52-1.97c0.21,0.08,0.39,0.23,0.61,0.27c0.98,0.22,1.96,0.54,2.95,0.6c4.72,0.27,9.44-0.07,14.19,0.6
			c5.13,0.73,10.41,1.1,15.57-0.31c0.34-0.09,0.71-0.07,1.06-0.07c5.72,0,11.44,0,17.36,0c0.96,1.64,2.01,3.49,3.1,5.31
			C213.24,8.01,213.86,8.9,214.46,9.81z M62.72,153.41c-0.8,1-1.5,1.91-2.22,2.79c-0.8,0.97-1.06,2.05-0.62,3.24
			c0.47,1.24,1.43,1.87,2.75,2c1.9,0.19,3.74,0.2,5.66-0.26c1.49-0.36,3.15,0.03,4.74,0.04c5.64,0.04,11.27,0.11,16.91,0.08
			c3.59-0.02,7.24,0.14,10.76-0.4c3.87-0.59,7.66-0.83,11.47,0.02c5.31,1.18,10.69,0.67,16.04,0.68c1.93,0.01,3.86-0.5,5.79-0.54
			c6.39-0.15,12.78-0.19,19.17-0.3c1.86-0.03,3.26-0.87,3.94-2.65c0.67-1.77,0.19-3.3-1.17-4.6c-0.26-0.25-0.53-0.64-0.54-0.97
			c-0.03-2.16-1.05-3.67-2.81-4.84c-1.28-0.85-2.72-1.65-3.64-2.82c-2.05-2.59-3.93-5.32-5.67-8.13c-2.3-3.72-4.97-7.06-8.31-9.91
			c-3.3-2.82-6.44-5.83-9.62-8.79c-1.32-1.23-2.74-2.42-3.75-3.88c-2.28-3.27-4.18-6.8-7.02-9.67c-2.36-2.38-4.62-3.21-7.31-1.42
			c-1.32,0.88-2.44,1.71-2.83,3.32c-0.11,0.45-0.4,0.9-0.72,1.26c-1.02,1.14-2.09,2.25-3.15,3.36c-4.05,4.21-8.1,8.42-12.16,12.62
			c-2.58,2.68-5.2,5.32-7.74,8.05c-0.89,0.95-1.51,2.16-2.38,3.13c-0.64,0.72-1.55,1.2-2.21,1.9c-1.82,1.94-3.55,3.96-5.36,5.91
			c-0.83,0.9-1.82,1.65-2.64,2.56c-1.21,1.34-2.31,2.78-3.49,4.14c-1.13,1.3-2.32,2.56-3.62,3.98
			C61.67,153.36,62.13,153.39,62.72,153.41z"/>
	</g>
</g>
</svg>
