<!-- Generator: Adobe Illustrator 24.1.0, SVG Export Plug-In  -->
<svg version="1.1" xmlns="http://www.w3.org/2000/svg" xmlns:xlink="http://www.w3.org/1999/xlink" x="0px" y="0px"
	 width="200.03px" height="210.15px" viewBox="0 0 200.03 210.15" style="enable-background:new 0 0 200.03 210.15;"
	 xml:space="preserve">
<defs>
</defs>
<g>
	<g>
		<path fill="#fff" d="M101.7,0.43c7.05-1.7,14.01,1.98,21.23,4.46c4.27,1.46,7.72,4,10.48,7.5c0.99,1.26,1.94,2.64,2.53,4.12
			c1.25,3.16,3.15,5.88,4.97,8.7c1.15,1.79,2.08,3.79,2.72,5.82c1.23,3.95,2.37,7.96,3.21,12.01c0.69,3.36,1.28,6.83,1.22,10.25
			c-0.07,4.39-0.82,8.76-1.31,13.14c-0.25,2.19,0.09,4.1,1.13,6.18c1.01,2.02,1.4,4.55,1.37,6.85c-0.05,4.19,1.17,8.04,2.73,11.73
			c1.89,4.45,0.64,7.1-3.16,9.91c-4.13,3.05-8.17,6.21-12.29,9.26c-0.63,0.47-1.49,0.83-2.27,0.87c-2.13,0.12-4.27-0.05-6.4,0.09
			c-0.71,0.05-1.54,0.54-2.04,1.09c-3.52,3.85-4.38,8.55-4.34,13.58c0.02,2.56-0.26,5.13-0.39,7.7c-0.03,0.52-0.15,1.14,0.07,1.56
			c1.49,2.8-0.35,4.27-2.22,5.71c-2.12,1.62-4.34,3.11-6.4,4.79c-1.57,1.29-2.9,2.88-4.46,4.18c-1.36,1.14-2.87,2.12-4.39,3.04
			c-1.03,0.63-2,0.67-3.13-0.28c-1.03-0.86-2.59-1.05-3.8-1.75c-3.95-2.28-7.85-4.65-11.75-7.01c-3.19-1.93-6.33-3.93-9.54-5.82
			c-1.18-0.69-0.98-1.6-0.88-2.66c0.39-4.06,0.84-8.12,1.03-12.19c0.11-2.37-0.45-4.68-1.75-6.77c-0.77-1.23-1.36-2.57-2.01-3.88
			c-1.95-3.93-7.86-4.5-10.48-1c-2.43,3.24-5.95,3.33-8.63,0.29c-0.86-0.98-1.77-1.99-2.85-2.69c-4.57-2.92-6.86-7.2-7.88-12.37
			c-0.54-2.73-1.17-5.44-1.9-8.12c-0.2-0.75-0.87-1.4-1.39-2.04c-1.71-2.05-1.75-3.64,0.12-5.54c1.14-1.15,2.5-2.08,3.72-3.15
			c2.56-2.23,3.46-6.92,1.96-9.89c-0.17-0.34-0.26-0.81-0.17-1.17c1.45-5.85,1.03-11.72,0.62-17.66
			c-0.39-5.67-0.96-11.52,1.47-16.93c1.43-3.19,3.11-6.35,5.2-9.13c3.14-4.18,6.68-8.08,10.17-11.98c3.44-3.85,8.13-5.5,12.94-6.77
			c5.43-1.43,10.86-2.95,16.38-3.94C94.21-0.02,97.5,0.43,101.7,0.43z M116.37,98.12c1.07-0.12,1.91-0.14,2.72-0.33
			c1.75-0.4,3.49-0.87,5.22-1.36c2.38-0.67,4.88-1.1,7.09-2.14c3.67-1.74,5.87-5.14,8.01-8.4c0.66-1.01,0.41-2.71,0.34-4.09
			c-0.05-1-0.57-1.96-0.73-2.96c-0.25-1.57-0.91-2.3-2.47-2.23c-1.61,0.08-3.25,0.18-4.82,0.53c-2.66,0.59-5.25,1.43-7.9,2.08
			c-2.12,0.52-4.38,0.65-6.38,1.44c-1.77,0.7-3.28,2.1-4.91,3.16c-0.23,0.15-0.54,0.3-0.78,0.26c-1.06-0.18-1.62,0.3-2.1,1.21
			c-0.35,0.67-0.92,1.26-1.49,1.79c-1.57,1.47-1.94,5.28-0.49,6.81C110.08,96.43,113.17,97.62,116.37,98.12z M68.78,100.52
			c2.75-0.34,6.08-0.33,9.13-1.24c2.56-0.77,4.81-2.59,7.17-3.99c2.22-1.31,2.12-2.5,0.68-4.7c-0.61-0.94-1.71-1.75-2.76-2.16
			c-3.28-1.29-6.61-2.5-10-3.48c-6.44-1.87-12.96-3.09-19.68-1.37c-1.75,0.44-2.87,2.77-1.88,4.24c1.34,1.98,2.62,4.02,4.15,5.85
			C58.9,97.61,62.94,100.3,68.78,100.52z M90.26,116.55c-0.08,1.22,0.55,1.72,1.56,1.84c0.88,0.11,1.78,0.06,2.66,0.16
			c0.44,0.05,1,0.12,1.27,0.4c1.2,1.23,2.53,1.36,4.11,0.89c2.12-0.63,4.28-1.15,6.43-1.68c0.94-0.23,1.19-1.1,0.65-1.49
			c-1.64-1.18-1.49-3-2.03-4.59c-1.41-4.17-2.87-8.32-4.36-12.46c-0.5-1.39-2.02-1.67-3.02-0.48c-1.03,1.23-2.03,2.56-2.67,4
			c-0.97,2.19-1.63,4.53-2.4,6.81C91.71,112.16,90.99,114.36,90.26,116.55z"/>
		<path fill="#fff" d="M8.52,122.51c1.7-1.16,3.11-2.02,4.4-3.04c0.59-0.47,1.17-1.18,1.35-1.89c0.27-1.1,0.59-2.47,0.16-3.39
			c-0.67-1.44-2.31-1.65-3.84-1.52c-1.09,0.1-2.17,0.32-3.26,0.43c-1.09,0.1-2-0.26-2.35-1.4c-0.99-3.14-2.16-6.25-2.86-9.46
			c-0.9-4.08-1.73-8.22-2-12.37c-0.28-4.38,0.07-8.8,0.27-13.2c0.19-4.19,0.23-8.43,0.94-12.55c0.67-3.89,2.14-7.63,3.25-11.45
			c0.27-0.94,0.32-1.98,0.74-2.84c2.11-4.33,4.09-8.75,6.52-12.9c3.14-5.34,8.05-9.04,12.89-12.74c0.43-0.33,1.11-0.32,1.67-0.46
			c0.03,0.6,0.29,1.31,0.06,1.78c-1.36,2.72-2.71,5.45-4.28,8.05c-3.34,5.53-5.25,11.59-6.19,17.88c-0.86,5.8-1.27,11.68-1.54,17.55
			c-0.31,6.71,0.79,13.25,2.79,19.7c0.97,3.13,2.85,5.56,4.46,8.23c0.41,0.67,0.69,1.44,1.18,2.04c1.71,2.14,1.27,3.93-0.52,5.82
			c-1.63,1.73-1.56,3.21-0.23,5.25c1.28,1.95,3.31,2.05,5.04,0.22c0.32-0.34,0.57-0.73,0.99-1.28c0.82,1.2,1.62,2.27,2.28,3.42
			c0.15,0.26-0.14,0.85-0.35,1.22c-0.51,0.91-1.25,1.71-1.62,2.67c-0.65,1.69-0.14,3,1.23,3.81c1.36,0.8,3.19,0.49,4.29-0.72
			c0.24-0.27,0.47-0.54,0.86-0.97c1.02,1,2.04,1.89,2.93,2.9c0.67,0.76,0.33,1.34-0.54,1.85c-1.09,0.64-2.29,1.32-3,2.3
			c-0.52,0.72-0.6,2.01-0.38,2.93c0.26,1.1,1.33,1.58,2.51,1.45c2.28-0.25,4.58-0.47,5.33-3.29c0.05-0.18,1.07-0.35,1.44-0.15
			c0.57,0.31,0.93,0.97,1.42,1.44c1.51,1.44,1.54,1.94,0.03,3.43c-1.15,1.13-1.22,2.53-1.02,3.95c0.05,0.32,0.71,0.75,1.12,0.79
			c1.46,0.16,2.64-0.43,3.55-1.62c1.2-1.56,2.17-1.63,3.66-0.34c1.97,1.7,2.03,2.1,0.82,4.52c-0.3,0.61-0.53,1.26-0.74,1.91
			c-0.44,1.36-0.17,2.5,1.15,3.24c1.08,0.6,2.74,0.27,3.49-0.92c0.6-0.96,0.97-2.09,1.28-3.18c0.37-1.31,0.92-1.62,2.07-0.88
			c0.75,0.48,1.45,1.04,2.15,1.59c0.65,0.51,0.74,0.98,0.31,1.85c-0.63,1.27-1.04,2.73-1.2,4.14c-0.16,1.39,1.2,2.75,2.55,2.95
			c1.3,0.19,2.32-0.59,2.85-2.18c1.03-3.11,1.03-3.1,3.71-1.17c0.5,0.36,1.04,0.68,1.7,1.1c-0.63,1.34-1.31,2.57-1.81,3.87
			c-0.99,2.58,1.05,5.62,3.57,5.16c0.99-0.18,1.99-1.06,2.66-1.89c0.66-0.81,0.9-1.96,1.39-3.13c1.28,1.41,2.55,2.71,3.67,4.12
			c0.21,0.26-0.1,0.98-0.24,1.47c-0.68,2.41-0.27,3.21,2.2,3.43c2.15,0.19,4.29,0.43,6.35-0.94c1.2-0.8,2.85-1.16,4.33-1.26
			c3.9-0.26,7.85-0.96,11.63,0.81c0.56,0.26,1.21,0.51,1.81,0.49c2.69-0.11,4.65,1.53,6.69,2.84c1.22,0.79,1.86,0.38,2.47-0.51
			c1.34-1.98,0.68-3.8-0.75-5.6c1.32-0.99,2.61-1.95,3.86-2.89c0.84,0.79,1.49,1.64,2.35,2.17c1.28,0.78,2.71,0.92,3.98-0.11
			c1.16-0.95,1.38-2.12,0.81-3.53c-0.32-0.78-0.87-1.97-0.54-2.43c0.91-1.28,2.22-2.27,3.7-3.69c0.58,2.24,0.99,4.18,3.16,4.56
			c0.73,0.13,1.64,0.07,2.26-0.27c1.81-0.99,1.59-3.05-0.67-6.39c1.88-0.9,3.73-1.79,5.59-2.68c2.46,2.57,4.08,3.15,5.48,1.98
			c1.37-1.14,1.28-3.31-0.05-5.31c0.63-0.77,1.16-1.55,1.83-2.19c0.91-0.87,1.84-1.27,2.97-0.11c0.59,0.61,1.49,1,2.32,1.27
			c3.79,1.26,5.74-0.2,5.5-4.18c-0.05-0.8-0.63-1.76-1.26-2.3c-1.82-1.55-1.89-2.46-0.04-3.93c0.21-0.16,0.4-0.34,0.59-0.52
			c3.13-2.97,3.29-2.44,5.69,0.17c0.66,0.72,3.23,0.93,3.81,0.23c0.28-0.34,0.36-1.14,0.16-1.55c-0.89-1.87-1.64-3.86-3.78-4.84
			c-0.36-0.16-0.64-1.35-0.41-1.8c0.73-1.45,1.67-2.79,2.6-4.13c0.79-1.14,1.94-1.01,2.63,0.22c0.23,0.41,0.37,0.89,0.66,1.23
			c2.17,2.5,4.61,2.16,5.77-0.94c0.95-2.53,1.98-5.13,1.27-7.92c-0.28-1.1-0.91-2.11-1.2-3.21c-0.16-0.6-0.16-1.46,0.16-1.92
			c2.96-4.27,4.67-8.99,5.38-14.12c0.23-1.66,0.76-3.27,1.03-4.93c1.62-9.91,2.91-19.82,1.58-29.9c-0.86-6.56-2.35-12.89-5.71-18.68
			c-0.63-1.08-0.92-2.36-1.5-3.47c-0.57-1.08-1.22-2.16-2.02-3.07c-1.28-1.45-1.56-3.51-0.22-5.34c1.66,1.39,3.44,2.64,4.92,4.19
			c2.21,2.31,4.23,4.81,6.28,7.27c2.08,2.5,4.05,5.04,5.18,8.19c1.48,4.14,3.55,8.1,4.77,12.31c1.58,5.47,2.69,11.1,3.77,16.7
			c0.66,3.44,0.95,6.95,1.24,10.45c0.52,6.21-0.46,12.29-2.33,18.16c-1.74,5.47-3.95,10.8-5.9,16.05c-0.49,0.02-0.61,0.07-0.68,0.03
			c-2.03-1.06-3.87-1.02-5.53,0.77c-1,1.07-2.19,1.98-3.14,3.09c-0.42,0.49-0.61,1.29-0.67,1.97c-0.12,1.31,0.56,1.95,1.91,1.78
			c0.21-0.03,0.42-0.01,0.63-0.01c1.18,0.03,2.52-0.31,3.03,1.27c0.49,1.51-0.02,2.88-1.32,3.93c-0.48,0.39-0.84,0.91-1.33,1.46
			c-1.85-1.57-4.04-1.37-6.16-1.14c-2.14,0.23-3,1.36-3.14,3.65c-0.09,1.43,1.21,3.2,2.69,3.68c0.48,0.15,0.96,0.29,1.74,0.52
			c-1.51,1.9-2.85,3.58-4.23,5.31c-2.12-3.44-3.99-4.35-7.18-3.24c-0.96,0.34-2.06,1.21-2.42,2.11c-0.49,1.21,0.18,2.51,1.36,3.24
			c1.14,0.72,2.38,1.28,3.73,1.98c-0.27,0.3-0.63,0.71-0.98,1.12c-0.61,0.72-1.36,1.37-1.8,2.18c-1.1,2.04-1.68,2.15-3.18,0.35
			c-0.33-0.4-0.66-0.86-0.79-1.34c-0.29-1.06-1.06-1.22-1.94-1.2c-2.25,0.05-3.93,2.55-3.15,4.66c0.64,1.72,1.68,3.02,3.57,3.44
			c-0.62,1.53-1.83,2.51-4.69,3.81c-0.8-1.28-1.6-2.55-2.41-3.83c-0.75-1.2-1.88-1.23-3.06-0.9c-2.06,0.58-3.5,3.92-2.38,5.73
			c0.62,1.01,1.51,1.87,2.38,2.69c0.69,0.66,0.71,1.17,0.06,1.84c-0.99,1.01-1.9,2.1-2.89,3.12c-0.66,0.67-1.3,0.7-1.66-0.32
			c-0.4-1.13-0.62-2.37-1.21-3.39c-0.57-0.98-1.71-2.57-2.25-2.44c-1.36,0.33-2.87,1.23-3.69,2.35c-1.6,2.19-1.34,2.88,0.62,4.85
			c0.37,0.37,0.78,0.74,1.03,1.18c0.52,0.94,0.62,1.89-0.45,2.56c-0.85,0.53-1.69,1.09-2.61,1.45c-1.76,0.68-2.54,0.18-3.07-1.65
			c-0.28-0.95-0.69-1.87-1.12-2.77c-0.8-1.69-2.14-2.23-3.89-1.61c-1.97,0.7-2.92,2.22-2.28,4.02c0.42,1.16,1.06,2.28,1.81,3.27
			c1.46,1.92,1.43,2.99-0.41,4.55c-1.23,1.04-2.57,1.8-4.28,1.68c-1.09-0.08-1.61-0.52-1.6-1.66c0.01-1.42,0.06-2.86-0.17-4.24
			c-0.41-2.42-1.53-2.8-3.36-1.22c-1.11,0.96-2.17,1.99-3.2,3.03c-0.23,0.23-0.34,0.63-0.38,0.97c-0.29,2.85-0.16,5.64,0.78,8.4
			c1.22,3.59-0.6,6.66-4.31,7.52c-3.05,0.7-5.21,3.31-5.48,6.87c-0.23,2.94-0.98,5.72-2.68,8.09c-0.63,0.88-2.03,1.55-3.14,1.67
			c-2.76,0.29-5.56,0.24-8.34,0.25c-1.57,0-2.22-1.43-2.19-2.47c0.09-3.02-1.4-5.36-2.71-7.83c-0.61-1.14-0.98-2.41-1.58-3.55
			c-0.7-1.34-1.9-1.74-3.42-1.8c-1.12-0.04-2.84-0.28-3.22-1c-1.05-2-2.73-3.96-1.93-6.57c0.21-0.68,0.35-1.41,0.34-2.12
			c0-2.36-0.08-4.73-0.14-7.09c-0.06-2.28-1.93-3.71-4.17-3.19c-2.75,0.63-3.86,1.9-3.95,4.58c-0.04,1.15-0.87,1.59-1.69,1.34
			c-1.57-0.48-3.14-1.12-4.54-1.97c-0.95-0.58-0.69-1.73,0.45-2.31c2.12-1.09,3.31-2.76,3.74-5.12c0.42-2.31-1.41-2.9-2.69-3.97
			c-1.11-0.92-2.27-0.64-3.17,0.13c-1.31,1.1-2.53,2.35-3.58,3.7c-1.19,1.53-1.94,1.69-3.23,0.27c-0.35-0.39-0.7-0.78-1.07-1.15
			c-1.47-1.48-1.18-2.78,0.79-3.59c2.28-0.93,2.89-1.79,2.89-4.08c0-2.43-1.73-3.86-3.93-2.82c-1.63,0.77-3.17,2.08-4.29,3.51
			c-1.06,1.37-2.04,1.03-3.14,0.58c-1.6-0.66-2.74-2.37-2.33-3.36c0.13-0.31,0.6-0.5,0.94-0.7c1.4-0.82,2.72-1.78,2.81-3.53
			c0.04-0.79-0.22-1.92-0.77-2.37c-2.92-2.36-6.26-1.82-7.69,1.7c-0.67,1.66-1.28,1.84-2.59,0.58c-0.71-0.69-1.37-1.45-1.99-2.23
			c-0.73-0.94-0.1-1.62,0.51-2.33c1.63-1.89,1.46-5.09-0.31-6.53c-1.73-1.4-4.86-0.74-5.86,1.24c-0.94,1.86-1.4,1.98-3.06,0.71
			c-0.58-0.45-1.07-1-1.62-1.49c-0.97-0.88-0.99-1.69-0.02-2.67c1.6-1.63,1.93-3.66,1.46-5.83c-0.35-1.6-1.81-1.99-3.03-2.07
			c-0.83-0.05-1.74,0.81-2.57,1.33c-0.7,0.44-1.43,1.47-1.99,1.37c-0.82-0.16-1.77-0.94-2.18-1.71c-1.98-3.74-1.92-3.77,1.64-5.93
			c1.51-0.92,1.91-2.12,1.09-3.24c-0.88-1.2-2.95-1.42-4.09-0.45c-2.36,2.02-2.43,2.01-4.49-0.24
			C10.69,124.69,9.55,123.57,8.52,122.51z M108.48,188.94c3.03,0.03,4.85-1.17,4.88-3.42c0.01-1.04-0.65-2.27-1.37-3.1
			c-0.83-0.97-1.78-0.11-2.63,0.42c-0.7,0.43-1.6,0.61-2.2,1.14c-0.77,0.68-1.85,1.61-1.85,2.42c0,0.77,1.17,1.61,1.95,2.28
			C107.6,188.97,108.25,188.9,108.48,188.94z M85.85,184.25c0.2,2.24,0.84,3.66,2.6,4.47c1.34,0.61,2.53,0.56,3.68-0.35
			c1.25-0.99,1.24-2.1-0.04-3.06c-1.01-0.76-2.01-1.53-3.08-2.19c-0.58-0.35-1.54-0.85-1.9-0.62
			C86.46,182.92,86.12,183.84,85.85,184.25z M99.87,189.74c-0.18,0.06-0.36,0.12-0.55,0.18c-0.5,1.65-1.07,3.28-1.44,4.95
			c-0.1,0.43,0.34,1.38,0.66,1.44c0.96,0.18,1.99,0.13,2.95-0.05c0.21-0.04,0.42-1.03,0.33-1.53c-0.2-1.19-0.51-2.37-0.9-3.5
			C100.72,190.68,100.23,190.23,99.87,189.74z"/>
	</g>
</g>
</svg>
