<!-- Generator: Adobe Illustrator 25.0.1, SVG Export Plug-In  -->
<svg version="1.1" xmlns="http://www.w3.org/2000/svg" xmlns:xlink="http://www.w3.org/1999/xlink" x="0px" y="0px"
	 width="180.53px" height="232.18px" viewBox="0 0 180.53 232.18"
	 style="overflow:visible;enable-background:new 0 0 180.53 232.18;" xml:space="preserve">
<defs>
</defs>
<g>
	<path fill="#FFF" d="M134.31,219.61c-1.8-2.22-3.02-3.73-4.89-6.03c-1.11,1.7-2.52,3.03-2.9,4.61c-1.43,5.92-1.3,5.96-6.88,9.57
		c-0.2-1.98-0.03-3.78-0.63-5.28c-0.68-1.69-2.04-3.11-3.11-4.64c-1.23,1.44-2.86,2.7-3.61,4.36c-1.14,2.51-1.23,5.56-2.64,7.84
		c-0.82,1.31-3.64,2.48-5.04,2.04c-1.63-0.5-2.92-2.7-3.9-4.42c-0.61-1.06,0.08-2.96-0.62-3.85c-0.96-1.21-2.66-2.39-4.1-2.46
		c-0.95-0.05-2.18,1.75-2.95,2.94c-0.42,0.65-0.13,1.74-0.22,2.63c-0.19,1.78,0.58,4.35-2.63,3.99c-2.6-0.3-6.09,0.67-6.54-3.58
		c-0.18-1.77,0.27-3.71-0.31-5.29c-0.56-1.53-2.09-2.7-3.19-4.02c-1.26,1.22-3.14,2.23-3.62,3.7c-0.69,2.13-0.36,4.59-0.48,7.13
		c-3.93-0.34-5.47-2.65-6.28-5.63c-0.35-1.28-0.08-2.78-0.61-3.94c-0.48-1.04-1.57-2.16-2.62-2.45c-0.64-0.18-1.96,0.94-2.52,1.79
		c-1.59,2.41-2.95,4.97-4.97,8.45c-3.79-7.33-6.37-13.3-5.61-20.05c0.75-6.59-0.19-12.68-3.93-18.26c-0.56-0.83-0.84-1.88-1.09-2.87
		c-2.49-9.67-11.15-15.21-20.85-13.18c-3.94,0.82-7.17,1.26-9.26-3.62c-1.47-3.43-4.77-6.02-6.74-9.31c-2-3.33-3.77-6.93-4.9-10.63
		c-2.23-7.3-3.98-14.74-5.86-22.14c-1.08-4.25-1.72-8.1,2.48-11.66c4.94-4.18,5.33-11.37,3.01-17.51c-1.38-3.64-1.66-7.82-1.8-11.78
		c-0.14-3.82,0.29-7.71,0.91-11.5c1.51-9.31,1.4-19.49,5.36-27.66C16.74,34.6,23.5,21.78,35.9,14.38
		c6.87-4.09,14.75-6.82,22.49-9.03c17.4-4.96,35.14-6.38,53.29-4.64c10.55,1.01,19.77,4.76,28.67,9.79
		c5.84,3.3,11.77,6.76,16.74,11.18c4.43,3.94,8.2,8.95,11.14,14.13c2.48,4.36,3.66,9.57,4.84,14.54
		c2.48,10.51,5.63,21.02,6.55,31.69c0.9,10.53-0.73,21.26-1.05,31.91c-0.27,8.91-0.29,17.82-0.38,26.73
		c-0.01,0.88-0.05,2.01,0.43,2.61c4.06,5.04,0.83,9.01-2.14,12.58c-6.15,7.38-12.39,14.79-21.37,18.99
		c-1.34,0.63-3.27,0.98-4.59,0.52c-6.29-2.18-8.26-1.57-9.93,5.09c-1.49,5.95-2.16,12.12-2.97,18.22c-0.44,3.37-0.18,6.84-0.67,10.2
		C136.48,212.06,135.43,215.17,134.31,219.61z M58.49,101.4c6.04-3.65,6.04-3.65,8.14,2.81c2.93,8.99,13.97,17.18,23.34,17.3
		c12.44,0.16,24.47-7.96,28.61-19.49c0.81-2.27,1.02-4.77,1.49-7.13c6.03,0.95,9.85,3.67,8.92,6.68c-1.08,3.5,0.95,4.03,3.17,4.36
		c4.11,0.6,8.26,1.09,12.4,1.2c7.98,0.21,8.35-0.06,5.49-7.32c-1.99-5.06-5.17-9.66-7.78-14.4c-6.56,3.01-7.55,2.52-13.79-6.54
		c18.29-7.49,25.83-20.65,14.59-38.04c-9.34-14.45-23.52-13.27-37.66-3.9c0-2.89-0.91-5.85,0.17-7.08c3.64-4.18,1.9-7.87,0.17-11.88
		c-1.17-2.7-1.95-5.57-3.14-8.27c-0.46-1.06-1.46-2.45-2.36-2.57c-0.88-0.12-2.37,0.99-2.85,1.94c-1.85,3.65-3.12,7.62-5.16,11.14
		c-1.83,3.18-2.48,5.55,0.23,8.76c0.98,1.16-0.35,4.26-0.63,6.48c-1.67-0.66-3.84-0.86-4.94-2.04c-6.94-7.45-21.64-10.38-30.86-5.98
		c-5.51,2.63-8.85,7.19-11.39,12.47c-3.05,6.34-2.9,13.27-0.58,19.35c2.94,7.71,8.47,13.75,17.26,15.79
		c1.22,0.28,2.9,2.02,2.99,3.18c0.29,4-9.41,11.23-13.47,10.23c-2.53-0.62-4.34-0.25-5.36,2.4c-2.22,5.78-4.6,11.5-6.74,17.3
		c-1.05,2.85-0.32,4.88,3.26,4.11c4.06-0.88,8.14-1.76,12.06-3.09C57.64,107.95,60.46,105.81,58.49,101.4z M52.02,154.44
		c7.59-0.07,16.46-1.9,23.39-8.87c1.4-1.41,3.16-3.84,2.81-5.34c-1.04-4.43-3.74-7.88-8.42-9.56c-4.98-1.78-9.81-3.97-14.7-5.99
		c-5.57-2.3-10.97-5.18-16.73-6.77c-6.35-1.75-11.93-1.18-16.33,4.6c-4.06,5.33-2.8,10.17,1.05,14.91c0.46,0.56,0.62,1.35,1.01,1.97
		C30.08,149.12,38.04,155.44,52.02,154.44z M149.78,117.62c-5.03,0.65-8.96,0.75-12.65,1.72c-7.71,2.02-15.29,4.57-22.96,6.74
		c-3.81,1.08-7.49,4.79-6.94,8.15c1.92,11.73,9.36,19.93,22.12,18.83c3.81-0.33,7.5-2.24,11.29-2.42
		c9.96-0.47,15.84-6.3,20.58-14.17c2.99-4.96,2.54-13.37-2.09-16.48C156.33,118.13,152.25,118.19,149.78,117.62z M110.9,185.12
		c-0.25-0.29-0.5-0.57-0.75-0.86c-0.11-0.88,0-1.86-0.35-2.63c-4.37-9.58-5.07-20.62-11.62-29.3c-0.93-1.23-2.57-2.71-3.85-2.67
		c-1.32,0.04-2.92,1.55-3.82,2.83c-5.91,8.42-6.32,18.83-9.91,28.11c-1.33,3.44-1.07,6.28,2.76,8.13c4,1.93,7.15,0.38,9.33-2.59
		c2.28-3.11,3.26-4.09,5.09,0.29c1.3,3.11,4.55,4.65,7.72,3.51C107.62,189.17,109.13,186.77,110.9,185.12z"/>
	<path fill="#FFF" d="M135.36,54.5c-0.11,6.85-7.3,13.13-15.18,13.27c-4.71,0.08-10.26-5.86-10.18-10.92c0.13-8.52,6-15.34,13.32-15.04
		C129.91,42.08,136.24,48.12,135.36,54.5z"/>
	<path fill="#FFF" d="M80.95,52.4c0,6.4-4.36,10.01-12.24,10.16c-5.34,0.11-11.14-5.95-11.15-11.67c-0.02-6.88,5.48-12.53,12.22-12.54
		C75.98,38.35,80.96,44.6,80.95,52.4z"/>
	<path fill="#FFF" d="M93.8,83.77c6.71-0.86,9.79,3.07,10.29,10.27c0.5,7.18-4.93,12.72-11.66,12.8c-5.77,0.07-11.22-5.72-11.34-12.08
		C80.95,87.18,84.81,83.83,93.8,83.77z"/>
</g>
</svg>
