<!-- Generator: Adobe Illustrator 24.1.0, SVG Export Plug-In  -->
<svg version="1.1" xmlns="http://www.w3.org/2000/svg" xmlns:xlink="http://www.w3.org/1999/xlink" x="0px" y="0px"
	 width="196.36px" height="222.82px" viewBox="0 0 196.36 222.82" style="enable-background:new 0 0 196.36 222.82;"
	 xml:space="preserve">
<defs>
</defs>
<g>
	<g>
		<path fill="#fff" d="M170,195.52c-1.91-1.57-3.73-3.01-5.5-4.51c-1.07-0.91-2.18-1.2-3.51-0.66c-0.24,0.1-0.57,0.09-0.83,0.01
			c-2.71-0.81-5.1-0.6-7.19,1.64c-0.8,0.85-2.03,1.34-3.13,1.85c-3.92,1.8-7.89,3.49-11.79,5.32c-2.79,1.31-5.72,2.08-8.72,2.72
			c-2,0.43-3.99,0.6-6.03,0.63c-0.7,0.01-1.66,0.33-2.02,0.84c-0.9,1.26-2.19,1.31-3.46,1.61c-1.51,0.36-3.02,0.7-4.49,1.2
			c-1.29,0.43-1.88,1.46-2,2.83c-0.06,0.63-0.36,1.26-0.61,1.86c-0.93,2.31-1.83,4.63-2.86,6.89c-0.54,1.2-1.34,2.28-1.99,3.44
			c-0.3,0.54-0.51,1.14-0.73,1.63c-1.94-2.3-3.91-4.67-5.91-7.01c-0.58-0.68-1.32-1.24-1.85-1.95c-0.83-1.11-1.46-2.38-2.36-3.42
			c-0.82-0.96-1.83-1.8-2.86-2.55c-1-0.73-2.13-1.01-3.47-0.85c-2.36,0.27-4.6-0.21-6.86-1.17c-2.09-0.9-4.47-1.14-6.71-1.69
			c-0.54-0.13-1.13-0.22-1.59-0.5c-2.78-1.67-4.25-0.37-5.76,1.88c-0.52,0.77-0.98,1.58-1.48,2.36c-0.5,0.78-1,1.56-1.61,2.49
			c-0.35-0.72-0.66-1.35-0.98-1.97c-1.59-3.17-3.12-6.38-4.82-9.5c-0.45-0.82-1.41-1.36-2.17-1.99c-2.2-1.82-4.36-3.69-6.63-5.41
			c-1.74-1.32-3.61-2.47-5.46-3.64c-1.68-1.06-3.44-1.99-5.08-3.11c-1.02-0.69-1.88-1.62-2.82-2.44c-1.42-1.24-2.82-2.5-4.28-3.69
			c-0.93-0.75-1.94-1.39-2.92-2.08c-0.03-0.02-0.05-0.05-0.08-0.06c-1.71-0.27-2.08-1.84-2.92-2.97c-1.25-1.67-2.81-2.61-4.97-2.06
			c-0.36-0.47-0.66-1-1.09-1.39c-0.9-0.81-1.96-0.9-3.08-0.46c-0.99,0.39-1.98,0.78-2.96,1.17c-0.15,0.06-0.35,0.1-0.44,0.22
			c-1.35,1.63-3.4,1.49-5.16,2.07c-0.58,0.19-1.18,0.35-1.88,0.56c0.44-1.25,0.95-2.4,1.26-3.6c0.79-3.08,1.49-6.19,2.22-9.29
			c0.31-1.32,0.69-2.64,0.93-3.97c0.16-0.94,0.2-1.92,0.17-2.87c-0.08-2.31-1.77-3.49-4.02-2.97c-0.35,0.08-0.8-0.26-1.23-0.42
			c2.13-3.58,2.72-7.14,2.01-11.07c-0.47-2.56-0.39-5.21-0.55-7.83c0-0.03,0.01-0.07,0-0.1c-0.51-2.61-0.99-5.23-1.57-7.83
			c-0.1-0.47-0.53-0.92-0.93-1.25c-1.56-1.29-3.29-2.38-4.41-4.15c-0.18-0.29-0.53-0.48-0.81-0.72c1.14-0.64,2.23-1.3,3.36-1.89
			c1.64-0.87,2.18-2.42,2.3-4.05c0.15-2.12-0.04-4.25,0.03-6.38c0.05-1.46,0.27-2.91,0.45-4.36c0.36-2.9,0.98-5.78,1.06-8.69
			c0.1-3.57,1.63-6.68,2.56-9.98c0.67-2.4,1.18-4.84,1.78-7.26c0.1-0.41,0.31-0.8,0.46-1.2c0.43-1.14,0.95-2.21,0.88-3.53
			c-0.05-0.9,0.37-1.84,0.64-2.75c0.29-0.98,0.66-1.94,0.99-2.91c0.46-1.34,0.83-2.66,2.3-3.39c1.35-0.67,2.32-1.82,3.1-3.15
			c1.61-2.75,3.3-5.44,4.96-8.16c0.55-0.9,0.58-1.8,0.1-2.75c-0.13-0.26-0.15-0.65-0.07-0.94c0.27-0.99,2.08-2.08,3.12-2.11
			c1.37-0.04,2.67-0.29,3.62-1.52c1.09-1.42,2.34-2.72,3.47-4.11c0.43-0.53,0.71-1.17,1.08-1.75c0.14-0.22,0.28-0.46,0.48-0.6
			c1-0.69,1.39-1.65,1.37-2.83c-0.03-3.32-0.06-6.64-0.08-9.97c0-0.18,0.02-0.36,0.02-0.34c2.42,1.16,4.86,2.3,7.27,3.49
			c1.93,0.94,3.9,1.39,6.04,0.84c1.08-0.28,1.92-0.85,2.23-1.92c0.24-0.8,0.82-0.96,1.47-1.15c1.43-0.42,2.88-0.78,4.26-1.31
			c4.58-1.77,9.1-3.74,13.73-5.37c2.14-0.76,4.49-0.87,6.73-1.37c2.78-0.63,5.53-1.35,8.29-2.04c0.13-0.03,0.25-0.14,0.37-0.13
			c3.11,0.25,4.22-2.22,5.63-4.21c1.8-2.53,3.01-5.36,4.05-8.28C98.23,1.02,98.51,0.58,98.8,0c2.05,2.72,4.08,5.24,5.45,8.23
			c0.83,1.8,1.86,3.52,2.91,5.21c1,1.61,3.1,1.93,4.74,0.74c0.55-0.4,0.95-0.35,1.52-0.12c1.01,0.4,2.05,0.77,3.11,0.99
			c1.79,0.37,3.47,0.95,5.15,1.72c2.02,0.92,4.42,0.97,5.64-1.4c0.28-0.54,0.94-0.88,1.56-1.43c0.22,1.99,0.7,3.67,1.95,5.06
			c0.71,0.78,1.49,1.35,2.55,1.36c1.97,0.03,3.8,0.67,5.54,1.48c2.08,0.97,5.37,0.67,7-0.96c0.69-0.7,1.51-1.26,2.29-1.9
			c-0.14,1.9-0.33,3.72-0.38,5.54c-0.06,2.13,2.13,4.14,4.2,4.39c3.74,0.45,6.88-1.07,10.03-2.68c0.59-0.3,1.16-0.63,1.83-1
			c0,1.06-0.09,2.06,0.02,3.03c0.13,1.14,0.51,2.24,0.64,3.38c0.2,1.77,0.22,3.56,0.43,5.33c0.1,0.85,0.45,1.68,0.72,2.51
			c0.25,0.75,0.59,1.48,0.81,2.24c0.52,1.81,1.56,2.66,3.41,2.54c1.47-0.1,2.93-0.33,4.48-0.52c0.02,0.4,0.09,1,0.07,1.58
			c-0.1,2.92,0.73,5.59,1.97,8.22c1.42,3,3.34,5.65,5.26,8.32c0.27,0.37,0.6,0.72,0.95,1.02c1.32,1.13,1.32,2.83,1.94,4.26
			c0.62,1.43,1.22,2.9,2.07,4.19c2.57,3.86,4.1,8.12,4.98,12.61c0.66,3.39,1.44,6.73,2.39,10.04c0.55,1.92,0.61,3.98,0.93,5.97
			c0.29,1.86,0.75,3.7,0.92,5.57c0.24,2.64,0.32,5.3,0.39,7.95c0.06,2.49,0.2,5-0.03,7.47c-0.22,2.43-0.83,4.82-1.33,7.22
			c-0.56,2.66-1.2,5.31-1.79,7.96c-0.08,0.35-0.09,0.73-0.09,1.09c0.01,1.59,0.06,3.13-0.62,4.69c-0.49,1.11-0.51,2.45-0.63,3.69
			c-0.24,2.45-1.31,4.5-2.87,6.34c-0.3,0.35-0.55,0.75-0.76,1.16c-1.34,2.67-2.54,5.41-4.02,7.99c-1.89,3.31-3.99,6.5-6.04,9.72
			c-0.56,0.88-1.21,1.74-1.95,2.48c-1.35,1.36-1.44,3.2-1.94,4.85c-0.75,2.47-1.2,5.03-1.86,7.54c-0.43,1.64-1.04,3.22-1.48,4.86
			c-0.21,0.78-0.16,1.63-0.3,2.44C170.42,193.79,170.2,194.62,170,195.52z M153.98,131.42c0.05-0.09,0.1-0.18,0.15-0.27
			c1.93,0,3.85,0.07,5.78-0.02c1.56-0.08,3.23,0.14,4.52-1.14c0.18-0.17,0.55-0.17,0.84-0.2c1.41-0.16,2.83-0.28,4.23-0.48
			c0.41-0.06,0.89-0.22,1.17-0.5c1.4-1.41,2.54-3.03,2.66-5.08c0.1-1.72-0.09-3.47,0.03-5.19c0.12-1.63-0.49-2.8-1.68-3.83
			c-1.83-1.6-3.72-3.14-6.3-3c-1.78,0.09-3.11-0.34-3.98-2.08c0.96-0.83,1.98-1.66,2.95-2.56c1.91-1.78,3.81-3.59,5.68-5.42
			c1.7-1.67,2.75-3.15,0.96-5.45c-0.26-0.33-0.42-0.75-0.6-1.15c-0.96-2.07-1.91-4.15-2.86-6.22c-0.64-1.39-1.33-2.75-1.91-4.16
			c-0.7-1.68-1.2-3.45-2-5.08c-0.57-1.17-1.34-2.34-2.29-3.22c-1.12-1.03-2.49-1.82-3.85-2.55c-0.65-0.35-1.55-0.5-2.27-0.37
			c-0.92,0.17-1.92,0.53-2.63,1.12c-2.2,1.82-4.9,2.53-7.48,3.38c-4.44,1.46-9.06,2.37-13.3,4.45c-0.56,0.28-1.24,0.31-2.04,0.5
			c0.1-0.7,0.11-1.21,0.26-1.67c0.88-2.78,1.81-5.55,2.67-8.34c0.44-1.42,0.72-2.9,1.15-4.32c0.6-1.96,1.31-3.9,1.94-5.85
			c0.64-1.98,1.31-3.96,1.81-5.97c0.14-0.56-0.28-1.26-0.46-1.88c-0.15-0.52-0.38-1.02-0.47-1.55c-0.09-0.52-0.04-1.06-0.09-1.59
			c-0.15-1.67-1.59-2.84-3.21-2.42c-0.82,0.21-1.68,0.69-2.29,1.28c-1.24,1.23-2.32,2.64-3.48,3.96c-1.1,1.25-2.22,2.49-3.33,3.74
			c-0.11,0.12-0.13,0.31-0.23,0.44c-0.77,0.99-1.55,1.98-2.33,2.97c-0.25-0.38-0.29-0.6-0.29-0.83c-0.04-4.68-0.1-9.37-0.09-14.05
			c0-2.23-2.17-4.49-4.26-4.65c-1.52-0.12-3.07-0.52-4.5-1.07c-2.2-0.84-4.29-2-6.72-2.05c-3.06-0.06-6.12-0.15-9.18-0.14
			c-1.7,0.01-3.49-0.19-4.94,1.08c-0.16,0.14-0.43,0.17-0.66,0.19c-1.94,0.15-2.95,1.49-3.59,3.06c-0.63,1.56-1,3.23-1.47,4.86
			c-0.75,2.6-1.48,5.2-2.21,7.77c-1.75-3.09-3.52-6.16-5.22-9.27c-0.84-1.52-2-2.15-3.59-1.75c-1.61,0.41-2.42,1.5-2.37,3.22
			c0.08,2.69,0.29,5.38,0.23,8.06c-0.06,3.02-0.38,6.03-0.55,9.05c-0.07,1.29,0.04,2.58-0.63,3.78c-0.16,0.29-0.13,0.71-0.13,1.08
			c-0.01,2.62-0.01,5.23-0.01,7.85c0,0.43,0,0.86,0,1.28c-0.09,0.03-0.19,0.06-0.28,0.09c-0.53-0.53-1.09-1.04-1.58-1.61
			c-1.3-1.51-2.51-3.1-3.87-4.55c-1.75-1.86-3.59-3.65-5.46-5.39c-1.4-1.31-2.84-2.61-4.39-3.73c-1.41-1.02-2.97-1.85-4.51-2.67
			c-1.73-0.92-3.49-0.59-5,0.62c-2.02,1.61-3.4,3.73-4.69,5.89c-0.58,0.96-0.61,2.28-1.25,3.17c-1.29,1.78-0.68,3.58-0.36,5.36
			c0.41,2.3,1.74,4.21,2.89,6.2c1.26,2.18,2.43,4.41,3.66,6.61c0.42,0.75,0.89,1.47,1.36,2.2c0.7,1.08,1.45,2.13,2.1,3.24
			c0.48,0.83,0.76,1.77,1.24,2.6c1.18,2,2.43,3.96,3.63,5.95c0.26,0.44,0.43,0.93,0.71,1.56c-0.32-0.12-0.44-0.16-0.56-0.2
			c-3.04-1.03-6.05-2.21-9.14-3.04c-3.97-1.07-8.02-1.87-12.04-2.76c-0.87-0.19-1.78-0.39-2.65-0.31c-1.71,0.14-3.27,2.31-3.11,4.07
			c0.03,0.34-0.04,0.7-0.12,1.04c-0.14,0.57-0.44,1.13-0.47,1.7c-0.12,2.42-0.09,4.86-0.26,7.27c-0.11,1.63,0.43,2.81,1.73,3.77
			c0.66,0.49,1.2,1.15,1.75,1.76c0.16,0.18,0.34,0.52,0.27,0.7c-0.41,1.03-0.89,2.04-1.34,3.06c-0.3,0.68-0.89,1.38-0.85,2.05
			c0.15,2.83,0.3,5.69,0.81,8.47c0.32,1.77,0.61,3.5,0.67,5.31c0.07,1.98,1.42,4.38,3.67,4.2c1.04-0.08,2.13-0.29,3.09-0.7
			c3.02-1.3,5.98-2.72,8.97-4.08c0.6-0.27,1.23-0.49,1.99-0.78c-0.26,1.12-0.5,1.99-0.66,2.87c-0.46,2.48-0.87,4.97-1.34,7.45
			c-0.35,1.89-0.91,3.75-1.08,5.65c-0.19,2.08,0.64,4.01,2.16,5.38c1.92,1.73,4.4,2.84,5.73,5.25c0.45,0.82,1.18,1.5,1.6,2.34
			c0.68,1.35,1.91,2.26,3.35,2.01c1.42-0.25,2.76-0.82,3.66-2.03c1.49-2,2.89-4.06,4.39-6.05c0.64-0.85,1.43-1.58,2.29-2.51
			c0.06,1.18,0.04,2.08,0.16,2.96c0.47,3.38,0.94,6.76,1.52,10.13c0.32,1.85,0.9,3.61,2.93,4.42c1,0.4,1.9,1.07,2.85,1.62
			c1.69,0.99,4.78,0.39,6.06-1.07c1.32-1.51,2.14-3.25,2.86-5.09c0.51-1.3,1.19-2.53,1.83-3.87c0.45,1.16,0.82,2.15,1.23,3.13
			c0.42,1.01,0.89,2,1.3,3.01c0.14,0.35,0.25,0.76,0.23,1.13c-0.15,2.24,0.83,3.87,3.03,4.39c1.49,0.35,2.96,0.78,4.44,1.13
			c1.47,0.35,3.07,0.17,4.61,0.15c1.62-0.02,3.25-0.1,4.87-0.21c2.07-0.15,4.15-0.32,6.21-0.55c2.22-0.25,3.6-1.4,3.77-3.77
			c0.04-0.52,0.12-1.14,0.43-1.5c1.03-1.19,1.18-2.65,1.46-4.07c0.33-1.7,0.59-3.41,0.83-4.86c1.79,2.55,3.66,5.24,5.57,7.89
			c0.32,0.44,0.8,0.88,1.3,1.03c0.97,0.3,2,0.55,3.01,0.55c1.55,0,3.11-0.4,4.64-0.31c2.5,0.15,4.19-1.48,6.13-2.53
			c0.56-0.3,0.93-1.21,1.09-1.91c0.18-0.79,0.12-1.66,0.01-2.48c-0.43-3.02-0.89-6.03-1.39-9.04c-0.85-5.21-1.75-10.41-2.59-15.62
			c-0.19-1.2-0.22-2.43-0.32-3.64c0.47,0.38,0.69,0.81,1.03,1.12c2.72,2.49,5.45,4.97,8.19,7.44c1.48,1.33,3,2.62,4.46,3.97
			c1.1,1.01,2.1,2.13,3.22,3.11c2.03,1.77,5.18,1.25,7.07,0.01c2.02-1.32,2.75-3.48,3.32-5.72c0.55-2.16,0.34-4.19-1.02-5.95
			c-1.77-2.28-3.65-4.47-5.51-6.68C156.06,133.72,155.01,132.58,153.98,131.42z"/>
	</g>
</g>
</svg>
