<!-- Generator: Adobe Illustrator 24.1.0, SVG Export Plug-In  -->
<svg version="1.1" xmlns="http://www.w3.org/2000/svg" xmlns:xlink="http://www.w3.org/1999/xlink" x="0px" y="0px"
	 width="218.98px" height="204.02px" viewBox="0 0 218.98 204.02" style="enable-background:new 0 0 218.98 204.02;"
	 xml:space="preserve">
<defs>
</defs>
<g>
	<g>
		<path fill="#fff" d="M0,21.87c2.65,0.83,5.29,1.7,7.95,2.49c3.92,1.17,7.91,1.94,12,2.08c4.28,0.14,8.56,0.2,12.84,0.28
			c1.38,0.03,2.76,0,4.42,0c-0.95-1.96-1.75-3.89-2.79-5.69c-1.41-2.45-3.07-4.75-4.46-7.21c-0.81-1.43-1.2-3.09-1.94-4.56
			c-1.33-2.64-2.78-5.21-4.17-7.81c-0.21-0.39-0.38-0.81-0.65-1.41c1.78,0,3.39-0.08,4.99,0.02C31.59,0.26,35,0.78,38.4,0.8
			c5.75,0.02,11.5-0.21,17.25-0.43c1.29-0.05,1.83,0.27,2.1,1.6c1.2,5.96,2.42,11.93,4.63,17.63c0.94,2.43,1.79,4.9,2.77,7.32
			c0.11,0.27,0.74,0.45,1.14,0.47c5.28,0.16,10.57,0.19,15.84,0.45c5.62,0.28,11.21,0.28,16.82-0.3c3.22-0.33,6.5-0.17,9.75-0.22
			c6.96-0.09,13.93-0.23,20.89-0.23c5.16,0,10.32,0.13,15.48,0.27c2.44,0.07,4.87,0.32,7.3,0.5c0.85,0.06,1.32-0.19,1.69-1.06
			c0.44-1.03,1.35-1.85,1.8-2.87c0.45-1,0.48-2.18,0.86-3.22c0.81-2.24,1.83-4.42,2.58-6.68c1.37-4.09,3.02-8.11,3.16-12.52
			c0.01-0.25,0.47-0.69,0.73-0.7c5.25-0.16,10.5-0.29,15.75-0.38c0.52-0.01,1.05,0.33,1.58,0.32c2.56-0.03,5.11-0.2,7.66-0.19
			c3.07,0.01,6.14,0.12,9.2,0.27c0.95,0.05,0.98,0.7,0.38,1.61c-1.76,2.67-3.67,5.28-5.06,8.14c-1.28,2.64-1.89,5.59-2.93,8.35
			c-1.07,2.84-2.3,5.61-3.54,8.63c1.57-0.11,3.08-0.15,4.57-0.32c3.18-0.38,6.36-0.78,9.54-1.25c4.28-0.63,8.54-1.34,12.81-2.02
			c1.65-0.26,3.29-0.53,4.94-0.75c0.27-0.04,0.72,0.08,0.83,0.27c0.12,0.21,0.01,0.63-0.13,0.89c-0.21,0.4-0.51,0.76-0.79,1.12
			c-0.58,0.76-0.81,1.5-0.61,2.53c0.43,2.2-0.59,4.04-1.82,5.78c-0.36,0.5-0.64,1.05-0.96,1.58c-0.64,1.06-1.29,2.11-1.91,3.19
			c-0.6,1.04-1.2,2.08-1.75,3.15c-1.87,3.67-3.65,7.38-5.58,11.01c-0.93,1.75-3.48,2.47-5.85,1.83c-4.08-1.1-8.21-2.03-12.43-2
			c-3.99,0.03-7.97,0.57-11.95,0.63c-1.7,0.02-2.09,0.96-2.64,2.15c-1.1,2.37-2.37,4.66-3.46,7.04c-0.85,1.85-1.46,3.8-2.28,5.66
			c-0.57,1.28-1.31,2.49-1.97,3.73c-0.85,1.61-1.68,3.24-2.54,4.85c-1.41,2.63-2.85,5.25-4.27,7.87c-1.48,2.73-2.96,5.47-4.43,8.2
			c-1.63,3.04-3.28,6.07-4.87,9.13c-1.94,3.73-3.41,7.64-4.64,11.66c-0.89,2.9-2.36,5.55-4.09,8.08c-1.47,2.15-2.62,4.52-3.83,6.84
			c-2.25,4.31-4.44,8.64-6.63,12.98c-0.62,1.22-1.31,2.45-1.66,3.76c-0.24,0.89-0.19,2.03,0.17,2.87
			c2.76,6.44,5.69,12.79,10.82,17.8c1.34,1.31,2.46,2.86,3.86,4.09c1.36,1.19,2.91,2.17,4.46,3.12c1.04,0.64,1.13,1.01,0.21,1.83
			c-1.23,1.1-2.86,2.06-3.48,3.46c-1.06,2.37-3.15,3.64-4.71,5.46c-1.93,2.26-4.12,4.35-5.69,6.84c-0.79,1.26-1.63,2.41-2.61,3.49
			c-0.55,0.61-1.05,1.28-1.64,1.86c-1.62,1.63-3.3,3.19-4.89,4.84c-1.91,1.99-3.1,1.74-3.98-0.97c-1.77-5.41-3.51-10.84-5.29-16.25
			c-0.14-0.42-0.43-0.79-0.63-1.19c-0.35-0.71-0.84-1.41-0.97-2.16c-0.23-1.41-0.72-2.2-1.8-2.35c-1.09-0.15-2.3,0.61-2.79,1.68
			c-1.32,2.86-2.69,5.69-3.98,8.56c-0.77,1.71-1.4,3.48-2.16,5.18c-1.42,3.19-2.83,6.38-4.39,9.5c-0.3,0.6-1.23,0.88-1.68,1.19
			c-1.27-1.21-2.46-2.28-3.57-3.41c-1.08-1.1-2.09-2.26-3.12-3.41c-2.92-3.24-5.85-6.48-8.74-9.74c-0.46-0.52-0.94-1.14-1.1-1.78
			c-0.5-1.98-1.77-3.38-3.27-4.59c-1.48-1.2-3.05-2.3-4.61-3.39c-0.92-0.64-1.28-1.53-1.24-2.57c0.04-0.96,0.64-1.46,1.58-1.67
			c0.33-0.07,0.62-0.39,0.88-0.65c6.97-6.93,13.09-14.56,18.54-22.73c0.74-1.11,1.27-2.35,2.05-3.43c1.27-1.74,1.65-3.46,0.78-5.55
			c-1.63-3.89-2.9-7.95-4.67-11.77c-2.32-5.01-5.02-9.85-7.48-14.8c-0.89-1.78-1.67-3.63-2.31-5.52c-1.08-3.2-3.2-5.8-4.77-8.7
			c-2.88-5.32-5.38-10.85-8.08-16.28c-1.07-2.14-2.28-4.21-3.37-6.34c-3.31-6.41-6.59-12.84-9.88-19.26
			c-0.6-1.18-1.27-2.33-1.78-3.55c-0.55-1.29-1.53-1.65-2.79-1.63c-2.08,0.04-4.18-0.02-6.25,0.15c-1.77,0.14-3.57,0.35-5.25,0.87
			c-4.43,1.38-8.8,2.98-13.21,4.44c-1.85,0.61-1.68,0.38-2.96-1.01c-1.94-2.12-4.25-3.89-6.25-5.96c-0.95-0.99-1.65-2.27-2.27-3.51
			c-0.89-1.78-1.62-3.65-2.39-5.49c-1.05-2.49-2-5.02-3.13-7.47c-0.77-1.65-1.72-3.22-2.7-4.76c-1.27-1.98-2.64-3.91-4-5.83
			C0.94,24.18,0.43,23.8,0,23.37C0,22.87,0,22.37,0,21.87z M83.52,51.24c0.36,1.14,0.71,1.87,0.82,2.64
			c0.83,5.44,3.14,10.36,5.63,15.14c2.15,4.12,4.57,8.11,7.23,11.97c2.8,4.07,5.15,8.46,7.57,12.78c1.6,2.87,3.03,5.84,4.44,8.81
			c1.2,2.52,2.26,5.11,3.38,7.67c0.15-0.01,0.3-0.02,0.45-0.03c1.37-2.81,2.75-5.61,4.1-8.42c2.23-4.64,4.38-9.32,6.69-13.92
			c1.54-3.07,2.83-6.29,5.2-8.9c0.73-0.8,1.1-1.94,1.54-2.97c0.89-2.04,1.72-4.11,2.56-6.18c0.36-0.88,0.65-1.79,1.01-2.68
			c0.33-0.81,0.61-1.65,1.07-2.38c2.35-3.65,4.38-7.43,5.37-11.71c0.31-1.33,0.3-1.45-1.02-1.49c-4.45-0.15-8.9-0.34-13.36-0.41
			c-5.33-0.09-10.63-0.52-15.99-0.12c-5.73,0.43-11.5,0.22-17.26,0.27c-1.7,0.01-3.41-0.05-5.12-0.07
			C86.48,51.23,85.13,51.24,83.52,51.24z"/>
	</g>
</g>
</svg>
