<!-- Generator: Adobe Illustrator 24.1.0, SVG Export Plug-In  -->
<svg version="1.1" xmlns="http://www.w3.org/2000/svg" xmlns:xlink="http://www.w3.org/1999/xlink" x="0px" y="0px" width="88.73px"
	 height="215.76px" viewBox="0 0 88.73 215.76" style="enable-background:new 0 0 88.73 215.76;" xml:space="preserve">
<defs>
</defs>
<g>
	<g>
		<path fill="#fff" d="M45.18,215.76c-1.35-0.15-2.72-0.27-4.06-0.47c-0.81-0.12-1.73-0.2-2.38-0.63c-1.77-1.18-3.64-2.34-5.06-3.88
			c-1.47-1.59-2.6-3.56-3.61-5.5c-0.88-1.69-0.15-3.13,1.43-4.16c1.45-0.95,2.59-2.25,2.82-4.09c0.03-0.28-0.11-0.68-0.32-0.87
			c-0.89-0.81-1.9-1.49-2.75-2.34c-1.37-1.36-0.67-4.33,1.04-5.2c0.8-0.41,2.12-0.54,1.91-1.99c-0.04-0.27-0.18-0.53-0.27-0.79
			c1.9-0.26,1.95-0.26,1.89-2.27c-0.1-3.65-0.34-7.3-0.38-10.94c-0.05-4.26,0.05-8.52,0.07-12.78c0.01-1.79-0.05-3.58-0.01-5.36
			c0.01-0.38,0.23-0.86,0.52-1.12c1.35-1.2,1.59-2.42,0.67-3.96c-0.2-0.33-0.36-0.7-0.64-0.94c-1.24-1.02-1.23-2.38-1.22-3.82
			c0.03-14.76,0.01-29.52,0.03-44.29c0-0.89,0.02-1.61-1.11-1.87c-0.37-0.08-0.89-0.76-0.87-1.15c0.18-3.87-0.42-7.77,0.48-11.62
			c0.22-0.93,0.68-1.39,1.43-1.7c0.78-0.33,0.93-0.72,0.32-1.35c-0.14-0.15-0.25-0.39-0.27-0.59c-0.25-4.02-0.54-8.03-0.71-12.05
			c-0.12-2.93-0.06-5.87-0.09-8.8c-0.01-1.28-1.29-2.63-2.54-2.67c-4.41-0.16-8.82-0.31-13.22-0.47c-0.3-0.01-0.67,0.04-0.9-0.11
			c-1.57-0.99-3.32-0.62-5.01-0.67c-1.94-0.07-3.9-0.15-5.83-0.01c-0.83,0.06-1.74,0.54-2.4,1.09c-1.39,1.16-2.66,1.02-2.95-0.72
			c-0.36-2.15-0.33-4.38-0.41-6.57c-0.05-1.45,0.07-2.9-0.03-4.35c-0.09-1.23-0.55-2.45-0.55-3.68c0-8.05,0.07-16.09,0.13-24.14
			c0.01-1.83,0.36-3.73,0-5.47C-0.35,10.27,0.26,7.14,0.15,4C0.13,3.36,0.22,2.7,0.36,2.07c0.41-1.93,2.32-2.65,3.96-1.55
			c0.33,0.22,0.8,0.21,1.15,0.42C6.11,1.32,6.7,1.81,7.33,2.22c0.5,0.33,1.03,0.84,1.56,0.86c1.42,0.05,2.85-0.14,4.27-0.21
			c1.63-0.08,3.26-0.17,4.89-0.18C28.65,2.6,39.24,2.52,49.84,2.48c1.74-0.01,3.47,0.31,5.21,0.35c3.12,0.06,6.25,0.12,9.37,0.01
			c5.24-0.18,10.47-0.5,15.71-0.76c0.19-0.01,0.48,0.01,0.54-0.1c0.83-1.32,2.38-0.99,3.54-1.54c0.88-0.42,2.36,0.36,2.77,1.43
			c0.29,0.76,0.48,1.59,0.52,2.39c0.2,3.5,0.06,7.03,0.52,10.49c1.34,10.06,0.28,20.15,0.61,30.21c0.13,3.96,0.03,7.93,0,11.89
			c-0.01,1.53-0.39,1.69-1.85,2.01c-1.25,0.27-2.11,0.09-3.09-0.73c-0.7-0.59-1.69-0.7-2.78-0.46c-1.69,0.36-3.47,0.37-5.22,0.4
			c-2.59,0.04-5.19-0.09-7.78-0.03c-3.04,0.07-6.08,0.25-9.11,0.42c-1.14,0.06-2.6,1.94-2.6,3.37c-0.01,1.98,0.05,3.97,0.05,5.95
			c0,2.51,0,5.03-0.07,7.54c-0.04,1.28-0.32,2.55-0.37,3.83c-0.03,0.71,0.21,1.44,0.29,1.91c-0.13,1.2-0.25,2.22-0.37,3.33
			c1.77,0.2,1.98,1.46,2,2.77c0.04,3.24,0.04,6.47,0.02,9.71c0,0.3-0.16,0.64-0.34,0.9c-0.47,0.71-1,1.38-1.55,2.15
			c-0.07-0.03-0.31-0.11-0.67-0.24c0,0.42,0,0.75,0,1.09c-0.01,14.69-0.04,29.37-0.01,44.06c0,1.2-0.5,2.04-1.08,3
			c-0.81,1.34-1.4,2.83-1.98,4.3c-0.34,0.85,0.4,1.26,0.95,1.75c0.32,0.28,0.64,0.76,0.65,1.15c0.08,3.62,0.07,7.24,0.13,10.86
			c0.04,2.78,0.18,5.55,0.21,8.33c0.04,3.76,0.01,7.53,0.01,11.45c1.04,0,2.24,0,3.12,0c0.48,1.5,1.08,2.74,1.24,4.04
			c0.2,1.64,0.1,3.34-0.02,4.99c-0.02,0.28-0.79,0.66-1.25,0.73c-0.84,0.12-1.11,0.64-1.15,1.32c-0.04,0.75-0.42,1.62,0.54,2.14
			c0.53,0.29,1.16,0.51,1.54,0.94c0.47,0.52,0.94,1.21,1.04,1.87c0.16,1.16,0.01,2.36,0.03,3.54c0.07,3.62-1.69,6.05-4.86,7.58
			c-0.34,0.17-0.78,0.25-1.01,0.51c-1.3,1.52-3.06,2.06-4.91,2.43C47.32,215.76,46.25,215.76,45.18,215.76z M55.52,8.39
			c-0.06-0.04-0.12-0.08-0.17-0.12c-0.12,0.09-0.27,0.15-0.35,0.27c-1.8,2.85-4.59,4.06-7.7,4.89c-0.86,0.23-1.74,1-2.25,1.76
			c-1.11,1.62-2.43,2.75-4.38,3.22c-0.76,0.18-1.54,0.68-2.1,1.25c-0.77,0.77-1.28,1.79-1.99,2.62c-0.93,1.08-1.87,2.19-2.98,3.07
			c-0.76,0.6-2.36,0.13-2.52-0.55c-0.22-0.98,0.53-1.39,1.24-1.8c1.4-0.8,2.4-1.87,2.89-3.51c0.29-0.97,0.84-2.15,1.63-2.63
			c1.44-0.88,1.84-2.3,2.74-3.59c-3.83,1.11-3.78,1.15-6.11,3.95c-0.81,0.97-1.8,1.98-2.92,2.45c-2.05,0.87-3.57,2.21-4.53,4.1
			c-0.77,1.52-1.87,2.38-3.43,2.9c-4.59,1.54-7.09,4.9-7.72,9.58c-0.6,4.51,0.97,8.32,4.61,11.06c3.72,2.8,7.92,3.52,12.16,1.42
			c2.15-1.06,4.3-1.6,6.61-1.91c1.07-0.14,2.2-0.45,3.1-1.01c1.35-0.83,2.61-0.93,4.01-0.33c1.45,0.62,2.86,0.5,4.14-0.39
			c1.64-1.14,3.21-2.36,4.89-3.6c-1.16-0.57-2.19-0.66-3.24-0.22c-0.81,0.34-1.65,0.62-2.41,1.05c-1.14,0.65-2.15,0.67-3.31-0.02
			c-0.74-0.44-1.67-0.68-2.53-0.73c-0.77-0.04-1.57,0.27-2.34,0.49c-1,0.28-1.83,0.19-2.28-0.87c-0.38-0.89,0-2.15,1.02-2.47
			c1-0.31,2.23-0.53,3.19-0.24c3.06,0.92,5.77,0.8,8.1-1.64c0.91-0.95,2.04-1.09,3.28-0.82c1,0.22,2.01,0.5,3.02,0.57
			c0.77,0.06,1.75,0.1,2.31-0.3c1.52-1.08,2.86-2.4,4.49-3.83c-1.84-0.54-3.21-0.29-4.57,0.06c-1.37,0.35-2.76,0.73-4.15,0.14
			c-2.29-0.97-4.37-0.61-6.37,0.79c-0.52,0.36-1.17,0.78-1.74,0.75c-0.71-0.04-1.51-0.39-2.06-0.85c-0.64-0.53-0.27-1.28,0.14-1.86
			c0.35-0.49,0.74-0.96,1.17-1.4c1.49-1.55,3.46-1.91,5.46-1.95c3.23-0.05,5.77-1.12,7.35-4.11c0.94-1.76,2.44-2.43,4.5-2.16
			c2.05,0.27,3.8-0.51,5.22-2.04c1.34-1.45,2.75-2.85,4.07-4.33c1.11-1.25,2.11-2.59,3.16-3.89c-2.36,0.25-4.32,1.08-5.73,2.87
			c-2.18,2.76-4.92,3.83-8.37,2.89c-1.88-0.51-3.46,0.01-4.73,1.48c-0.35,0.4-0.79,0.74-1.07,1.18c-1.09,1.69-2.69,2.27-4.6,2.26
			c-1.71-0.01-3.18,0.63-4.56,1.59c-0.78,0.54-1.62,1.06-2.51,1.33c-0.71,0.22-1.61,0.25-2.3,0.01c-1.35-0.46-1.49-1.88-0.28-2.62
			c0.72-0.45,1.59-0.8,2.42-0.9c1.65-0.2,2.86-1,3.44-2.47c0.9-2.3,2.47-3.86,4.64-4.96c0.75-0.38,1.54-1.01,1.9-1.73
			C54.72,11.24,55.05,9.78,55.52,8.39z"/>
	</g>
</g>
</svg>
