<!-- Generator: Adobe Illustrator 24.1.0, SVG Export Plug-In  -->
<svg version="1.1" xmlns="http://www.w3.org/2000/svg" xmlns:xlink="http://www.w3.org/1999/xlink" x="0px" y="0px"
	 width="180.29px" height="221.63px" viewBox="0 0 180.29 221.63" style="enable-background:new 0 0 180.29 221.63;"
	 xml:space="preserve">
<defs>
</defs>
<g id="CZg9uR.tif_1_">
	<g>
		<path fill="#fff" d="M80.01,110.56c-1.35,2.09-3.31,1.31-5.11,0.79c-1.57-0.45-3.05-1.16-4.74-1.22c-0.81-0.02-1.6-0.44-2.41-0.63
			c-2.91-0.69-5.81-1.37-8.73-2.03c-2.05-0.46-4.09-1.01-6.17-1.25c-1.29-0.15-2.64,0.23-4.05,0.38c0.51,1.11,0.42,2.24,1.11,3.27
			c0.57,0.85,0.6,2.08,0.8,3.15c0.49,2.6,0.83,5.23,1.42,7.81c0.76,3.31,1.75,6.56,2.54,9.86c0.55,2.33,0.59,4.72-0.46,6.93
			c-0.68,1.44-2.07,2.3-3.53,2.74c-2,0.61-4.08,0.97-6.13,1.41c-1.66,0.36-3.35,0.61-4.98,1.05c-1.59,0.43-3.11,0.99-4.57,1.9
			c-2.28,1.42-4.82,2.43-7.24,3.62c-0.03,0.01-0.05,0.02-0.08,0.03c-1.81,0.73-1.9,1.05-0.77,2.66c0.62,0.88,1.19,1.8,1.82,2.68
			c0.28,0.4,0.59,0.8,0.96,1.1c2.09,1.74,4.18,3.49,6.33,5.16c1.61,1.25,3.3,2.39,4.95,3.58c1.51,1.09,3.08,2.12,4.51,3.3
			c0.92,0.76,1.64,1.75,2.47,2.66c0.95-0.12,1.89,0.63,2.22,1.8c0.53,1.91,1.07,3.82,1.61,5.73c0.03,0.11,0.08,0.22,0.08,0.34
			c0.03,0.99,0.05,1.98,0.07,2.97c-1.29,0.84-2.44,2.01-4.09,2.06c-0.52,0.01-1.08-0.31-1.57-0.57c-0.76-0.42-1.48-0.93-2.21-1.4
			c-0.36-0.23-0.71-0.47-1.08-0.69c-0.42-0.25-0.82-0.65-1.26-0.7c-1.72-0.17-2.89-1.38-4.27-2.15c-1.93-1.08-3.8-2.25-5.69-3.39
			c-0.69-0.42-1.39-0.82-2.04-1.29c-1.73-1.24-3.46-2.47-5.14-3.77c-1.27-0.98-2.47-2.06-3.72-3.08c-0.66-0.55-1.36-1.05-2.01-1.61
			c-2.1-1.78-4.21-3.55-5.58-6.04c-0.77-1.4-1.78-2.68-3.16-3.6c-0.33-0.22-0.59-0.6-0.78-0.96c-0.67-1.27-1.44-2.51-1.91-3.85
			c-0.44-1.25-1.39-2.08-2-3.14c-0.73-1.25-1.37-2.66-1.26-4.24c0.03-0.41-0.05-0.93-0.29-1.23c-0.73-0.9-0.62-1.92-0.68-2.95
			c-0.04-0.66-0.31-1.31-0.49-1.96c-0.17-0.62-0.39-1.22-0.53-1.85c-0.18-0.83-0.13-1.76-0.49-2.5c-0.59-1.21-0.48-2.46-0.64-3.7
			c-0.09-0.7-0.47-1.37-0.71-2.05c-0.11-0.31-0.25-0.64-0.26-0.96C0.02,119.37,0,114.01,0,108.65c0-0.33,0.03-0.74,0.22-0.98
			c0.74-0.93,0.7-2.03,0.82-3.12c0.05-0.49,0.27-0.96,0.44-1.43c0.07-0.19,0.27-0.34,0.29-0.52c0.18-1.25,0.82-2.38,1.08-3.56
			c0.36-1.61,1-3.02,1.84-4.38c0.09-0.14,0.21-0.32,0.2-0.47c-0.04-1.47,0.74-2.71,1.31-3.96c0.67-1.47,1.57-2.88,2.57-4.15
			c3.11-3.95,6.83-7.26,11.12-9.87c3.21-1.96,6.5-3.82,9.87-5.49c2.62-1.3,5.44-2.2,8.12-3.39c3.07-1.36,5.97-3.01,8.16-5.65
			c2.6-3.14,4.39-6.61,4.45-10.79c0.04-2.48,0-4.96,0.09-7.43c0.06-1.74,0.15-3.5,0.44-5.22c0.21-1.26,0.72-2.48,1.18-3.69
			c0.47-1.23,1.07-2.41,1.56-3.63c0.44-1.11,0.79-2.25,1.24-3.35c0.43-1.05,1-1.97,1.9-2.78c1.38-1.24,2.52-2.75,3.75-4.15
			c0.47-0.54,0.94-1.09,1.37-1.66c0.31-0.4,0.56-0.85,0.84-1.28c0.14-0.21,0.26-0.45,0.43-0.62c0.22-0.22,0.53-0.37,0.74-0.6
			c2.39-2.59,5.72-2.65,8.83-3.14c4.15-0.65,8.35-0.72,12.56-0.71c2.64,0.01,5.29-0.16,7.92-0.4c1.36-0.12,2.72-0.45,4.03-0.87
			c2.24-0.72,4.61-1.16,6.54-2.58c1.26-0.93,2.5-1.93,3.58-3.07c1.63-1.73,3.08-3.64,4.68-5.4c0.27-0.29,0.92-0.32,1.39-0.3
			c0.13,0.01,0.33,0.61,0.34,0.94c0.05,0.98,0,1.96,0.02,2.94c0.02,1.62-0.92,2.88-1.58,4.23c-0.8,1.67-1.92,3.11-3.18,4.48
			c-1.25,1.36-2.15,3.06-3.43,4.4c-1.08,1.13-2.47,1.95-3.74,2.89c-0.12,0.09-0.33,0.08-0.5,0.08c-1.22,0.06-2.17,0.7-3.06,1.44
			c-0.49,0.4-0.9,0.95-1.45,1.21c-2.58,1.24-4.29,3.33-5.79,5.65c-0.11,0.17-0.29,0.34-0.3,0.52c-0.11,2.13-1.41,3.96-1.37,6.15
			c0.05,3.02-0.12,6.04-0.28,9.06c-0.15,2.78,0.71,5.32,1.6,7.89c0.75,2.17,1.45,4.4,1.74,6.66c0.2,1.57-0.22,3.26-0.6,4.85
			c-1.15,4.8-4.04,8.72-6.53,12.86c-1.24,2.06-3.28,2.99-4.83,4.57c-2.01,2.05-4.11,4.05-5.95,6.24c-1.56,1.86-2.31,4.19-2.46,6.62
			c-0.15,2.44-0.32,4.88,0.3,7.31c0.54,2.11,1.69,3.85,3.15,5.38C77.02,107.84,78.54,109.16,80.01,110.56z"/>
		<path fill="#fff" d="M35.38,151.75c1.08-1.46,2.87-1.99,4.68-2.52c2.15-0.63,4.28-1.31,6.41-2.01c2.71-0.88,5.4-1.81,8.1-2.71
			c0.97-0.32,2-0.53,2.91-0.97c0.52-0.25,0.93-0.83,1.27-1.33c0.56-0.83,1.06-1.71,1.5-2.61c0.52-1.05,1.07-2.12,1.36-3.24
			c0.14-0.56-0.3-1.25-0.42-1.9c-0.07-0.38-0.02-0.77-0.02-1.16c-0.01-0.54,0.11-1.11-0.04-1.61c-0.82-2.76-1.68-5.51-2.59-8.24
			c-1.07-3.22-2.22-6.42-3.29-9.63c-0.13-0.38-0.18-1.03,0.03-1.23c0.41-0.39,0.91-0.87,1.67-0.52c1.12,0.52,2.34,0.84,3.41,1.45
			c2.68,1.54,5.59,2.14,8.61,2.49c0.59,0.07,1.17,0.43,1.7,0.74c0.99,0.57,1.89,1.32,2.93,1.78c0.84,0.37,1.82,0.52,2.74,0.55
			c1.29,0.04,2.47,0.23,3.59,0.97c1.4,0.92,3.03,0.24,3.68-1.42c0.92-2.38,1.81-4.79,2.75-7.16c0.29-0.74,0.77-1.41,1.09-2.15
			c1.03-2.37,2.04-4.75,3.04-7.13c0.91-2.17,1.8-4.36,2.72-6.53c0.47-1.11,0.97-2.21,1.54-3.27c0.15-0.28,0.59-0.55,0.9-0.56
			c0.5-0.01,0.99,0.13,1.16,0.8c1.12,4.3,2.84,8.38,4.56,12.47c0.21,0.5,0.3,1.05,0.47,1.57c0.84,2.51,1.7,5.01,2.52,7.52
			c0.4,1.22,0.61,2.53,1.16,3.69c0.99,2.07,2.44,3.74,4.72,4.55c0.89,0.32,1.76,0.77,2.51,1.34c0.91,0.7,1.74,0.44,2.68,0.18
			c1.4-0.4,2.82-0.72,4.25-1.03c4.2-0.91,8.59-1.08,12.5-3.16c0.3-0.16,0.66-0.39,0.96-0.35c0.46,0.06,0.95,0.26,1.32,0.54
			c0.14,0.1,0.08,0.62-0.03,0.9c-0.93,2.29-1.95,4.55-2.83,6.86c-0.51,1.33-0.79,2.74-1.24,4.1c-0.72,2.17-1.64,4.29-2.22,6.51
			c-0.57,2.22-0.24,4.39,1.54,6.06c0.48,0.45,1.19,0.67,1.79,1c0.82,0.46,1.65,0.92,2.46,1.38c0.75,0.43,1.51,0.83,2.22,1.31
			c1.36,0.91,2.66,1.92,4.05,2.79c2.07,1.3,4.19,2.51,6.29,3.77c0.52,0.31,1.03,0.63,1.51,1c0.74,0.58,0.6,1.53-0.18,2.06
			c-1.45,0.98-2.87,2.02-4.3,3.03c-0.09,0.07-0.16,0.18-0.26,0.23c-1.98,1.05-3.95,2.13-5.96,3.12c-1.05,0.52-2.19,0.89-3.29,1.31
			c-1.15,0.44-1.81,1.31-2.1,2.46c-0.29,1.15-0.61,2.28-1.53,3.12c-0.1,0.09-0.17,0.25-0.18,0.39c-0.02,1.17-0.55,2.14-1.1,3.12
			c-0.17,0.31-0.26,0.72-0.25,1.08c0.03,1.17-0.33,2.18-0.98,3.15c-0.16,0.24-0.05,0.83,0.14,1.13c0.56,0.92,1.33,1.72,1.81,2.68
			c1.52,3,2.94,6.06,4.41,9.09c0.83,1.7,1.71,3.37,2.53,5.07c0.2,0.43,0.32,0.94,0.32,1.41c0,1.44-0.53,1.84-1.92,1.52
			c-3.03-0.69-6-1.53-8.85-2.86c-2.15-1.01-4.52-1.52-6.77-2.33c-1.16-0.42-2.28-0.96-3.38-1.53c-1.36-0.71-2.72-0.95-4.12-0.21
			c-0.96,0.51-1.89,1.09-2.83,1.65c-0.17,0.1-0.32,0.3-0.5,0.33c-1.79,0.34-3.06,1.53-4.36,2.65c-0.37,0.32-0.71,0.78-0.85,1.24
			c-1.01,3.42-1.96,6.86-2.93,10.29c-0.05,0.16-0.12,0.32-0.2,0.48c-1.61,3.21-3.17,6.45-4.86,9.62c-0.53,0.99-1.37,1.83-2.14,2.67
			c-0.12,0.13-0.75,0.02-0.92-0.18c-0.77-0.91-1.71-1.8-2.13-2.87c-0.64-1.64-0.84-3.44-1.37-5.13c-0.33-1.05-0.9-2.03-1.37-3.04
			c-0.46-0.99-1.01-1.95-1.37-2.97c-1.02-2.9-1.96-5.84-2.94-8.76c-0.08-0.24-0.24-0.46-0.32-0.71c-0.85-2.6-2.99-3.09-5.3-3.23
			c-2.14-0.13-4.2,0.4-6.28,0.8c-1.15,0.22-2.37,0.09-3.52,0.33c-2.98,0.63-5.92,1.52-8.92,2.01c-2.38,0.39-4.44,1.55-6.67,2.27
			c-0.9,0.29-1.83,0.47-2.75,0.69c-0.25,0.06-0.51,0.07-0.77,0.06c-0.72-0.02-1.45-0.07-2.26-0.11c-0.11-0.5-0.29-1.21-0.42-1.93
			c-0.03-0.16,0.11-0.37,0.23-0.52c1.87-2.33,3.28-4.93,4.59-7.6c0.23-0.47,0.74-0.8,1.01-1.25c1.03-1.7,2.02-3.42,3.02-5.13
			c0.46-0.8,0.89-1.61,1.33-2.42c0.63-1.14,1.26-2.27,1.87-3.42c0.06-0.12,0.02-0.36-0.07-0.48c-1.02-1.39-1.05-3.14-1.71-4.67
			c-0.52-1.22-0.91-2.49-1.36-3.73c-0.06-0.16-0.17-0.33-0.17-0.49c0.01-2.06-1.43-3.18-2.81-4.3c-3.24-2.64-6.66-5.01-10.33-7.02
			c-0.81-0.44-1.47-1.17-2.14-1.82C38.14,154.61,36.8,153.2,35.38,151.75z M94.02,174.43c2.92,0.2,5.44-0.71,7.59-2.69
			c0.48-0.44,1.03-0.82,1.6-1.13c3.4-1.84,5.33-4.65,5.74-8.5c0.06-0.56,0.19-1.14,0.4-1.66c1.14-2.92,1.1-5.79-0.2-8.65
			c-0.2-0.44-0.33-0.93-0.38-1.4c-0.35-3.4-1.96-6.02-4.8-7.91c-0.54-0.36-1.05-0.8-1.49-1.29c-2.12-2.33-4.74-3.48-7.89-3.5
			c-1.28-0.01-2.58,0.01-3.85-0.11c-3.7-0.35-6.63,1.31-9.41,3.45c-0.47,0.36-0.98,0.7-1.52,0.96c-3.86,1.87-5.88,4.93-6.09,9.21
			c-0.03,0.62-0.13,1.26-0.3,1.86c-0.47,1.69-0.67,3.37-0.21,5.11c0.27,1,0.54,2.02,0.59,3.04c0.15,3.14,1.29,5.78,3.73,7.78
			c1.62,1.33,3.28,2.64,5.05,3.77c2.69,1.71,5.62,2.64,8.88,2.01C92.31,174.6,93.17,174.54,94.02,174.43z"/>
		<path fill="#fff" d="M171.03,117.47c0.85,0.01,1.61,0.25,2.11,0.94c2.12,2.94,4.19,5.92,5.36,9.41c0.26,0.79,0.5,1.59,0.81,2.37
			c0.61,1.51,0.94,3.04,0.9,4.7c-0.06,2.5,0.05,5.01,0.08,7.51c0,0.34,0.03,0.72-0.1,1.02c-0.99,2.32-0.97,4.8-1.32,7.23
			c-0.31,2.14-0.99,4.27-1.79,6.3c-1.5,3.81-3.51,7.37-5.82,10.76c-0.81,1.19-1.95,1.93-3,2.82c-1.62,1.37-3.25,2.75-4.77,4.22
			c-2.27,2.19-4.5,4.4-7.54,5.51c-2.16,0.79-4.32,1.57-6.5,2.32c-1.14,0.39-2.32,0.64-3.44,1.07c-0.85,0.33-1.61,0.87-2.44,1.26
			c-1.84,0.86-3.77,1.36-5.81,1.5c-0.52,0.03-0.81-0.18-1.09-0.64c-1.13-1.88-1.69-3.95-2.21-6.05c-0.1-0.39-0.18-0.79-0.33-1.16
			c-0.73-1.9-0.24-3.2,1.15-4.6c1.51-1.52,3.36-2.23,5.25-2.98c0.62-0.25,1.22-0.69,1.68-1.18c1.42-1.5,2.74-3.09,4.17-4.58
			c0.77-0.81,1.61-1.57,2.52-2.22c1.62-1.16,2.42-2.89,3.4-4.5c0.16-0.26,0.2-0.74,0.07-0.99c-0.56-1.01-0.37-2.08-0.31-3.13
			c0.04-0.71-0.2-1.07-0.82-1.41c-2.34-1.3-4.66-2.62-6.93-4.03c-1.88-1.16-3.65-2.51-5.53-3.67c-2.02-1.24-4.11-2.38-6.19-3.51
			c-0.91-0.5-1.07-1.24-0.26-1.89c0.78-0.62,1.6-0.97,2.69-0.92c2.49,0.12,4.98,0.21,7.46-0.43c1.03-0.26,2.18-0.13,3.27-0.03
			c3.92,0.36,7.82,0.98,11.74,1.14c3.41,0.14,6.51-1.05,8.68-3.84c0.92-1.18,1.52-2.64,2.11-4.03c0.74-1.75,1.56-3.52,1.88-5.36
			c0.38-2.17,1.59-4.18,1.33-6.46C171.4,119.13,171.19,118.33,171.03,117.47z"/>
	</g>
</g>
</svg>
