<!-- Generator: Adobe Illustrator 23.0.4, SVG Export Plug-In  -->
<svg version="1.1" xmlns="http://www.w3.org/2000/svg" xmlns:xlink="http://www.w3.org/1999/xlink" x="0px" y="0px"
     width="109.32px" height="232.7px" viewBox="0 0 109.32 232.7" style="enable-background:new 0 0 109.32 232.7;"
     xml:space="preserve">
<defs>
</defs>
<g id="PebTEM_2_">
    <g>
        <path fill="#fff" d="M109.32,93.36c0,2.08,0,4.16,0,6.24c-0.18,0.69-0.44,1.37-0.51,2.07c-0.34,3.29-0.68,6.59-0.9,9.89
            c-0.1,1.5,0.17,3.03,0.05,4.53c-0.37,4.46-0.8,8.91-1.3,13.36c-0.41,3.69-0.75,7.41-1.5,11.04c-0.97,4.69-2.26,9.31-3.54,13.92
            c-0.3,1.06-0.92,2.2-1.74,2.91c-1.18,1.03-1.76,2.22-1.99,3.68c-0.14,0.95-0.26,1.9-0.33,2.85c-0.19,2.46-0.69,4.82-1.98,6.97
            c-0.92,1.53-1.85,3.07-2.76,4.6c-0.83,1.4-1.87,1.83-3.33,1.16c-1.98-0.9-3.75-0.43-5.42,0.71c-1.16,0.79-2.27,1.64-3.37,2.51
            c-0.36,0.29-0.7,0.67-0.91,1.08c-0.45,0.89-1.13,1.23-2.06,1.01c-1.07-0.25-1.24,0.21-1.12,1.15c0.16,1.18,0.35,2.39,0.25,3.56
            c-0.14,1.57-0.51,3.12-0.84,4.66c-0.61,2.93-1.28,5.85-1.86,8.78c-0.11,0.55,0.05,1.15,0.08,1.73c0.19,0.04,0.39,0.09,0.58,0.13
            c0.3-0.58,0.73-1.13,0.87-1.75c0.74-3.35,1.62-6.7,2.03-10.1c0.42-3.47,3.07-4.77,5.26-6.64c1.34,1.58,1.32,2.42,0.39,4
            c-0.72,1.22-1.49,2.53-1.76,3.89c-0.67,3.45-1.15,6.93-1.56,10.42c-0.52,4.32-1.55,8.42-4.43,11.82c-1.55,1.83-3.2,3.57-4.82,5.35
            c-0.74,0.81-1.6,1.24-2.76,1.17c-0.55-0.03-1.17,0.16-1.67,0.43c-0.88,0.47-1.67,1.1-2.53,1.6c-1.21,0.69-1.94,1.7-2.4,3.01
            c-0.63,1.77-1.29,3.53-2.1,5.22c-1.15,2.39-3.44,3.02-5.73,1.65c-1.44-0.86-2.83-1.81-4.19-2.79c-0.83-0.6-1.74-1.23-2.3-2.06
            c-2.77-4.05-6.02-7.78-8.13-12.28c-0.4-0.85-1.19-1.51-1.66-2.33c-0.75-1.29-1.53-2.6-2.04-4c-0.72-1.97-1.21-4.02-1.79-6.04
            c-0.16-0.57-0.43-1.16-0.39-1.72c0.09-1.13-0.36-1.93-1.18-2.6c-1.17-0.97-2.35-1.92-3.5-2.91c-2.58-2.21-4.09-4.97-4.24-8.42
            c-0.11-2.55-1.06-4.81-2.57-6.85c-0.33-0.44-0.78-1-0.73-1.46c0.08-0.77,0.52-1.49,0.8-2.24c0.52,0.26,1.1,0.44,1.54,0.79
            c0.65,0.52,1.17,1.21,1.83,1.73c0.52,0.41,1.12,0.78,1.75,0.96c1.04,0.3,1.67,0.88,1.87,1.94c0.48,2.51,0.99,5.01,1.42,7.52
            c0.23,1.35,0.86,2.07,2.25,2.22c0-0.68,0.08-1.37-0.02-2.03c-0.22-1.46-0.54-2.9-0.8-4.36c-0.2-1.12,0.25-1.9,1.52-2.52
            c1.09,2.44,2.13,4.8,3.2,7.15c0.26,0.57,0.6,1.1,0.9,1.66c0.12-0.03,0.25-0.06,0.37-0.08c0.19-0.51,0.39-1.01,0.56-1.53
            c0.65-2,1.11-4.09,1.97-6c1.06-2.35,0.9-3.96-1.06-5.65c-1.72-1.49-3.5-2.93-5.14-4.51c-1.22-1.17-2.61-1.88-4.17-2.49
            c-2.82-1.1-5.84-2.02-8.27-3.72c-2.39-1.67-4.91-2.92-7.46-4.22c-0.61-0.31-1.22-1.19-1.28-1.86c-0.08-0.92,0.17-2,0.64-2.8
            c1.81-3.11,3.89-6.06,5.61-9.21c0.96-1.76,1.45-3.78,2.03-5.71c0.29-0.98-0.14-1.77-1.33-2.21c-0.86,2.77-2.13,5.23-4.65,6.99
            c-0.24-1.24-0.48-2.49-0.25-3.64c0.93-4.69,0.87-9.09-1.75-13.41c-1.44-2.37-2.11-5.23-2.93-7.93c-0.78-2.56-1.61-5.09-3.56-6.96
            c-4.39-4.22-5.72-9.63-6.34-15.38c-0.59-5.46,1.17-10.43,3.31-15.28c0.76-1.72,1.88-3.35,3.1-4.8c1.85-2.2,3.82-4.33,5.95-6.26
            c2.53-2.3,2.1-4.39,0.78-6.61c-0.76-1.27-1.65-2.46-2.4-3.73c-2.12-3.64-1.72-6.48,1.32-9.35c1.48-1.4,2.57-3.01,3.25-4.96
            c0.4-1.15,0.96-2.33,1.73-3.26c1.65-1.99,1.74-3.99,0.64-6.23c-1.23-2.49-1.08-5.11-0.49-7.74c0.17-0.75,0.56-1.22,1.41-1.15
            c0.78,0.06,1.21,0.45,1.39,1.23c0.64,2.84,1.32,5.66,1.97,8.49c0.4,1.76,0.29,3.43-0.46,5.14c-0.77,1.74-1.43,3.56-1.82,5.42
            c-0.57,2.74-1.17,5.37-3.27,7.44c-0.42,0.41-0.65,1.41-0.46,1.96c0.65,1.9,1.52,3.85,3.3,4.86c1.72,0.98,3,2.34,4.4,3.63
            c0.89,0.82,1.43,0.72,1.87-0.39c1.17-2.96,3.12-5.27,5.68-7.12c2.63-1.9,3.04-3.73,1.52-6.61c-1.03-1.94-2.1-3.86-3-5.86
            c-1.72-3.82-1.66-7.42,1.49-10.61c1.2-1.22,1.78-2.73,2.05-4.48c0.37-2.43,1.12-4.81,1.7-7.21c0.27-1.08,0.62-2.15,0.81-3.25
            c0.99-5.99,1.93-11.99,2.9-17.98c0.11-0.69,0.15-1.52,1.14-1.57c0.93-0.05,1.55,0.43,1.71,1.33c0.29,1.67,0.72,3.36,0.73,5.04
            c0.03,5.11,0.36,10.27-0.98,15.27c-0.92,3.44-1.03,6.84-0.27,10.31c0.55,2.51,0.66,4.97-0.89,7.27c-0.26,0.39-0.11,1.23,0.12,1.75
            c0.42,0.94,1.02,1.81,1.57,2.69c2.58,4.13,2.97,8.69,2.64,13.4c-0.05,0.65-0.01,1.31-0.01,1.96c0.13,0.07,0.26,0.14,0.39,0.21
            c0.47-0.29,1.01-0.5,1.39-0.88c1.9-1.87,3.27-1.85,5.02,0.11c0.32,0.36,0.6,0.77,0.99,1.04c0.51,0.35,1.1,0.81,1.66,0.82
            c2.86,0.01,4.91,1.43,6.63,3.54c2.02,2.48,3.44,5.19,3.44,8.48c0,1.23,0.58,1.76,1.88,1.97c1.06,0.17,2.11,0.86,3.01,1.52
            c0.84,0.62,1.49,1.5,2.38,2.43c0-0.99,0.11-1.78-0.02-2.53c-0.35-1.96-0.65-3.96-1.26-5.85c-1.43-4.43-0.98-8.68,0.98-12.81
            c0.23-0.49,0.83-1.03,1.34-1.13c1.7-0.33,2.13-0.55,2.38-2.29c0.27-1.85,0.41-3.73,0.52-5.6c0.08-1.35,0.44-2.53,1.63-3.29
            c0.87-0.55,1.78-0.32,2.03,0.63c0.9,3.41,2.44,6.74,1.38,10.42c-0.05,0.19-0.03,0.4-0.02,0.6c0.13,2.54,0.26,5.08,0.4,7.62
            c0.26,4.99,0.52,9.98,0.77,14.96c0.02,0.36-0.01,0.72-0.06,1.07c-0.19,1.57-0.4,3.14-0.6,4.71c-0.15,1.18-0.2,2.39-0.45,3.55
            c-0.37,1.71-0.92,3.39-1.34,5.1c-0.75,3.04-0.37,5.83,1.87,8.21c0.72,0.77,1.11,0.77,1.63-0.1c0.98-1.65,1.98-3.28,2.92-4.96
            c0.24-0.43,0.46-0.99,0.41-1.47c-0.29-2.86-0.43-5.76-1.06-8.55c-0.73-3.24-0.57-6.27,0.52-9.4c0.82-2.34,1.27-4.82,1.71-7.27
            c0.41-2.31,0.54-4.67,0.88-6.99c0.25-1.65,1-3.3,0.92-4.91c-0.18-3.42-0.73-6.83-1.21-10.23c-0.23-1.65-1.25-2.85-2.71-3.6
            c-2.08-1.05-3.41-2.74-3.83-4.94c-0.49-2.54-0.82-5.13-0.88-7.71c-0.07-2.91,0.86-5.63,2.91-7.79c1.52-1.6,1.97-3.44,1.64-5.52
            c-0.27-1.69-0.59-3.39-1.02-5.04c-0.82-3.12-1.36-6.25-0.8-9.48c0.14-0.82,0.39-1.52,1.34-1.56c0.9-0.04,1.35,0.51,1.55,1.36
            c0.44,1.82,0.86,3.66,1.4,5.45c1.38,4.63,2.83,9.24,4.23,13.86c0.54,1.78,0.48,3.53-0.25,5.28c-0.27,0.64-0.31,1.4-0.34,2.11
            c-0.15,3.7,0.47,7.43-0.37,11.11c-0.07,0.3-0.05,0.66,0.04,0.95c0.55,1.7,1.17,3.38,1.71,5.08c0.54,1.7,1.51,3.43,1.44,5.12
            c-0.17,4.01-0.59,8.05-1.38,11.99c-0.71,3.59-0.68,6.92,0.79,10.3c0.81,1.85,1.29,3.84,1.84,5.8c0.3,1.07,0.33,2.22,0.66,3.28
            c0.71,2.3,0.87,4.63,0.68,7c-0.32,4-0.33,4.01,2.95,6.25c0.46,0.31,0.97,0.55,1.65,0.94c0.34-3.5,0.27-6.62-0.98-9.61
            c-1.02-2.46-1.5-5.04-0.83-7.62c0.61-2.34,1.55-4.6,2.42-6.87c0.72-1.87,1.11-3.68,1.03-5.78c-0.14-3.69,1.17-4.8,4.4-3.63
            c0.15,0.05,0.3,0.11,0.46,0.13c0.93,0.1,1.33,0.57,1.23,1.52c-0.06,0.55,0,1.12,0.05,1.68c0.36,3.73,0.35,7.42-0.76,11.05
            c-0.15,0.49-0.16,1.02-0.26,1.53C107.05,88.12,108.47,90.68,109.32,93.36z M24.54,77.53c-0.45,0.41-0.83,0.7-1.15,1.04
            c-2.96,3.14-5.92,6.28-8.86,9.44c-2.74,2.95-4.17,6.62-4.04,10.47c0.14,4.36,0.88,8.76,1.89,13.02c1.44,6.09,3.65,11.99,4.5,18.23
            c0.06,0.46,0.31,0.89,0.47,1.34c0.16-0.02,0.32-0.05,0.49-0.07c0-1.89,0.09-3.79-0.02-5.67c-0.12-1.95-0.55-3.88-0.63-5.83
            c-0.13-2.92-0.55-5.7-2.37-8.14c-1.04-1.38-1.08-2.97-0.46-4.56c0.3-0.78,0.72-1.53,0.91-2.34c0.17-0.71,0.27-1.52,0.09-2.21
            c-0.59-2.27-0.04-4.11,2.03-5.34c1.49-0.89,3.13-1.52,4.8-2.31c0.2,2.04-0.24,3.68-1.93,4.81c-0.75,0.5-0.93,0.99-0.48,1.9
            c0.34,0.68,0.39,1.6,0.28,2.37c-0.19,1.25-0.66,2.46-0.93,3.71c-0.14,0.65,0.11,1.34,0.86,1.27c0.45-0.04,1.09-0.53,1.23-0.96
            c1.01-3.02,1.88-6.08,2.86-9.11c0.62-1.92,1.66-3.6,3.05-5.1c0.49-0.53,0.82-1.56,0.68-2.26c-0.82-4.19-1.79-8.35-2.72-12.51
            C24.97,78.34,24.75,78,24.54,77.53z M73.74,167.66c1.43,0,2.45-0.54,3.78-1.69c1.87-1.62,3.65-3.4,5.74-4.69
            c3.5-2.16,5.31-5.54,7.14-8.94c0.16-0.3-0.17-1.24-0.43-1.32c-1.72-0.47-3.52-1.22-5.23-1.07c-3.61,0.32-7.2,1.02-10.2,3.37
            c-0.81,0.64-1.78,1.08-2.59,1.72c-0.47,0.37-0.91,0.9-1.11,1.44c-0.75,2.02-1.89,3.77-3.39,5.31c-0.5,0.51-1.06,0.98-1.51,1.54
            c-0.94,1.19-0.71,1.87,0.74,2.33c1.98,0.62,3.96,1.21,5.95,1.8C73.05,167.58,73.5,167.62,73.74,167.66z M41.61,166.13
            c0.02,0.1,0.04,0.2,0.07,0.29c2.27-0.59,4.54-1.16,6.8-1.76c1.48-0.4,1.61-0.79,0.5-1.86c-1.78-1.71-3.8-3.21-5.41-5.06
            c-1.54-1.77-3.38-2.62-5.53-3.3c-1.47-0.47-2.81-1.41-4.15-2.25c-1.08-0.68-2.02-1.57-3.09-2.26c-1.09-0.71-1.58-0.44-1.78,0.83
            c-0.2,1.3-0.49,2.59-0.61,3.9c-0.25,2.89,0.55,5.5,2.65,7.51C33.98,164.97,37.55,166.25,41.61,166.13z M61.45,176.67
            c0.19-0.06,0.37-0.11,0.56-0.17c-0.87-2.22-1.72-4.45-2.66-6.64c-0.09-0.21-1.04-0.37-1.17-0.2c-0.95,1.15-2.18,2.27-2.57,3.62
            c-0.82,2.78-1.22,5.69-1.69,8.56c-0.39,2.37,1.03,4.92,3.16,5.96c1.27,0.62,1.59,0.44,2.17-0.85c0.27-0.61,0.71-1.36,1.26-1.58
            c2.01-0.83,2.65-1.98,2.07-4.08C62.15,179.76,61.82,178.21,61.45,176.67z M54.31,223.92c0.17-0.66,0.31-1.02,0.36-1.4
            c0.31-2.26,0.62-4.51,0.9-6.77c0.11-0.87,0.4-1.84,0.14-2.6c-0.86-2.51-0.13-4.67,0.94-6.9c0.5-1.03,0.75-2.27,0.78-3.42
            c0.06-3.07-0.04-6.15-0.13-9.22c-0.01-0.45-0.26-1.11-0.59-1.26c-0.36-0.16-1.02,0.05-1.39,0.31c-0.83,0.6-1.04,1.5-1.03,2.54
            c0.01,1.22,0.19,2.65-0.37,3.61c-1.17,2-1.65,4.02-1.48,6.27c0.33,4.26,0.67,8.52,0.99,12.79c0.04,0.55,0.17,1.22-0.07,1.65
            C52.46,221.16,53.37,222.34,54.31,223.92z M69.24,193.56c-0.14-0.08-0.29-0.16-0.43-0.24c-0.73,0.85-1.53,1.66-2.17,2.58
            c-0.72,1.04-1.42,1.8-2.83,1.15c-0.58-0.26-0.85,0.08-0.7,0.77c0.4,1.9,0.77,3.8,1.09,5.71c0.29,1.73-0.13,3.33-1.14,4.77
            c-1.31,1.87-2.02,3.97-2.42,6.19c-0.15,0.83-0.2,1.68-0.3,2.52c0.13,0.07,0.26,0.15,0.39,0.22c0.57-0.63,1.11-1.3,1.72-1.9
            c0.7-0.69,1.37-1.54,2.22-1.94c1.88-0.89,2.74-2.27,2.89-4.3c0.27-3.66,0.6-7.31,0.97-10.97C68.7,196.6,69,195.09,69.24,193.56z
             M44.69,188.73c-0.17,0.46-0.31,0.7-0.34,0.95c-0.33,3.21-0.68,6.41-0.92,9.62c-0.04,0.58,0.25,1.28,0.6,1.77
            c1.91,2.68,3.61,5.45,4.66,8.6c0.11,0.34,0.43,0.61,0.66,0.91c0.22-0.78,0.15-1.4,0.1-2.03c-0.28-3.06-0.69-6.11-0.81-9.17
            c-0.11-2.8-0.27-5.49-2.24-7.73c-0.44-0.5-0.65-1.18-0.99-1.77C45.23,189.54,45.01,189.23,44.69,188.73z M45.46,143.87
            c0.15-0.11,0.3-0.22,0.44-0.34c-0.14-0.39-0.2-0.83-0.42-1.16c-1.43-2.15-2.89-4.28-4.35-6.41c-1.5-2.2-3.01-4.39-4.5-6.6
            c-0.42-0.63-0.79-1.3-1.18-1.96c-0.15,0.03-0.29,0.06-0.44,0.08c-0.21,1.3-0.62,2.62-0.57,3.91c0.05,1.28,0.56,2.54,0.92,3.8
            c0.1,0.34,0.33,0.68,0.59,0.92c0.73,0.67,1.51,1.29,2.28,1.91C40.65,139.98,43.06,141.92,45.46,143.87z M67.2,185.71
            c1.68-1.12,2.25-2.54,1.6-3.82C68.28,183.15,67.78,184.33,67.2,185.71z M62.96,166.3c0.38,0.81,0.68,1.46,1.05,2.25
            C64.66,167.08,64.57,166.89,62.96,166.3z"/>
        <path fill="#fff" d="M59.64,0c1.41,1.02,1.74,2.64,1.83,4.14c0.25,4.18,0.33,8.38,0.32,12.56c0,1.29-0.58,2.56-0.79,3.86
            c-0.2,1.21-0.5,2.47-0.34,3.66c0.72,5.6,1.8,11.13,4.57,16.15c0.42,0.76,0.87,1.63,1.56,2.09c4.47,2.97,3.84,11.84-0.37,15.37
            c-3.25,2.72-6.98,2.85-10.59,0.61c-1.8-1.12-2.22-2.65-2.64-4.4c-0.41-1.74-0.02-3.32,0.89-4.81c1.45-2.39,1.27-2.93-0.43-5.2
            c-2.12-2.85-4.06-5.83-5.98-8.82c-0.95-1.48-1.21-3.21-1.06-4.96c0.34-3.95,1.71-7.42,4.63-10.24c1.4-1.36,2.72-2.83,3.88-4.4
            c0.61-0.82,0.96-1.91,1.14-2.94c0.65-3.53,1.13-7.09,1.78-10.63c0.13-0.72,0.74-1.35,1.13-2.03C59.32,0,59.48,0,59.64,0z"/>
    </g>
</g>
</svg>
